<?xml version="1.0" encoding="UTF-8" standalone="no"?>
<!-- Created with Inkscape (http://www.inkscape.org/) -->

<svg
   xmlns:dc="http://purl.org/dc/elements/1.1/"
   xmlns:cc="http://creativecommons.org/ns#"
   xmlns:rdf="http://www.w3.org/1999/02/22-rdf-syntax-ns#"
   xmlns:svg="http://www.w3.org/2000/svg"
   xmlns="http://www.w3.org/2000/svg"
   xmlns:sodipodi="http://sodipodi.sourceforge.net/DTD/sodipodi-0.dtd"
   xmlns:inkscape="http://www.inkscape.org/namespaces/inkscape"
   width="1920"
   height="1200"
   id="svg2"
   version="1.1"
   inkscape:version="0.48.2 r9819"
   sodipodi:docname="New document 1">
  <defs
     id="defs4" />
  <sodipodi:namedview
     id="base"
     pagecolor="#ffffff"
     bordercolor="#666666"
     borderopacity="1.0"
     inkscape:pageopacity="0.0"
     inkscape:pageshadow="2"
     inkscape:zoom="0.24748737"
     inkscape:cx="814.27799"
     inkscape:cy="653.01818"
     inkscape:document-units="px"
     inkscape:current-layer="layer1"
     showgrid="false"
     fit-margin-top="0"
     fit-margin-left="0"
     fit-margin-right="0"
     fit-margin-bottom="0"
     inkscape:showpageshadow="false"
     inkscape:window-width="1280"
     inkscape:window-height="686"
     inkscape:window-x="0"
     inkscape:window-y="0"
     inkscape:window-maximized="1" />
  <metadata
     id="metadata7">
    <rdf:RDF>
      <cc:Work
         rdf:about="">
        <dc:format>image/svg+xml</dc:format>
        <dc:type
           rdf:resource="http://purl.org/dc/dcmitype/StillImage" />
        <dc:title></dc:title>
      </cc:Work>
    </rdf:RDF>
  </metadata>
  <g
     inkscape:label="Layer 1"
     inkscape:groupmode="layer"
     id="layer1"
     transform="translate(1807.1484,-308.62917)">
    <path
       style="opacity:0.23999999;fill:#000000"
       d="m -1718.0109,1504.9345 c -14.9502,-3.8849 -16.8507,-4.55 -46.8495,-16.3949 -11.2732,-4.4512 -25.3822,-9.7028 -31.3534,-11.6702 -9.7094,-3.1991 -10.8569,-3.6832 -10.8584,-4.5812 0,-0.9797 0.1496,-0.9538 6.2206,1.0658 3.4222,1.1384 8.3963,2.7808 11.0535,3.6497 2.6572,0.869 14.8454,5.5237 27.0849,10.3438 30.6241,12.0605 30.503,12.0191 48.6065,16.6382 8.8575,2.26 16.3241,4.1938 16.5925,4.2972 0.2684,0.1036 -1.159,0.1914 -3.1721,0.1953 -3.0893,0.01 -5.7912,-0.5467 -17.3246,-3.5437 z m 180.81,0.4367 c 6.7657,-2.0872 17.8152,-6.2099 34.132,-12.7348 13.2702,-5.3065 26.1172,-10.2572 28.5489,-11.0014 16.5016,-5.05 32.5282,-6.2238 48.5868,-3.558 3.3571,0.5572 14.8347,3.7676 18.9517,5.3009 1.7002,0.6331 14.7668,6.5525 29.037,13.154 23.873,11.0438 25.7676,12.003 23.717,12.0069 -1.9351,0 -5.3732,-1.4533 -26.1088,-11.0637 -13.1341,-6.0874 -25.3077,-11.5992 -27.0524,-12.2485 -4.1886,-1.5589 -15.6495,-4.7687 -19.0326,-5.3302 -15.7288,-2.611 -31.2409,-1.4518 -47.6107,3.558 -2.4317,0.7442 -15.2787,5.696 -28.5489,11.0038 -26.5092,10.6034 -36.9205,14.1093 -41.6962,14.0412 -2.9245,-0.042 -2.9157,-0.046 7.0762,-3.1282 z m 278.6571,1.9851 c -1.2078,-0.6466 -9.9921,-4.9763 -19.5206,-9.6214 -30.6671,-14.95 -47.5375,-25.3359 -65.7467,-40.4757 -13.6035,-11.3106 -22.6901,-21.042 -35.5404,-38.0631 -6.9989,-9.2705 -10.4356,-13.3766 -14.1287,-16.8809 -6.7655,-6.4196 -12.7869,-9.9525 -20.2526,-11.8825 -3.5824,-0.926 -5.2522,-1.0733 -12.2428,-1.0793 -7.4964,-0.01 -9.6423,0.2104 -29.037,2.9356 -35.0691,4.9276 -51.3976,6.1781 -80.6886,6.1799 -20.1528,0 -36.9347,0.8922 -47.8612,2.5411 -11.3372,1.7109 -27.1299,5.4758 -45.3855,10.8196 -35.0609,10.2632 -49.3938,12.5493 -78.7519,12.561 -19.4558,0.01 -35.1974,-1.3604 -60.5767,-5.2648 -17.6694,-2.7181 -25.1558,-4.0302 -32.5751,-5.7086 -5.2344,-1.1841 -6.2222,-1.5436 -6.2222,-2.2644 0,-1.0873 0.086,-1.0831 5.8898,0.2882 5.9929,1.4159 16.6646,3.2884 33.5926,5.8944 24.9347,3.8387 41.0057,5.2436 59.8916,5.2358 28.8152,-0.012 43.379,-2.3493 78.2639,-12.5609 18.2556,-5.3439 34.0483,-9.1088 45.3855,-10.8197 10.9265,-1.6489 27.7084,-2.5399 47.8612,-2.5411 29.3095,0 45.6385,-1.2534 80.731,-6.1882 19.6155,-2.7585 21.5335,-2.9511 29.3965,-2.9533 9.3673,0 13.8148,0.7612 19.3111,3.3161 10.4572,4.861 16.2005,10.2349 28.8631,27.0074 12.8504,17.0211 21.9369,26.7527 35.5405,38.0631 17.3339,14.4122 35.4986,25.7539 61.3545,38.3091 15.0668,7.3162 26.1936,12.8584 27.5595,13.727 1.9341,1.2301 -2.7165,0.7074 -5.1108,-0.5744 z m 74.1785,-5.3679 c -25.4583,-9.5087 -35.4097,-13.9235 -57.8299,-25.6548 -19.3854,-10.1433 -44.9257,-27.8588 -56.6099,-39.2661 -5.7797,-5.6427 -18.2773,-19.5663 -22.1927,-24.7247 -12.0381,-15.8602 -25.4684,-41.8413 -29.8606,-57.7657 -1.3557,-4.915 -2.4316,-10.7421 -3.8478,-20.84 -3.1238,-22.2726 -5.4365,-27.7575 -13.6412,-32.3517 -5.439,-3.0455 -11.1367,-4.0798 -19.0533,-3.4588 -7.9039,0.6201 -23.7865,4.6194 -57.8092,14.5567 -32.9309,9.6184 -39.6141,11.079 -63.4421,13.8648 -14.0639,1.6443 -25.0454,2.0696 -53.6817,2.079 -41.6841,0.014 -63.6707,1.7631 -105.1675,8.3676 -27.2617,4.3389 -40.2255,6.1345 -56.1218,7.7737 -24.2873,2.5043 -43.8554,1.1353 -76.0085,-5.3176 -6.8924,-1.3833 -7.4423,-1.5685 -7.4423,-2.5075 0,-0.6062 0.2452,-0.9396 0.61,-0.8293 1.3443,0.4066 14.6709,3.0036 20.8627,4.0654 24.3632,4.1783 40.6941,4.9139 61.49,2.7696 15.8964,-1.6392 28.8601,-3.4348 56.1219,-7.7737 41.4968,-6.6044 63.4834,-8.3538 105.1674,-8.3676 28.6363,-0.01 39.6179,-0.4348 53.6818,-2.079 23.828,-2.7858 30.5112,-4.2464 63.4421,-13.8647 34.4907,-10.0741 49.8805,-13.9367 58.0739,-14.5757 8.6126,-0.6718 14.662,0.4656 20.7199,3.8954 8.4502,4.7844 10.9885,10.7576 14.1499,33.2986 1.4163,10.0978 2.4922,15.925 3.8478,20.84 4.3702,15.8444 17.4259,41.116 29.3726,56.8559 3.9154,5.1585 16.4131,19.0821 22.1928,24.7248 11.6828,11.4059 37.2181,29.1183 56.6098,39.2669 22.4725,11.7609 32.2919,16.0756 59.538,26.161 10.4679,3.8748 19.1241,7.1277 19.236,7.2287 0.1118,0.1008 -0.9863,0.1645 -2.4401,0.1414 -2.2055,-0.035 -5.514,-1.1139 -19.968,-6.5126 z m 221.11191,6.373 c 0.11185,-0.1 2.83864,-1.2068 6.05955,-2.4598 3.2209,-1.2531 14.3321,-6.0709 24.69161,-10.7062 10.35946,-4.6353 24.19471,-10.6704 30.74501,-13.4116 12.82282,-5.3658 64.05333,-23.6336 97.55641,-34.7869 37.26549,-12.4057 49.67754,-17.6509 84.67078,-35.7812 25.18876,-13.0504 33.4149,-17.816 57.34189,-33.2193 40.51129,-26.0795 49.49659,-31.365 62.4213,-36.7192 15.41019,-6.3838 25.52446,-9.0753 83.33231,-22.1759 62.94353,-14.2644 100.40039,-23.7678 134.36762,-34.0916 15.87838,-4.8259 70.57742,-25.0365 102.18749,-37.7569 38.01816,-15.299 53.95486,-20.264 95.46155,-29.7399 36.70862,-8.3807 51.04511,-12.1494 73.68789,-19.3707 39.243514,-12.5155 64.739473,-23.915 93.372839,-41.7478 24.0335707,-14.9682 46.819967,-34.0146 56.7081,-47.4004 3.490047,-4.7246 8.439066,-14.223 9.817565,-18.8425 2.76222,-9.2562 3.099,-11.4529 3.095633,-20.1902 -0.0049,-11.5139 -1.246784,-17.7828 -7.099121,-35.8241 -5.679775,-17.5092 -9.497329,-26.1173 -17.448526,-39.34425 -7.958127,-13.23852 -14.435759,-20.34096 -56.00238,-61.40438 -15.193892,-15.00996 -29.763806,-29.59918 -32.37762,-32.42051 -5.63517,-6.08258 -12.214115,-15.61723 -16.867836,-24.446 -1.84919,-3.5081 -8.845828,-18.75685 -15.548094,-33.88611 -12.47496,-28.16001 -32.56516,-71.1781 -39.50548,-84.591 -9.15777,-17.69823 -26.71786,-45.63781 -50.92882,-81.03189 -9.98471,-14.59672 -21.42703,-31.86119 -25.4274,-38.36551 -7.81269,-12.70295 -18.64567,-32.63093 -21.75868,-40.02656 -3.5875,-8.52294 -8.65628,-26.49834 -13.46714,-47.75896 -2.5474,-11.25747 -6.85634,-28.44382 -9.57551,-38.19189 -7.37119,-26.42574 -11.01101,-42.22135 -18.5472,-80.48954 -7.52487,-38.21041 -8.40393,-41.58576 -20.50263,-78.72226 -5.8681,-18.01195 -11.64997,-35.46103 -12.84863,-38.77573 -2.13307,-5.89873 -2.15654,-6.02673 -1.10497,-6.02673 0.95842,0 1.37372,0.84675 3.8482,7.84612 1.52564,4.31536 7.26339,21.6621 12.75059,38.54831 11.32027,34.83676 12.37121,38.90454 19.8095,76.67544 7.53619,38.26819 11.17601,54.06381 18.5472,80.48954 2.71918,9.74807 7.02811,26.93443 9.57551,38.19189 4.81218,21.26638 9.88135,39.24209 13.46807,47.75896 3.10866,7.38167 13.45402,26.40719 21.27028,39.11687 4.00007,6.50431 15.44214,23.76879 25.42685,38.36551 24.40139,35.67245 41.75729,63.30734 51.17717,81.48674 7.10396,13.70978 27.04849,56.38541 39.72173,84.99303 6.689431,15.10015 13.577338,30.14423 15.306526,33.43127 4.442117,8.44397 11.092702,18.05103 16.644812,24.04395 2.613814,2.82133 17.183728,17.41056 32.37762,32.42052 46.634229,46.06966 50.287175,50.29346 61.451909,71.05497 5.022319,9.3394 7.787955,16.1174 12.487013,30.6034 5.916902,18.2404 7.09468,24.2591 7.099121,36.2789 0.0049,9.244 -0.303497,11.2882 -3.103392,20.6714 -1.385526,4.6433 -6.746529,14.9183 -10.278106,19.6991 -9.935568,13.4503 -32.6419786,32.4211 -56.889593,47.5303 -28.55909,17.7957 -54.904588,29.5716 -94.1871,42.0995 -22.64277,7.2213 -36.97927,10.9899 -73.68788,19.3706 -41.5067,9.4761 -57.4434,14.4409 -95.46156,29.7401 -31.61007,12.7203 -86.3091,32.9308 -102.18748,37.7568 -33.96724,10.3238 -71.4241,19.8273 -134.36763,34.0917 -85.97808,19.4845 -81.38433,17.6302 -144.77757,58.4402 -23.92757,15.4036 -32.15372,20.1691 -57.34189,33.2191 -35.39219,18.3365 -48.36307,23.8244 -85.64681,36.2362 -33.50309,11.1532 -84.7336,29.4212 -97.55641,34.787 -6.5503,2.741 -20.38556,8.7773 -30.74501,13.414 -23.00938,10.2985 -26.11165,11.5256 -29.13749,11.5256 -1.26777,0 -2.2135,-0.082 -2.10169,-0.1815 z m 88.81892,-0.01 c 0.38836,-0.3575 38.4095,-15.6849 48.07178,-19.3789 5.3446,-2.0434 19.27038,-7.0545 30.94617,-11.1357 23.0755,-8.0661 33.985,-12.4024 67.83423,-26.963 14.88083,-6.4012 25.10208,-11.1125 30.98902,-14.2839 16.95441,-9.134 72.9135,-42.9432 91.61564,-55.3522 19.50425,-12.9412 26.61903,-16.9392 39.36684,-22.1217 18.77906,-7.6344 32.804,-11.2464 90.82082,-23.3901 60.26326,-12.614 75.28312,-16.2031 96.95035,-23.1672 13.12466,-4.2184 55.17139,-19.9853 87.56067,-32.834 30.12343,-11.9498 47.25831,-17.7316 65.84123,-22.2167 4.16033,-1.0041 20.53176,-4.6975 36.38096,-8.2075 15.8492,-3.5101 33.96679,-7.6305 40.26132,-9.1564 15.58504,-3.7783 58.091823,-15.6722 69.762531,-19.5204 23.460103,-7.7358 65.624885,-25.7106 84.6707855,-36.0951 10.3055815,-5.6189 14.7829335,-8.7855 45.3854925,-32.0981 33.799699,-25.7481 41.941759,-34.1887 49.135361,-50.9366 3.48604,-8.116 4.79163,-16.3316 4.78612,-30.1177 -0.008,-20.721 -2.44208,-31.0747 -11.785638,-50.137 C 88.438786,1009.5694 76.818147,992.71631 65.727787,980.00687 56.771278,969.74279 26.860822,939.61444 12.183252,926.07223 4.5703477,919.0482 -8.0270059,908.06087 -15.810862,901.65598 c -21.416682,-17.62261 -28.394726,-25.1702 -38.265144,-41.38838 -3.135991,-5.15269 -13.193709,-23.90403 -23.772726,-44.32131 -21.032564,-40.59225 -20.331285,-39.19109 -34.103778,-68.13893 -19.00808,-39.95237 -26.11189,-52.74794 -41.41358,-74.59496 -23.06462,-32.93049 -27.75328,-40.0306 -33.49064,-50.71547 -4.93799,-9.19615 -8.40661,-17.11366 -11.15888,-25.47145 -2.83132,-8.59784 -3.54973,-11.4373 -8.57307,-33.88611 -5.32597,-23.80107 -9.93772,-38.32802 -23.82544,-75.0498 -12.64,-33.42272 -13.22562,-35.38605 -21.13905,-70.87136 -4.30962,-19.32522 -5.23968,-22.84606 -13.23914,-50.11799 -3.37546,-11.50764 -8.48489,-29.36608 -11.35423,-39.68542 -5.01158,-18.02319 -5.17556,-18.76227 -4.16365,-18.76227 0.97525,0 1.37181,1.1564 5.34255,15.57852 2.35902,8.56818 7.33854,25.98301 11.06562,38.69958 8.82113,30.09741 9.98403,34.47521 14.30433,53.84825 7.90952,35.46774 8.49656,37.43583 21.13564,70.85603 13.88772,36.72178 18.49947,51.24873 23.82543,75.0498 5.02334,22.4488 5.74175,25.28826 8.57308,33.88611 3.81413,11.58238 9.77847,23.99362 17.37713,36.16036 3.4652,5.54838 11.86523,17.81606 26.78437,39.11686 15.35728,21.92642 22.73783,35.22584 41.90149,75.50464 13.755614,28.91214 13.079614,27.5612 33.908237,67.76311 10.344964,19.96706 20.456071,38.81834 23.528425,43.86647 9.818737,16.13316 16.827428,23.709 38.217074,41.30936 7.7838562,6.40488 20.3812098,17.39222 27.994114,24.41624 14.677571,13.54221 44.588026,43.67057 53.544536,53.93466 11.21046,12.84706 23.079157,30.13418 28.93125,42.13908 9.431494,19.3476 11.765724,29.3783 11.773824,50.5955 0.007,17.2592 -1.65252,25.0136 -8.020053,37.4841 -1.871639,3.6655 -5.971023,9.5056 -9.804535,13.9679 -5.282725,6.1493 -16.765499,15.8687 -36.584904,30.9669 -30.603731,23.3134 -35.081132,26.48 -45.3854934,32.0977 -19.3345616,10.5409 -62.0444576,28.7676 -85.6468176,36.5502 -11.670708,3.8482 -54.177497,15.7422 -69.762527,19.5205 -6.29453,1.5259 -24.41213,5.6462 -40.26133,9.1564 -15.8492,3.5099 -32.22062,7.2034 -36.38096,8.2075 -18.58292,4.4851 -35.7178,10.2669 -65.84122,22.2167 -32.38929,12.8486 -74.43602,28.6156 -87.56067,32.834 -21.66723,6.9641 -36.6871,10.5532 -96.95036,23.1672 -57.74538,12.0869 -71.95709,15.7389 -90.50184,23.2565 -12.32202,4.9951 -19.32866,8.9409 -38.70436,21.7969 -18.74685,12.4386 -76.35782,47.2121 -92.63662,55.9146 -5.2514,2.8074 -16.77956,8.0929 -30.77547,14.1102 -34.12359,14.6707 -44.93788,18.9687 -68.03573,27.0394 -23.63633,8.259 -36.12246,12.9779 -59.42425,22.458 -12.75284,5.1885 -16.2037,6.4177 -18.01594,6.4177 -1.23288,0 -2.15011,-0.084 -2.0383,-0.1872 z m 90.24232,-0.5769 c 0.93943,-0.3796 12.1394,-4.9446 24.88882,-10.1443 12.74942,-5.1996 33.06308,-13.3468 45.14148,-18.1047 25.49025,-10.0411 31.82187,-12.6988 39.3809,-16.5299 41.37736,-20.9714 50.20509,-25.8745 74.26852,-41.25 19.91257,-12.7234 30.082,-18.4635 48.08257,-27.1405 19.36525,-9.3348 33.21334,-15.0761 44.91109,-18.6197 10.23984,-3.102 70.66166,-19.6168 105.19919,-28.7538 31.37421,-8.2999 73.12872,-20.1702 92.47905,-26.2906 8.18647,-2.5893 22.02172,-7.3118 30.74501,-10.4946 8.72328,-3.1828 19.04482,-6.8954 22.93675,-8.2504 6.82764,-2.3772 36.88469,-11.249 58.56193,-17.2855 10.30036,-2.8684 59.6707,-14.5301 109.315594,-25.8213 39.207503,-8.9173 39.614752,-9.0307 67.590223,-18.8257 21.20581084,-7.4248 35.447876,-13.5307 64.662128,-27.7223 38.667415,-18.7837 46.870281,-23.6925 61.389395,-36.7369 6.9878,-6.2781 7.42082,-6.5873 7.42082,-5.2997 0,1.1631 -1.00243,2.2625 -6.71022,7.3597 -13.861756,12.3788 -22.462063,17.4915 -60.635947,36.0465 -29.511063,14.3443 -44.4165862,20.7417 -65.638159,28.1721 -27.975472,9.795 -28.382721,9.9084 -67.590224,18.8258 -49.6449,11.2912 -99.01524,22.9528 -109.3156,25.8212 -21.67723,6.0365 -51.73428,14.9083 -58.56192,17.2854 -3.89193,1.3551 -14.21347,5.0677 -22.93676,8.2505 -8.72328,3.1827 -22.55854,7.9054 -30.74501,10.4946 -19.35032,6.1203 -61.10483,17.9906 -92.47904,26.2907 -34.53753,9.1369 -94.95935,25.6518 -105.1992,28.7537 -11.62464,3.5215 -25.52807,9.2794 -44.43947,18.4041 -17.5208,8.4536 -27.8255,14.28 -47.57815,26.9012 -24.10994,15.4053 -32.93571,20.305 -74.64279,41.4395 -7.51871,3.81 -16.36674,7.5289 -39.73865,16.7025 -10.33374,4.0561 -29.78597,11.8549 -43.2272,17.3308 -21.3953,8.7161 -24.73773,9.9514 -26.84088,9.9188 l -2.40231,-0.037 1.70806,-0.6903 z m 86.86685,-0.4667 c 20.48423,-9.5246 68.92056,-32.845 76.51931,-36.8413 5.44782,-2.8652 17.72006,-10.0244 27.27171,-15.9095 18.17318,-11.1973 28.97893,-17.2932 53.98902,-30.4572 22.74984,-11.9742 29.15134,-14.7777 43.77059,-19.1688 11.71586,-3.519 16.40798,-4.6625 44.40947,-10.8229 14.35988,-3.1593 35.00296,-7.988 45.87352,-10.7304 25.03664,-6.3162 69.09585,-19.0701 108.33956,-31.361 64.02093,-20.051 159.29064,-45.2566 218.143179,-57.7142 36.981759,-7.8282 69.6275929,-15.0683 79.30260877,-17.5877 14.54165823,-3.7865 32.61050123,-9.5666 56.60986223,-18.1087 13.152033,-4.6813 26.76768,-9.6367 30.256995,-11.012 8.067296,-3.1799 21.389645,-9.0307 23.823335,-10.4625 l 1.86773,-1.099 -0.15714,1.2773 c -0.14123,1.1478 -0.82455,1.5851 -6.74536,4.3163 -10.722831,4.9465 -23.207892,9.7807 -48.557544,18.8012 -24.00429,8.5419 -42.076207,14.3223 -56.60986218,18.1068 -9.67501582,2.5193 -42.32084982,9.7595 -79.30260882,17.5876 -58.852535,12.4577 -154.122255,37.6632 -218.143175,57.7142 -39.24371,12.291 -83.30293,25.0448 -108.33956,31.3611 -10.87056,2.7424 -31.51364,7.5711 -45.87353,10.7303 -28.00148,6.1605 -32.69361,7.3041 -44.40946,10.823 -14.58768,4.3815 -20.36281,6.9072 -42.80032,18.717 -25.00404,13.1607 -35.81111,19.2575 -53.98327,30.4541 -21.69665,13.3682 -29.24548,17.335 -69.87389,36.7183 -29.46744,14.0586 -32.96222,15.615 -35.38117,15.7577 l -2.68408,0.1584 2.68408,-1.2481 z m 81.49869,0.234 c 0.93943,-0.5399 9.50411,-5.6911 19.03262,-11.4473 9.52852,-5.756 25.66965,-15.0984 35.86918,-20.7606 10.19954,-5.6622 26.12106,-14.8832 35.38117,-20.4913 25.58077,-15.492 33.97899,-19.2328 59.63151,-26.561 12.11148,-3.4599 33.29852,-7.8546 84.33324,-17.4927 78.13234,-14.7557 74.57729,-13.8696 149.0889,-37.1584 59.39482,-18.5641 64.26732,-19.98 82.75698,-24.0475 19.58989,-4.3098 25.97593,-5.3238 88.780663,-14.0985 27.780314,-3.8814 56.1049609,-7.9789 62.9436762,-9.1057 15.3241438,-2.525 27.8873358,-5.5883 58.8163288,-14.3411 34.028579,-9.6301 35.290344,-10.0159 43.677392,-13.3548 4.16033,-1.6563 7.72895,-3.0116 7.93026,-3.0119 0.2013,-4e-4 0.36601,0.3894 0.36601,0.8661 0,0.6864 -1.59884,1.5019 -7.68625,3.9206 -8.527352,3.3882 -9.803856,3.7786 -43.799396,13.3994 -30.928993,8.7528 -43.492185,11.816 -58.8163287,14.341 -6.8387154,1.1268 -35.1633623,5.2244 -62.9436763,9.1058 -62.804739,8.7746 -69.190769,9.7888 -88.780659,14.0985 -18.48966,4.0676 -23.36216,5.4834 -82.75698,24.0474 -74.51161,23.2888 -70.95656,22.4028 -149.08891,37.1585 -51.03472,9.6381 -72.22175,14.0328 -84.33324,17.4928 -25.66461,7.3315 -33.19216,10.6935 -59.32181,26.4939 -9.62661,5.8211 -25.32852,14.915 -34.89315,20.2086 -9.56463,5.2935 -25.60899,14.5995 -35.65411,20.6799 -16.31599,9.8763 -18.47595,11.0546 -20.25267,11.0478 l -1.98881,-0.01 1.70806,-0.9817 z m 68.10264,0.6133 c 0.25498,-0.211 7.05183,-4.5543 15.10409,-9.6516 16.96559,-10.7398 29.50213,-17.8141 42.21339,-23.821 25.50055,-12.0503 41.87031,-16.2511 116.14784,-29.8053 64.15093,-11.7064 61.10732,-11.0774 100.2873,-20.7255 31.44526,-7.7435 74.88982,-17.5462 125.66413,-28.3547 56.556375,-12.0393 65.192307,-13.5978 108.583571,-19.5955 37.1718416,-5.1381 42.6879846,-6.0923 59.781967,-10.3413 11.211827,-2.7869 82.664452,-22.2142 88.294352,-24.0064 4.34403,-1.3829 4.42865,-1.3883 4.42865,-0.2815 0,0.7056 -1.0019,1.1799 -5.24617,2.4835 -7.619886,2.3405 -75.223969,20.7001 -86.988816,23.6241 -17.0964224,4.2491 -22.6120286,5.2032 -59.781967,10.341 -43.391264,5.9977 -52.027196,7.5562 -108.583567,19.5955 -50.77432,10.8084 -94.21887,20.6112 -125.66414,28.3546 -39.17998,9.6482 -36.13637,9.0192 -100.2873,20.7256 -74.63406,13.6192 -91.38112,17.9383 -116.74936,30.1098 -12.41811,5.9581 -24.6738,12.9183 -40.59869,23.0568 -11.34506,7.2227 -13.91553,8.6756 -15.34811,8.6756 -0.97564,0 -1.52002,-0.1661 -1.25717,-0.3837 z m 82.93832,-2.1493 c 15.26602,-7.8933 19.73718,-9.7662 32.45309,-13.5939 10.48126,-3.1551 19.60394,-4.9462 69.54228,-13.6543 24.96203,-4.3528 52.19332,-9.3541 60.51399,-11.1142 18.20866,-3.8515 67.26887,-15.9168 97.84722,-24.0633 24.75764,-6.5958 33.33223,-8.7628 50.7018,-12.813 33.91946,-7.9094 43.44143,-8.9281 97.899092,-10.4725 42.961273,-1.2184 55.04557517,-1.8311 77.106536,-3.9097 22.119718,-2.0841 52.442547,-6.8725 80.490832,-12.7103 5.3507,-1.1136 10.01736,-2.0248 10.37034,-2.0248 0.35298,0 0.64179,0.3751 0.64179,0.8337 0,0.7176 -1.58103,1.1591 -11.34637,3.1687 -29.324645,6.0347 -57.334033,10.4477 -79.668576,12.5521 -22.06096078,2.0785 -34.145263,2.6913 -77.106536,3.9097 -54.457658,1.5445 -63.979638,2.563 -97.899098,10.4724 -17.36956,4.0503 -25.94415,6.2172 -50.70179,12.813 -30.57835,8.1467 -79.63856,20.2119 -97.84722,24.0634 -8.32067,1.76 -35.55197,6.7614 -60.51399,11.1142 -50.57535,8.8191 -59.09552,10.4994 -70.0303,13.8111 -10.75096,3.2558 -15.98108,5.3388 -25.18799,10.0311 -6.54147,3.3339 -8.47059,4.1187 -10.11423,4.1148 l -2.03103,-0.01 4.88016,-2.5233 z m 100.04331,2.2832 c 2.81229,-1.0267 119.15834,-23.9449 172.75768,-34.0305 77.45635,-14.5748 79.29471,-14.9022 90.77099,-16.1692 13.902551,-1.535 24.903165,-1.8454 90.526977,-2.5541 34.758943,-0.3753 65.613758,-0.8905 68.566255,-1.145 17.981928,-1.5496 37.907769,-4.1834 53.559718,-7.0796 1.11604,-0.2066 1.34204,-0.09 1.34204,0.6888 0,1.0845 0.60465,0.9256 -10.49235,2.7579 -14.448736,2.3859 -28.321276,4.108 -43.921392,5.4522 -2.952497,0.2545 -33.807312,0.7698 -68.566255,1.1451 -34.758944,0.3755 -67.48042,0.8976 -72.714392,1.1603 -11.12784,0.5587 -23.336391,1.8419 -32.941081,3.4624 -20.86708,3.5207 -151.39566,28.4532 -192.68582,36.8052 -42.9136,8.6804 -48.69946,9.7524 -52.46173,9.7205 -2.32578,-0.02 -4.00905,-0.1161 -3.74064,-0.214 z m 152.99303,-3.6484 c 28.81364,-5.7091 99.10625,-18.6161 108.58357,-19.9381 18.414461,-2.5684 44.577587,-3.6176 58.561931,-2.3484 24.639394,2.2362 50.181129,6.4303 76.398376,12.5449 37.535706,8.7544 51.710132,10.9108 71.718893,10.9108 8.9425,0 9.26786,0.032 9.26786,0.9097 0,0.8785 -0.32536,0.9097 -9.51187,0.9097 -20.268725,0 -34.280642,-2.124 -71.959385,-10.9081 -25.9935408,-6.0599 -49.935852,-10.0396 -74.205818,-12.3345 -8.447363,-0.7989 -11.827118,-0.902 -21.716714,-0.6632 -14.496176,0.3499 -27.229832,1.2867 -38.065253,2.8002 -9.13644,1.2763 -68.78591,12.1543 -99.69704,18.1815 -16.86989,3.2892 -20.30074,3.8281 -24.1568,3.7943 l -4.49438,-0.04 19.27663,-3.8193 z m 109.41574,3.6533 c 0.1446,-0.1347 5.616479,-0.555 12.159749,-0.9341 12.379845,-0.717 21.032125,-0.5641 27.757426,0.4905 3.237108,0.5077 1.126634,0.5807 -18.25995,0.6313 -12.055998,0.032 -21.801775,-0.053 -21.657225,-0.1877 z m -963.44383,-22.567 c -16.9984,-2.2092 -41.1952,-6.3214 -50.0217,-8.5011 -17.7661,-4.3876 -15.9404,-3.8219 -29.2615,-9.0653 -15.6661,-6.1663 -41.7966,-18.6046 -57.8493,-27.5365 -14.0108,-7.7958 -28.7175,-18.8696 -42.4767,-31.9839 -9.0926,-8.6666 -15.9909,-17.1982 -22.5691,-27.9133 -8.7018,-14.1742 -13.0923,-26.4529 -16.9957,-47.5315 -2.2523,-12.163 -2.8563,-20.3383 -3.3622,-45.5087 -0.5021,-24.9829 -0.7493,-27.5243 -3.2686,-33.612 -1.5363,-3.7124 -5.7985,-9.2122 -9.5204,-12.2849 -4.1065,-3.3902 -12.6793,-7.0594 -20.3952,-8.7293 -11.6677,-2.525 -29.9206,-4.849 -61.7341,-7.8597 -39.9257,-3.7785 -54.6446,-4.5865 -63.278,-3.4738 -18.2161,2.348 -26.9145,5.0249 -55.6131,17.1149 -29.9701,12.6258 -49.139,18.2427 -91.6631,26.8596 -9.4799,1.9209 -34.189,5.3835 -54.9265,7.6971 -30.0277,3.3501 -62.8377,4.0955 -90.0389,2.0456 -27.328,-2.0594 -53.3328,-5.1024 -65.3942,-7.6522 -2.2182,-0.4689 -2.7122,-0.7508 -2.846,-1.6242 -0.1292,-0.8434 0.019,-1.0063 0.732,-0.8058 8.7297,2.4532 37.8309,5.9895 67.9962,8.2629 26.9941,2.0342 59.1042,1.2967 89.0629,-2.0457 20.7375,-2.3136 45.4466,-5.7762 54.9265,-7.6972 42.5241,-8.6167 61.6929,-14.2337 91.6631,-26.8595 28.6906,-12.0867 37.3192,-14.7429 55.6188,-17.1218 8.828,-1.1477 24.171,-0.317 64.2484,3.4785 31.8067,3.0122 50.0751,5.3387 61.734,7.8619 7.7492,1.6771 17.1965,5.7369 21.3713,9.1839 4.0102,3.3111 8.1211,8.6669 9.8386,12.8178 2.712,6.5545 2.9303,8.7124 3.4384,33.9891 0.5058,25.1704 1.1098,33.3456 3.3622,45.5086 2.5619,13.8345 5.3438,23.6355 9.5755,33.7362 2.9212,6.9722 11.031,19.9773 17.2536,27.6682 9.8286,12.1476 26.4638,26.7795 43.744,38.4759 14.7162,9.9611 56.7129,30.1848 79.0586,38.0712 4.4192,1.5597 24.6815,6.4051 31.965,7.6438 9.8661,1.6781 28.791,4.5898 35.032,5.3902 7.5388,0.9666 33.9284,0.9732 45.0332,0.011 20.8058,-1.8026 31.15665,-3.948 53.65121,-11.1208 18.64114,-5.9441 28.07928,-9.5829 57.82249,-22.2926 15.15348,-6.4754 32.31066,-13.0844 47.83299,-18.4254 9.35775,-3.2199 20.76498,-6.5344 53.19375,-15.4561 25.42632,-6.9953 35.93618,-10.4001 46.11751,-14.9401 17.35747,-7.7401 41.37815,-20.7335 80.03464,-43.2928 9.79692,-5.7174 21.21649,-12.2295 25.37683,-14.4716 9.55809,-5.1509 32.60079,-16.0617 38.06525,-18.0239 24.63964,-8.8481 30.30985,-10.4499 82.03911,-23.1746 64.73558,-15.924 67.24125,-16.6165 120.24356,-33.2327 44.07995,-13.8191 47.32102,-14.8841 59.35666,-19.506 17.94635,-6.8915 55.27865,-22.2155 76.05242,-31.2176 31.05622,-13.458 35.29484,-15.0756 54.18516,-20.6769 13.73609,-4.0731 29.33474,-7.7624 64.41812,-15.2362 33.33418,-7.1012 38.40452,-8.3577 49.28962,-12.214 28.982931,-10.268 51.942378,-20.9017 65.877482,-30.5113 8.212871,-5.6636 28.924906,-22.2215 33.253609,-26.5842 7.4752831,-7.5338 13.3248876,-15.2479 15.9294292,-21.0067 0.8485624,-1.8762 2.3543359,-6.8909 3.3461309,-11.1438 2.8701688,-12.3068 2.8430351,-22.8575 -0.095651,-37.196 -1.4339865,-6.9934 -2.4378355,-10.4489 -5.05325996,-17.3906 -4.40971304,-11.704 -7.69669634,-18.1119 -14.57796714,-28.41942 -6.738428,-10.09351 -17.135024,-21.14857 -42.561685,-45.25729 -27.771335,-26.33189 -35.446509,-34.99218 -42.326169,-47.75897 -6.257099,-11.61143 -10.062889,-22.47168 -16.782679,-47.89118 -7.42609,-28.09137 -8.18593,-30.47927 -13.99742,-43.98796 -4.81809,-11.19939 -7.36446,-16.50118 -15.8776,-33.05857 -8.52047,-16.57155 -12.16053,-22.63216 -27.40562,-45.63001 -5.14081,-7.75514 -14.80597,-22.49219 -21.47812,-32.749 -12.92213,-19.86468 -15.64282,-23.5321 -31.71817,-42.75564 -20.62878,-24.66878 -24.46409,-29.6709 -30.96579,-40.38665 -6.81094,-11.22551 -9.7732,-18.3472 -13.72501,-32.99686 -1.88506,-6.98796 -8.54228,-46.28148 -18.23765,-107.6457 -7.9732,-50.46402 -12.73365,-71.74651 -21.17462,-94.66552 -7.61618,-20.6795 -10.82493,-27.13592 -27.7077,-55.75113 -6.0067,-10.18121 -10.92131,-18.63854 -10.92131,-18.79424 0,-0.15574 0.47664,-0.21774 1.05914,-0.13782 0.83919,0.11516 3.12628,3.64101 11.01101,16.97472 16.86393,28.51815 20.94931,36.72214 28.51092,57.25344 8.44097,22.91901 13.20142,44.2015 21.17463,94.66552 9.69536,61.36422 16.35259,100.65774 18.23765,107.64571 3.93341,14.58153 6.85809,21.63908 13.44259,32.43825 6.39306,10.48518 10.28318,15.54829 30.76019,40.03555 16.07535,19.22354 18.79604,22.89096 31.71817,42.75564 6.67215,10.25681 16.33731,24.99386 21.47812,32.74901 15.35694,23.16655 19.00066,29.24426 27.81457,46.39441 8.44039,16.4234 11.64948,23.11525 16.35918,34.11355 5.39258,12.5929 6.27579,15.39153 13.59491,43.07827 10.13233,38.32843 15.207064,49.26418 31.623143,68.14594 2.797504,3.21768 14.478461,14.72422 26.997683,26.59451 25.426661,24.10873 35.823257,35.16379 42.561686,45.2573 7.0573949,10.57134 10.5895575,17.44814 15.0697401,29.33924 5.234509,13.8932 7.5681529,27.0781 7.169639,40.5083 -0.1837868,6.1923 -0.4789389,8.3762 -2.0247786,14.9815 -1.0776858,4.6049 -2.5197733,9.2961 -3.5653965,11.5986 -2.77593288,6.1125 -8.5211019,13.7246 -16.197887,21.4616 -4.328703,4.3626 -25.040738,20.9205 -33.253609,26.5842 -14.021043,9.6688 -37.708366,20.6406 -66.85351,30.9661 -10.88511,3.8563 -15.95545,5.1127 -49.28963,12.2139 -35.08337,7.4737 -50.68202,11.1632 -64.41812,15.2363 -18.89032,5.6013 -23.12893,7.2188 -54.18515,20.6768 -20.77377,9.0022 -58.10607,24.3262 -76.05242,31.2177 -12.03565,4.6217 -15.27671,5.6869 -59.35666,19.5059 -53.00232,16.6161 -55.50799,17.3086 -120.24356,33.2328 -51.72604,12.7239 -57.4391,14.3379 -82.03911,23.175 -5.44504,1.9561 -27.50751,12.4074 -37.08922,17.5697 -4.16034,2.2414 -15.57991,8.7532 -25.37684,14.4706 -51.57343,30.0974 -76.68533,43.0482 -96.38317,49.707 -4.56295,1.5425 -18.3982,5.5838 -30.74501,8.9807 -32.42876,8.9217 -43.83599,12.2362 -53.19375,15.4561 -15.52232,5.341 -32.6795,11.9498 -47.83299,18.4252 -29.74321,12.7099 -39.18134,16.3487 -57.82248,22.2927 -22.49457,7.1727 -32.84543,9.3183 -53.65123,11.1207 -8.9409,0.7747 -39.3904,0.8901 -44.928,0.1705 z m 28.5489,-37.0741 c -30.2492,-2.2955 -50.6729,-5.5337 -75.3985,-11.9544 -9.0436,-2.3484 -28.6216,-11.2617 -39.1271,-17.8133 -13.851,-8.638 -17.9571,-11.7107 -27.2517,-20.3927 -7.9404,-7.417 -9.6073,-9.2415 -13.7376,-15.0365 -11.9695,-16.7937 -19.1357,-32.0687 -23.7928,-50.7155 -2.1246,-8.5069 -2.8192,-13.0148 -3.469,-22.515 -0.5073,-7.4159 -0.3957,-13.4083 0.9401,-50.4879 1.8368,-50.989 1.8938,-58.365 0.5059,-65.4471 -2.2454,-11.4576 -4.2572,-16.3073 -8.9252,-21.5151 -7.283,-8.1253 -19.7856,-10.6599 -39.8033,-8.0693 -3.9141,0.5066 -16.3401,2.3592 -27.6133,4.117 -11.2731,1.7577 -23.1319,3.486 -26.3528,3.8407 -8.7021,0.9583 -29.2145,0.8417 -42.7014,-0.2428 -10.4633,-0.8412 -14.9461,-1.4714 -37.2907,-5.2416 -16.775,-2.8306 -30.5083,-4.4011 -38.1078,-4.358 -6.2476,0.035 -20.8117,2.0392 -28.5471,3.9277 -14.4897,3.5373 -22.7404,6.1645 -46.3634,14.7634 -13.5546,4.9339 -28.1585,10.1454 -32.453,11.5812 -4.2946,1.4359 -16.5926,5.5799 -27.3289,9.209 -21.5619,7.2884 -24.0894,8.0282 -40.9132,11.9761 -14.9548,3.5093 -30.9765,6.4013 -46.9297,8.4707 -11.1531,1.4468 -14.2218,1.6708 -25.3608,1.8514 -17.543,0.2844 -27.7919,-0.5415 -61.0181,-4.9166 -36.0593,-4.7483 -40.5056,-5.5407 -52.9497,-9.4364 -4.6625,-1.4596 -5.6386,-1.9236 -5.7681,-2.7422 -0.086,-0.5419 -0.076,-0.9853 0.023,-0.9853 0.098,0 2.8038,0.8251 6.0121,1.8336 12.6188,3.9664 16.9554,4.7421 53.1709,9.5108 33.0396,4.3507 43.5789,5.2065 60.5451,4.9162 10.5222,-0.18 13.8867,-0.4307 24.8577,-1.8526 15.9437,-2.0661 31.9656,-4.9574 46.9297,-8.469 16.8238,-3.9478 19.3513,-4.6877 40.9132,-11.976 10.7364,-3.6292 23.0344,-7.7732 27.3289,-9.209 4.2946,-1.4358 18.8984,-6.6474 32.4531,-11.5814 23.6229,-8.5987 31.8736,-11.226 46.3634,-14.7634 7.9699,-1.9457 22.3573,-3.9004 29.0351,-3.9449 7.9203,-0.052 21.4299,1.4788 38.5958,4.3753 22.3445,3.7703 26.8273,4.4005 37.2906,5.2417 13.4305,1.0799 33.0851,1.1941 41.7254,0.2427 3.2209,-0.3546 15.0797,-2.083 26.3529,-3.8407 26.9171,-4.197 33.7079,-5.0483 40.6129,-5.0914 17.543,-0.1096 27.3882,4.6636 33.3728,16.1802 2.0682,3.9799 3.2529,7.8689 4.7961,15.7431 1.3948,7.1171 1.3327,15.3364 -0.4995,66.1294 -1.8564,51.4669 -1.6902,55.8787 2.7582,73.2304 4.695,18.3136 11.3981,32.5211 23.0691,48.8961 4.1303,5.795 5.7972,7.6195 13.7376,15.0365 9.2909,8.6785 13.4028,11.756 27.2279,20.3777 10.466,6.5271 29.1485,15.0295 38.1749,17.3734 22.3007,5.791 34.9916,7.9918 63.181,10.9565 11.1746,1.1752 39.2951,1.7122 45.0751,0.8608 22.87343,-3.3694 39.65621,-7.4564 60.35346,-14.6971 8.98349,-3.1429 14.09087,-5.4026 34.16112,-15.1145 29.48793,-14.2691 33.83835,-16.1949 48.5576,-21.4944 15.85822,-5.7096 19.09587,-6.6246 50.26565,-14.2056 12.48101,-3.0356 24.4496,-6.0469 26.59687,-6.6916 6.18878,-1.8582 25.52768,-9.152 29.28097,-11.0434 1.87886,-0.9469 16.81215,-8.1193 33.18509,-15.9389 16.37294,-7.8196 38.22386,-18.4153 48.5576,-23.5461 26.27517,-13.0458 27.95975,-13.7619 47.58156,-20.2283 15.40306,-5.076 26.09515,-7.7507 59.53796,-14.8931 50.15414,-10.7117 59.42713,-12.7797 68.56626,-15.2913 40.01843,-10.998 63.79352,-20.7951 131.03232,-53.9949 45.80929,-22.6187 72.07168,-33.556 101.01932,-42.0705 4.29454,-1.2631 17.14157,-4.6786 28.54894,-7.5899 28.69164,-7.3225 86.40315,-23.33 96.13917,-26.6663 14.49846,-4.9682 31.43653,-12.2317 43.562748,-18.6809 3.426263,-1.8222 10.234087,-5.8579 15.128498,-8.9681 7.351132,-4.6716 9.963092,-6.6495 15.016791,-11.3712 9.34092,-8.7275 13.638926,-14.8734 18.152245,-25.9569 3.166101,-7.7749 4.27624,-11.6819 5.280626,-18.5844 2.862117,-19.6698 -1.340433,-40.8713 -11.14736,-56.2379 -5.977757,-9.36663 -13.058529,-16.52502 -44.568164,-45.05631 -6.338404,-5.73927 -13.436154,-12.58422 -15.772774,-15.21096 -6.3976,-7.19196 -12.54465,-16.11815 -17.07105,-24.78918 -8.4274,-16.14398 -9.54091,-20.14813 -14.42492,-51.87137 -3.54168,-23.00439 -5.76728,-32.59576 -10.04938,-43.30856 -5.66498,-14.17236 -17.98592,-35.52816 -44.28116,-76.75233 -17.29382,-27.11221 -22.10507,-33.91955 -38.81055,-54.91172 -2.7325,-3.43369 -11.06254,-13.16014 -18.51128,-21.61434 -28.63766,-32.50346 -38.8347,-46.16819 -47.07656,-63.08593 -10.0217,-20.57113 -10.78579,-23.9957 -18.93234,-84.85513 -6.02544,-45.01318 -8.94377,-60.02778 -16.66487,-85.73871 -17.54837,-58.43554 -24.37347,-72.37372 -44.54479,-90.96943 -5.02959,-4.63671 -9.19978,-7.82747 -19.32026,-14.78253 -12.33017,-8.47367 -23.18408,-16.65005 -26.79677,-20.18639 l -1.68175,-1.64628 1.48411,0 c 0.90263,0 1.84845,0.38194 2.41382,0.97474 2.39065,2.50653 14.33084,11.44332 26.04464,19.49338 10.12047,6.95508 14.29067,10.14583 19.32026,14.78254 20.30313,18.71724 27.42655,33.2509 45.0328,91.87913 7.7211,25.71092 10.63944,40.72552 16.66487,85.7387 8.14611,60.85598 8.92982,64.36829 18.92854,84.82902 7.98247,16.33494 18.20827,29.98667 46.59235,62.20234 25.51675,28.96126 35.38844,42.14021 57.32183,76.52607 26.35467,41.31737 39.03201,63.30905 44.76967,77.66322 4.28156,10.71146 6.50735,20.30378 10.04888,43.30737 4.85561,31.53869 6.05706,35.87966 14.29326,51.64395 4.18981,8.01941 10.50084,17.12153 16.7147,24.1069 2.33662,2.62674 9.43437,9.47169 15.772772,15.21095 31.508903,28.53066 38.587625,35.68686 44.568603,45.05626 7.995997,12.5262 12.542257,28.7499 12.57266,44.8668 0.02733,14.4011 -3.090264,26.7937 -10.167277,40.4171 -3.03546,5.8433 -7.904396,11.8832 -14.691333,18.2244 -5.053699,4.7217 -7.665659,6.6996 -15.016791,11.3712 -4.894411,3.1102 -11.702235,7.1477 -15.128498,8.9721 -12.292786,6.5454 -29.979116,14.1426 -44.538786,19.1318 -9.73602,3.3363 -67.44753,19.3438 -96.13916,26.6663 -11.40738,2.9113 -24.2544,6.3268 -28.54894,7.59 -28.88264,8.4953 -54.71719,19.2424 -100.04329,41.618 -67.9394,33.539 -91.92169,43.4306 -132.00836,54.4473 -9.13912,2.5116 -18.41211,4.5796 -68.56625,15.2912 -33.44282,7.1426 -44.13491,9.8171 -59.53796,14.8932 -19.57706,6.4516 -20.80745,6.9737 -46.60554,19.7771 -10.33374,5.1285 -31.96505,15.6188 -48.06958,23.3118 -16.10453,7.6929 -31.25742,14.968 -33.6731,16.1669 -4.60268,2.284 -23.56157,9.4905 -30.257,11.5009 -2.14727,0.6448 -14.11586,3.656 -26.59687,6.6915 -31.16939,7.581 -34.40728,8.496 -50.26566,14.2056 -14.88332,5.3584 -18.12833,6.7938 -47.73363,21.1144 -10.55164,5.1039 -21.42219,10.2172 -24.15679,11.3629 -14.93608,6.2572 -39.09648,13.3845 -54.50574,16.0792 -18.33003,3.2055 -18.20463,3.194 -33.97133,3.1113 -8.0224,-0.042 -15.4647,-0.1431 -16.5383,-0.2246 z m 4.5279,-36.7899 c -9.7069,-0.8583 -19.0349,-2.5762 -29.2372,-5.3842 -9.9753,-2.7457 -15.611,-4.9047 -22.1402,-8.4818 -10.9809,-6.0161 -19.148,-12.4642 -28.4995,-22.5008 -12.7439,-13.6778 -17.6787,-23.3971 -22.5165,-44.3476 -2.122,-9.1896 -3.3693,-23.8841 -3.3973,-40.0266 -0.024,-14.0714 0.5416,-20.1973 4.0343,-43.6654 2.0097,-13.5036 2.0641,-14.1936 2.0451,-25.9263 -0.019,-11.724 -0.056,-12.1744 -1.3544,-16.4795 -0.7342,-2.4344 -4.2119,-10.8263 -7.7283,-18.6488 -11.564,-25.7252 -12.5956,-29.0622 -16.2778,-52.6572 -2.7994,-17.9379 -4.4309,-23.6651 -8.0967,-28.4227 -1.8752,-2.4337 -6.3944,-5.8281 -9.3038,-6.988 -3.1768,-1.2667 -10.3201,-2.3436 -15.5366,-2.3424 -6.1463,0 -38.5021,2.275 -64.9062,4.5608 -47.5724,4.1184 -70.1479,4.5829 -119.8681,2.4665 -31.2672,-1.3308 -41.3572,-1.2412 -56.0616,0.4981 -13.1267,1.5527 -22.1464,3.7899 -34.4868,8.5543 -17.935,6.9244 -30.1913,12.3245 -45.5479,20.0683 -22.1114,11.1501 -28.3819,13.5988 -62.466,24.3944 -26.915,8.5248 -42.5948,12.1188 -66.3702,15.213 -17.1443,2.2311 -28.1269,2.9278 -46.1175,2.9256 -23.9007,0 -54.6954,-2.0913 -66.1262,-4.4845 -13.4902,-2.8244 -27.8357,-7.1539 -44.1654,-13.3291 -8.785,-3.3221 -10.0245,-3.9158 -10.1693,-4.8707 -0.1167,-0.7693 0.026,-1.0118 0.488,-0.8289 21.0938,8.3494 38.7942,13.9557 54.3347,17.2093 11.315,2.369 42.2369,4.4816 65.6382,4.4845 17.4708,0 28.6289,-0.7132 45.6295,-2.9256 23.7754,-3.0941 39.4552,-6.6881 66.3702,-15.2131 34.0749,-10.7925 39.949,-13.0858 62.1021,-24.2453 15.4471,-7.7815 27.8666,-13.2504 45.9118,-20.2173 12.3313,-4.7608 21.356,-7 34.4868,-8.5569 14.7679,-1.751 25.4983,-1.8448 57.0376,-0.4986 49.3798,2.1077 71.3491,1.6524 118.8921,-2.4633 27.1844,-2.3534 58.8156,-4.5594 65.3942,-4.5608 6.0018,0 12.849,1.0563 16.4866,2.5465 3.3564,1.375 7.8554,4.6916 9.8162,7.2365 4.0078,5.2015 5.7479,11.1464 8.5863,29.3346 3.6822,23.5949 4.7138,26.9319 16.2779,52.6572 3.5163,7.8223 6.9948,16.2143 7.7299,18.6487 1.3064,4.3265 1.3369,4.7079 1.3548,16.9344 0.018,12.2642 -0.022,12.7791 -2.0468,26.3813 -3.4479,23.163 -4.0368,29.4784 -4.0218,43.1309 0.018,15.7827 1.2791,30.5422 3.3895,39.6512 1.6678,7.1989 4.291,16.2071 5.8427,20.0647 1.3568,3.3728 6.2156,11.4121 9.3466,15.4645 6.7253,8.7045 18.3608,19.7835 26.0613,24.8147 11.0154,7.1971 17.2701,9.9969 30.4178,13.6162 23.528,6.4768 46.7893,7.7123 75.48171,4.0092 12.93555,-1.6696 31.28935,-6.2952 42.70141,-10.762 10.51879,-4.1172 19.07879,-9.4179 36.6012,-22.6651 23.97784,-18.1277 37.51936,-25.6884 61.002,-34.0599 10.59298,-3.7763 26.09559,-7.1312 51.4857,-11.1421 33.0504,-5.221 38.72876,-6.9423 69.64033,-21.1109 32.93298,-15.095 42.8483,-19.1064 59.19591,-23.9484 12.63683,-3.7429 15.11966,-4.1961 65.97762,-12.0405 71.48923,-11.0266 84.20614,-13.4542 111.1722,-21.2231 26.36854,-7.5966 35.85201,-12.2927 81.74271,-40.4773 12.2126,-7.5006 25.57643,-15.4416 29.69734,-17.6468 10.05649,-5.3814 23.71074,-11.4723 34.17683,-15.246 17.92288,-6.4621 71.26596,-23.8536 114.49569,-37.3289 54.13953,-16.8763 59.35832,-18.5765 69.87024,-22.7631 18.97372,-7.5568 26.5205,-11.3696 37.24929,-18.819 16.74881,-11.6295 28.691829,-25.4763 32.863732,-38.1023 2.451451,-7.4193 2.761438,-9.2431 2.761438,-16.246 0,-6.2143 -0.02928,-6.382 -2.38918,-13.7368 -4.0478,-12.6147 -9.185975,-22.7426 -19.46891,-38.3752 -7.99444,-12.1536 -12.47115,-17.44403 -27.90442,-32.97642 -13.28209,-13.36742 -16.09247,-16.47066 -21.83208,-24.10691 -5.30542,-7.05859 -8.95797,-13.36195 -11.06981,-19.10359 -2.52676,-6.86983 -4.9133,-19.56156 -7.39833,-39.34427 -2.63689,-20.99226 -3.67149,-25.58198 -9.58659,-42.52823 -3.6688,-10.51084 -19.9152,-41.55435 -32.7306,-62.54149 -9.53983,-15.62285 -16.969,-25.88449 -39.35107,-54.35425 -17.87428,-22.73586 -23.15017,-28.76499 -32.88604,-37.58131 -8.57552,-7.7656 -13.86815,-11.64874 -31.82675,-23.35103 -20.39482,-13.2898 -24.73226,-16.79549 -32.24688,-26.0634 -7.043,-8.68623 -10.65773,-18.01114 -12.65235,-32.63924 -0.60763,-4.4559 -0.87082,-13.54333 -1.22502,-42.29065 -0.6066,-49.23258 -1.78087,-64.7059 -6.28233,-82.78219 -2.63343,-10.57486 -4.25652,-15.61973 -7.82914,-24.33433 -6.45914,-15.75566 -14.00826,-27.75428 -29.90523,-47.53153 -5.43831,-6.76575 -19.13697,-19.37992 -26.73891,-24.62202 -3.0867,-2.12853 -12.85922,-8.53958 -21.71671,-14.24676 -20.92828,-13.4849 -39.75398,-26.65905 -45.8495,-32.08538 -4.53948,-4.04109 -9.20896,-8.67285 -17.71698,-17.57389 -1.94465,-2.03444 -3.53573,-3.8254 -3.53573,-3.97991 0,-0.15447 0.52218,-0.28087 1.16045,-0.28087 0.8227,0 1.99448,0.89004 4.02614,3.05812 6.49495,6.931 12.94379,13.33835 17.5248,17.41201 6.10874,5.4321 24.94924,18.61508 45.85487,32.08538 8.85749,5.70719 18.63001,12.11823 21.71673,14.24675 7.60192,5.2421 21.30058,17.85628 26.73888,24.62202 8.45073,10.51351 13.83419,17.89186 18.33213,25.12536 5.82067,9.3607 8.33009,14.21151 12.06171,23.31587 3.57242,8.71586 5.19556,13.76127 7.82856,24.33433 4.50146,18.0763 5.67572,33.54962 6.28233,82.7822 0.3542,28.74732 0.61738,37.83474 1.22501,42.29064 1.98242,14.53857 5.35544,23.3322 12.17654,31.74464 7.5012,9.25123 11.8481,12.76388 32.23468,26.04831 17.9586,11.70229 23.25123,15.58543 31.82675,23.35103 9.73587,8.81631 15.01176,14.84544 32.88603,37.58131 22.38174,28.46928 29.8109,38.73091 39.35118,54.35424 12.92818,21.17151 29.52887,52.88068 33.21852,63.4512 5.9151,16.94624 6.94969,21.53596 9.58659,42.52821 3.52459,28.0588 6.19326,39.13857 11.61273,48.21381 2.78047,4.65605 8.88477,12.92635 13.26096,17.96647 1.62909,1.87624 8.35146,8.83541 14.93851,15.4648 15.43326,15.53241 19.90998,20.82282 27.90442,32.97643 10.451641,15.88904 15.880526,26.57544 19.957608,39.28494 l 2.388497,7.4456 0,6.746 c 0,7.4811 -0.286612,9.2065 -2.790183,16.7974 -3.257849,9.8778 -11.000858,20.381 -22.633602,30.7021 -4.80905,4.2669 -15.46557,11.7725 -21.57294,15.1945 -8.87384,4.9719 -29.60018,13.6107 -43.93433,18.312 -4.60912,1.5116 -28.58408,9.0463 -53.27769,16.7437 -43.18615,13.4618 -96.56949,30.8657 -114.4503,37.3127 -10.5006,3.786 -23.31932,9.4955 -33.25191,14.8104 -4.11778,2.2036 -17.47902,10.1432 -29.69162,17.6438 -45.39761,27.8818 -55.60798,32.9894 -80.63921,40.3391 -27.38726,8.0414 -41.21793,10.7057 -113.25173,21.8163 -50.85796,7.8443 -53.34079,8.2974 -65.97763,12.0404 -16.34761,4.842 -26.26292,8.8534 -59.19591,23.9484 -30.91157,14.1685 -36.58993,15.8899 -69.64033,21.1109 -33.99632,5.3704 -45.03539,8.1716 -65.88216,16.718 -13.03252,5.3428 -26.84337,13.8265 -45.6295,28.0291 -11.441,8.6496 -15.71929,11.6523 -21.2287,14.8992 -8.88316,5.2351 -14.69695,7.9392 -22.44874,10.4415 -6.03393,1.9476 -21.32171,5.9618 -26.35287,6.9195 -17.28123,3.2895 -40.48876,4.5023 -57.45016,3.0024 z m 14.7488,-68.438 c -27.9801,-4.527 -46.3834,-16.0374 -54.1675,-33.8789 -3.6092,-8.2723 -4.6314,-13.0268 -5.2814,-24.5645 -0.4391,-7.7938 0.387,-15.7239 4.7434,-45.538 l 3.4638,-23.7055 0,-11.1193 c 0,-13.2135 0.099,-12.4511 -6.3271,-48.911 l -4.907,-27.8427 -0.3611,-13.0936 c -0.2797,-10.1389 -0.1636,-16.7369 0.5145,-29.2405 1.3006,-23.9813 0.6993,-41.5613 -1.7969,-52.5348 -3.094,-13.6013 -12.0174,-22.0801 -25.4317,-24.1644 -5.1189,-0.7954 -16.5685,-0.7812 -23.9128,0.03 -3.2209,0.3556 -15.8483,2.4967 -28.0609,4.7581 -12.2126,2.2613 -32.8557,5.8647 -45.8735,8.0076 -13.0178,2.1428 -23.9982,3.9876 -24.4008,4.0994 -0.4026,0.1118 -5.6284,0.7187 -11.6129,1.3485 l -10.8808,1.1452 -50.3652,0 c -57.9889,0.01 -97.0716,0.5964 -106.487,1.6107 -18.3064,1.9722 -28.2387,3.842 -44.6535,8.4062 -23.9346,6.6552 -36.1878,12.1872 -79.0586,35.6932 -33.7636,18.5126 -46.8814,24.7389 -66.784,31.699 -11.9941,4.1944 -40.1239,10.5955 -61.8082,14.0648 -10.7652,1.7223 -11.8033,1.8069 -25.3768,2.0679 -36.6283,0.7045 -65.9345,-4.2161 -107.8516,-18.1087 -5.3682,-1.7792 -10.3642,-3.433 -11.1023,-3.6752 -0.9678,-0.3176 -1.3421,-0.7497 -1.3421,-1.5491 0,-0.909 0.1537,-1.0346 0.854,-0.698 1.7912,0.8614 22.2711,7.4661 31.8431,10.2693 30.1385,8.8262 57.4357,12.547 87.5989,11.9403 12.9758,-0.2609 14.23,-0.3651 24.8888,-2.0682 21.6511,-3.4595 49.8059,-9.8652 61.8082,-14.0625 19.8222,-6.932 32.0853,-12.7542 65.808,-31.2443 43.1621,-23.6655 56.0064,-29.4667 80.0346,-36.1478 16.4128,-4.5637 26.3266,-6.4302 44.6535,-8.4071 9.3622,-1.0099 48.7016,-1.603 106.731,-1.6092 l 50.1212,-0.01 10.8808,-1.1452 c 5.9845,-0.6298 11.2103,-1.2367 11.6129,-1.3485 0.4026,-0.1118 11.3829,-1.9566 24.4008,-4.0994 13.0178,-2.1428 33.6609,-5.7463 45.8735,-8.0076 12.2126,-2.2613 24.84,-4.4025 28.0609,-4.7581 7.3235,-0.8085 19.7431,-0.8269 24.8888,-0.037 11.821,1.815 20.5979,8.614 24.9352,19.3159 4.1049,10.1286 5.3533,28.4113 3.8567,56.4808 -0.6308,11.8311 -0.7858,19.916 -0.5799,30.2473 l 0.281,14.1003 4.9302,27.9731 c 6.4778,36.7546 6.3501,35.7596 6.3501,49.4983 l 0,11.5765 -3.6282,25.0677 c -1.9955,13.7872 -3.8948,27.7079 -4.2208,30.9349 -1.0045,9.9461 0.081,23.7868 2.3935,30.5205 1.4898,4.3384 3.8739,9.623 5.2857,11.7166 8.6463,12.8223 20.7067,20.368 40.1872,25.1435 9.8499,2.4147 14.6526,2.939 26.9176,2.939 12.37228,0 18.97377,-0.6237 28.47218,-2.6902 8.99438,-1.9568 13.92456,-3.5412 24.82352,-7.9778 16.63949,-6.7732 23.27851,-10.5366 39.39485,-22.3314 33.24068,-24.3273 52.53405,-36.7632 68.03398,-43.8522 16.7632,-7.6669 26.28098,-10.3655 55.32374,-15.6858 39.64764,-7.2631 58.3857,-8.0491 108.16163,-4.5365 l 24.40081,1.7219 37.33322,0.011 37.33323,0.011 13.17644,-1.4483 c 22.94549,-2.5221 38.98921,-5.6598 63.16006,-12.3524 12.88357,-3.5672 22.65912,-7.6747 36.1512,-15.1896 5.50429,-3.0658 12.32812,-7.6518 24.1568,-16.2346 22.92364,-16.6332 27.83762,-19.791 40.01733,-25.7159 13.78333,-6.7051 42.49961,-17.4508 85.64682,-32.0494 80.65382,-27.2886 119.57286,-41.1291 131.90825,-46.9097 9.24692,-4.3332 23.92537,-14.1075 32.49674,-21.6395 9.66272,-8.4909 13.93301,-14.5639 17.51895,-24.9148 4.12432,-11.9049 3.00403,-26.7376 -3.29792,-43.6654 -2.9177,-7.83713 -4.08294,-10.28839 -7.36074,-15.4843 -4.56759,-7.24039 -6.90748,-9.85945 -25.59249,-28.64532 -13.66611,-13.73993 -17.66404,-18.6501 -22.1756,-27.23584 -5.50628,-10.47873 -7.61222,-16.43546 -17.38318,-49.16904 -5.22719,-17.51162 -10.26273,-33.88612 -11.19011,-36.38777 -8.17495,-22.05205 -10.41255,-26.9578 -17.73831,-38.88945 -6.02231,-9.80869 -21.16979,-29.74396 -39.05368,-51.39774 -5.24481,-6.35041 -9.29573,-10.5209 -20.03491,-20.62643 -21.78504,-20.49961 -25.12971,-23.01061 -57.13829,-42.89622 -20.41649,-12.68392 -25.922,-15.82125 -43.98928,-25.06753 -6.88176,-3.52186 -14.3484,-7.47094 -16.59254,-8.77573 -14.10645,-8.20167 -22.86619,-18.0673 -26.4276,-29.7639 -2.49723,-8.20145 -2.11984,-16.08361 1.81137,-37.83328 6.33041,-35.02378 7.91232,-59.3722 5.37292,-82.70123 -0.98784,-9.07525 -2.12784,-14.20476 -4.82664,-21.71839 -3.73464,-10.39722 -9.29778,-20.04713 -15.53677,-26.95009 -8.74202,-9.6724 -16.44033,-15.73802 -36.94398,-29.1087 -18.91546,-12.33503 -41.77013,-29.24297 -70.76233,-52.35017 -16.5499,-13.19052 -20.96678,-17.40876 -38.05759,-36.34655 -14.86209,-16.4681 -18.21164,-19.95674 -28.27721,-29.45136 -7.5236,-7.09675 -7.97653,-7.61869 -6.61233,-7.61869 1.24234,0 2.57897,1.05252 8.80869,6.93643 9.31857,8.80129 12.90437,12.54645 27.5449,28.76908 17.09081,18.93779 21.50769,23.15604 38.05759,36.34655 28.9922,23.1072 51.84687,40.01514 70.76232,52.35016 20.50366,13.37069 28.20196,19.43631 36.94399,29.10871 6.29424,6.96411 12.22529,17.27566 16.01631,27.8455 2.82747,7.88335 3.4981,10.80452 4.6239,20.14088 2.86832,23.78728 1.32023,49.34075 -5.16169,85.20291 -3.88863,21.51408 -4.24908,28.8766 -1.80777,36.92358 2.69513,8.88352 8.54947,16.63301 17.65936,23.37586 5.5218,4.08712 9.84797,6.56671 24.86915,14.25407 18.06728,9.24628 23.57279,12.38362 43.98928,25.06754 32.00858,19.8856 35.35325,22.3966 57.13829,42.89622 10.73918,10.10552 14.7901,14.27601 20.03491,20.62643 17.88315,21.6529 33.03068,41.58814 39.05382,51.39773 7.55322,12.30153 10.06919,17.79545 18.22618,39.79913 0.92738,2.50167 5.96293,18.87617 11.19011,36.38779 9.7758,32.74978 11.98666,39.0027 17.32667,49.00415 4.3757,8.19539 8.24489,12.90834 21.7441,26.48589 18.84293,18.95231 21.04378,21.42299 25.74162,28.8974 3.43276,5.46158 4.74981,8.22365 7.69963,16.14712 6.33942,17.0284 7.48363,32.4964 3.29733,44.575 -3.73567,10.7782 -8.24762,17.2491 -18.00638,25.8246 -8.7758,7.7115 -23.27017,17.3197 -32.99491,21.8717 -12.89588,6.0365 -50.63016,19.4708 -132.38612,47.1323 -42.72136,14.4545 -71.9933,25.3941 -85.16588,31.8285 -11.73195,5.7307 -16.84289,9.026 -39.52223,25.482 -11.82868,8.5827 -18.65252,13.1687 -24.1568,16.2345 -13.85892,7.7193 -24.11936,12.0428 -37.12724,15.6446 -24.16943,6.6921 -40.21149,9.8296 -63.16006,12.3527 l -13.17643,1.4486 -37.82125,-0.011 -37.82124,-0.011 -24.4008,-1.7204 c -49.44535,-3.486 -67.59735,-2.7182 -107.1856,4.5341 -21.22075,3.8874 -29.95828,5.9362 -39.73046,9.3162 -21.21089,7.3362 -40.7493,19.1009 -82.65123,49.7669 -11.6201,8.5043 -16.55843,11.6665 -24.68908,15.8095 -6.93836,3.5355 -23.4091,10.3127 -29.70334,12.2221 -6.40077,1.9417 -16.26206,4.0092 -22.73984,4.7678 -8.2871,0.9704 -27.97854,0.8233 -34.66764,-0.2591 z m 30.74497,-74.7781 c -5.30869,-0.6848 -11.82931,-3.0056 -15.66957,-5.5769 -3.9381,-2.637 -7.3847,-7.1513 -9.0273,-11.824 -1.2136,-3.4523 -1.3961,-4.624 -1.2989,-8.3378 0.1225,-4.6801 0.4266,-6.2648 2.6622,-13.8728 1.1119,-3.784 2.6225,-7.1095 6.1983,-13.6455 5.98108,-10.9322 8.50422,-14.6611 21.7621,-32.1629 5.92935,-7.8274 11.57223,-15.4596 12.53977,-16.9605 5.0028,-7.761 8.01888,-14.8423 10.94576,-25.6989 1.87715,-6.9631 1.89994,-7.1512 1.84421,-15.2375 -0.0525,-7.6206 -0.16421,-8.5807 -1.61357,-13.8728 -3.07616,-11.232 -4.59311,-14.8677 -15.2712,-36.6008 -12.4284,-25.2953 -16.40593,-34.3296 -19.8316,-45.0443 -3.11311,-9.7369 -3.71742,-12.2926 -10.05557,-42.52819 -6.8853,-32.84542 -8.9799,-40.57101 -12.8252,-47.30411 -4.3093,-7.5455 -9.9466,-12.08156 -17.697,-14.23995 -6.8979,-1.92095 -11.957,-2.58972 -19.5586,-2.58545 -13.1517,0.007 -23.5303,1.58479 -69.9923,10.63779 -54.9754,10.71179 -60.2738,11.45056 -106.3875,14.83321 -50.737,3.72174 -51.2536,3.77828 -118.0999,12.9187 -70.7018,9.6676 -72.8725,9.98422 -87.5989,12.77585 -14.2838,2.70774 -20.0549,4.35402 -35.2421,10.05326 -13.2826,4.98458 -21.1149,8.49773 -45.5245,20.42039 -22.1591,10.8233 -28.8716,13.8891 -48.198,22.0134 -32.8886,13.8254 -42.5798,17.0724 -72.0684,24.1457 -23.323,5.5943 -30.8027,7.0692 -43.951,8.6662 -25.6829,3.1195 -58.3838,3.0011 -79.0586,-0.2862 -5.7794,-0.919 -42.9364,-8.2776 -45.9956,-9.1091 -0.7101,-0.193 -1.2964,-1.9901 -0.6492,-1.9901 0.1127,0 8.7323,1.7549 19.1547,3.8999 10.4223,2.1449 22.5733,4.4854 27.002,5.2009 21.4057,3.4584 52.8902,3.6437 79.0586,0.4652 13.1484,-1.597 20.628,-3.0718 43.9511,-8.6663 29.4893,-7.0734 39.1794,-10.32 72.0718,-24.147 19.3823,-8.1478 25.2369,-10.8207 47.2185,-21.5573 24.6611,-12.0454 33.2698,-15.90997 46.502,-20.87558 15.1858,-5.69873 20.9571,-7.34506 35.2407,-10.05276 14.7264,-2.79163 16.8971,-3.10824 87.5989,-12.77584 66.8463,-9.14043 67.3629,-9.19697 118.0999,-12.91871 46.1137,-3.38266 51.4121,-4.12142 106.3875,-14.83321 46.9079,-9.13988 56.79,-10.6306 70.5192,-10.63778 15.929,-0.008 27.3923,3.62959 34.0647,10.81049 1.3306,1.43195 3.5201,4.54802 4.8657,6.92459 4.1136,7.26555 6.0885,14.48562 13.0636,47.75897 6.33812,30.23553 6.94243,32.79133 10.05553,42.52823 3.42568,10.7146 7.4032,19.7489 19.83161,45.0443 10.67398,21.7247 12.18737,25.3512 15.27412,36.6008 1.47029,5.3585 1.56311,6.1827 1.61353,14.3276 0.0533,8.609 0.0464,8.6693 -1.8471,15.6923 -2.27376,8.4341 -4.35071,13.9437 -7.40603,19.6464 -3.42431,6.3916 -4.88441,8.4999 -16.56751,23.9227 -13.14423,17.3518 -15.78166,21.239 -21.51315,31.7081 -5.7756,10.5496 -8.4213,18.8031 -8.5788,26.7622 -0.069,3.4786 0.1368,4.7622 1.2439,7.7662 3.4464,9.3516 12.28137,14.9512 25.57824,16.2116 13.58457,1.2876 23.48163,-0.5146 41.65398,-7.5847 12.76704,-4.9672 32.26621,-17.4632 69.4767,-44.5239 19.38087,-14.0945 26.32763,-18.1377 38.21527,-22.2422 15.82562,-5.4643 28.82447,-7.4459 49.87163,-7.6025 10.41811,-0.077 15.89639,0.2501 28.54893,1.7076 26.30919,3.0307 42.75768,5.9289 80.03464,14.1019 40.4659,8.8721 58.06088,12.0762 74.91046,13.6415 11.7219,1.089 13.56363,1.1418 31.72104,0.9111 32.02538,-0.407 46.16515,-2.522 63.44209,-9.4898 11.85596,-4.7814 19.9376,-9.8827 42.70141,-26.954 20.22192,-15.165 26.52382,-19.2732 37.82126,-24.6562 8.75339,-4.1707 17.73787,-7.4137 41.72537,-15.0611 52.55645,-16.7552 85.47957,-27.9613 104.19143,-35.4638 40.29016,-16.1542 51.35802,-21.2897 67.94081,-31.5245 12.34812,-7.6211 27.07411,-22.2129 32.84187,-32.5428 2.89613,-5.1869 4.11153,-10.1122 4.12822,-16.7294 0.04,-15.752 -4.97913,-24.97068 -31.01161,-56.96182 -5.93428,-7.29252 -12.77948,-16.19615 -15.21166,-19.78585 -2.43217,-3.58966 -16.8873,-26.17606 -32.12258,-50.19199 -15.23527,-24.01593 -29.35636,-45.91683 -31.38016,-48.66866 -4.79227,-6.51623 -10.50835,-13.16018 -15.40994,-17.91138 -5.6584,-5.48482 -19.27712,-15.97851 -32.2035,-24.81392 -6.15515,-4.20716 -16.58649,-11.67216 -23.18076,-16.58887 -19.60834,-14.62006 -28.99884,-20.5888 -44.44264,-28.24845 -14.26793,-7.07643 -45.4818,-19.84519 -80.03465,-32.74003 -11.94419,-4.45748 -24.46181,-9.2667 -27.81692,-10.68717 -14.49427,-6.13648 -29.94027,-15.13006 -36.48369,-21.24301 -3.38073,-3.15828 -6.497,-8.2338 -7.34761,-11.96703 -0.28501,-1.25082 -0.64926,-4.02317 -0.80953,-6.16077 -0.25406,-3.38936 -0.10302,-4.56707 1.18042,-9.20649 2.14141,-7.74066 3.9806,-12.00603 13.52331,-31.36248 9.37382,-19.01391 13.66509,-28.9884 17.27182,-40.14609 5.14598,-15.91958 6.10088,-22.40124 5.68373,-38.58099 -0.2527,-9.80296 -0.46611,-11.96064 -1.96466,-19.86687 -2.91707,-15.3901 -5.91251,-23.56729 -14.74565,-40.25411 -5.56328,-10.5096 -10.3191,-17.95833 -16.98876,-26.60844 -3.71888,-4.82315 -7.0269,-8.13491 -21.80793,-21.83267 -13.93056,-12.90965 -19.84766,-18.79173 -29.51223,-29.33764 -14.45396,-15.77204 -28.97874,-29.63974 -38.78752,-37.03278 -3.89193,-2.93342 -12.1719,-8.6409 -18.39991,-12.68331 -6.22806,-4.04238 -16.98882,-11.27832 -23.91279,-16.07983 -13.96165,-9.68183 -17.63109,-11.97626 -31.13381,-19.46737 -13.41615,-7.44307 -40.04992,-19.22457 -54.11625,-23.93838 l -5.31474,-1.78104 2.59186,-0.14019 c 2.938,-0.15888 4.70681,0.37565 15.60187,4.71495 13.32655,5.30765 32.94059,14.38577 42.4266,19.63662 13.68607,7.57571 17.3723,9.87733 31.40852,19.61088 6.92397,4.8015 17.68473,12.03743 23.91279,16.07983 6.22801,4.04239 14.50798,9.74988 18.39991,12.68329 9.80878,7.39305 24.33355,21.26075 38.78752,37.03279 9.66457,10.54591 15.58166,16.42799 29.51223,29.33764 14.78103,13.69777 18.08905,17.00951 21.80792,21.83267 6.74038,8.74178 11.4431,16.12586 17.23595,27.06341 9.08154,17.14703 12.04321,25.19069 14.98902,40.70883 1.523,8.02298 1.71045,9.96345 1.96358,20.33093 0.40808,16.71052 -0.51105,23.02002 -5.68519,39.02664 -3.60673,11.15768 -7.898,21.13218 -17.27181,40.14608 -9.52061,19.31156 -11.38356,23.62773 -13.49921,31.27531 -1.21706,4.3994 -1.40466,5.7932 -1.17788,8.75164 0.80582,10.51288 4.27044,15.43453 16.65907,23.66492 6.75419,4.48711 17.48361,10.14414 26.49107,13.96721 3.35511,1.42401 15.87272,6.23616 27.81691,10.69363 34.83488,13.00009 66.05875,25.78407 80.68747,33.03582 15.77253,7.81876 25.03903,13.69911 44.76586,28.40751 6.59427,4.91672 17.02561,12.38171 23.18076,16.58887 12.92638,8.8354 26.5451,19.32909 32.2035,24.81391 4.90158,4.7512 10.61767,11.39516 15.40994,17.91139 2.0238,2.75182 16.14488,24.65272 31.38016,48.66866 15.23528,24.01593 29.69041,46.60233 32.12258,50.19198 2.43218,3.5897 9.27738,12.49333 15.21166,19.78586 26.43158,32.4816 31.53452,41.92466 31.49899,58.28906 -0.0161,7.3215 -1.13619,11.8696 -4.34797,17.6515 -5.96537,10.7392 -20.51171,25.2474 -33.1095,33.0226 -16.70792,10.3119 -28.34871,15.7136 -68.91685,31.9793 -18.71185,7.5024 -51.63498,18.7086 -104.19143,35.4639 -31.47547,10.0344 -40.83816,13.7787 -52.93559,21.1695 -7.04433,4.3036 -10.49685,6.7403 -25.63501,18.0929 -22.97584,17.2302 -30.91347,22.2291 -43.18942,27.1998 -17.85221,7.2284 -31.58488,9.2962 -64.41812,9.7 -18.66314,0.2296 -20.45816,0.1787 -32.20905,-0.9126 -16.84895,-1.5647 -34.44076,-4.7682 -74.91047,-13.6412 -37.28945,-8.1758 -53.77908,-11.0808 -80.03463,-14.0999 -12.46374,-1.4332 -17.57102,-1.7444 -27.81692,-1.6949 -20.51824,0.099 -33.83747,2.1358 -49.63191,7.5893 -11.45027,3.9536 -17.91707,7.7372 -37.23494,21.7858 -5.905,4.2943 -17.32457,12.4114 -25.37684,18.038 -27.52913,19.2362 -37.68904,24.861 -55.37386,30.656 -9.60547,3.1476 -13.7194,3.9044 -22.22069,4.0873 -4.80271,0.1034 -9.59279,-0.062 -12.44441,-0.4299 z m 432.13821,-96.4483 c -6.22132,-0.9918 -15.87277,-4.0529 -25.75675,-8.1691 -1.55096,-0.6459 -10.46453,-5.0457 -19.80784,-9.7772 -36.9477,-18.7107 -47.60567,-22.7691 -71.07124,-27.0638 -21.36715,-3.9106 -30.99341,-5.0713 -77.59455,-9.3559 -28.78348,-2.6463 -34.5249,-3.3338 -47.58157,-5.6969 -12.73258,-2.3043 -22.82632,-6.3775 -29.05018,-11.7226 -8.72656,-7.4944 -12.44231,-14.6799 -14.55625,-28.1485 -1.47859,-9.4208 -1.00073,-20.8093 1.6859,-40.1772 3.28347,-23.6707 5.89465,-34.18889 11.56588,-46.58921 6.68841,-14.6242 10.76578,-21.21858 24.20736,-39.15043 16.4558,-21.95302 30.89131,-38.6274 44.6275,-51.54884 10.73899,-10.10206 15.66712,-14.0152 37.40629,-29.70207 36.66825,-26.4596 48.62065,-33.33284 71.84572,-41.31478 13.16018,-4.52287 16.61929,-5.50374 39.94406,-11.32683 26.7449,-6.67693 36.34622,-7.96892 66.33608,-8.92661 47.16475,-1.50609 65.39727,0.31017 114.19577,11.376 25.81117,5.85307 49.33876,13.68977 63.33657,21.09646 30.71408,16.25187 53.92022,33.77919 71.02567,53.64496 7.71792,8.96331 10.55002,13.16223 24.01361,35.60312 7.03709,11.72928 17.88461,29.1039 24.1056,38.61021 12.9822,19.83817 16.56068,25.91456 19.32714,32.81828 4.07074,10.15864 5.65079,24.87764 3.39972,31.67034 -1.36869,4.13 -4.00744,9.3809 -6.03842,12.0157 -2.11623,2.7454 -10.50103,10.0273 -15.43185,13.4019 -5.09171,3.4849 -31.90629,17.7036 -46.84954,24.8425 -26.60161,12.7084 -49.95733,19.8457 -114.92778,35.1209 -35.29299,8.2977 -46.08449,11.1377 -58.31793,15.3477 -21.57968,7.4266 -28.98738,11.7776 -45.26359,26.5866 -4.89851,4.457 -10.27889,9.0494 -11.95639,10.2054 -3.53368,2.4352 -9.20242,5.0108 -13.05434,5.9311 -3.89422,0.9306 -15.02069,1.155 -19.76465,0.3988 z m 19.27664,-2.2242 c 3.8157,-0.907 8.53428,-3.0476 12.0783,-5.4794 1.6775,-1.151 7.05788,-5.7393 11.95639,-10.1963 13.03647,-11.8613 19.47267,-16.2618 31.11112,-21.271 16.23605,-6.9879 29.19742,-10.7147 73.44643,-21.1181 64.64149,-15.1978 88.40738,-22.4446 114.43977,-34.8956 14.58807,-6.9773 41.36273,-21.1916 46.36152,-24.6129 4.88656,-3.3444 13.30898,-10.6479 15.38495,-13.3411 1.9773,-2.5652 4.25067,-7.1033 5.60365,-11.186 2.17972,-6.5775 0.62461,-20.6838 -3.3823,-30.68124 -2.70824,-6.75707 -5.83667,-12.05876 -18.8643,-31.96884 -6.22021,-9.50631 -17.0671,-26.88093 -24.10419,-38.61021 -13.46358,-22.44089 -16.29569,-26.63981 -24.01361,-35.60312 -17.05724,-19.80973 -40.32726,-37.40141 -70.80967,-53.53066 -16.96207,-8.97518 -42.51283,-16.73943 -83.31724,-25.31802 -15.17637,-3.19067 -35.55733,-6.05557 -48.8016,-6.85996 -10.97358,-0.66654 -45.24631,-0.25326 -59.78197,0.72083 -22.61349,1.51542 -31.36889,3.17925 -70.65496,13.42687 -9.42003,2.45722 -31.40706,10.09974 -36.95258,12.84448 -15.19843,7.52239 -26.73488,14.89856 -53.43776,34.16726 -21.73916,15.68686 -26.66729,19.6 -37.40628,29.70207 -13.73619,12.92144 -28.1717,29.59582 -44.62751,51.54885 -13.39589,17.8709 -17.42773,24.39809 -24.04381,38.92473 -5.32729,11.6968 -8.00454,22.61936 -11.2519,45.90526 -3.319,23.7995 -3.23286,37.3678 0.3075,48.4402 2.5878,8.0934 5.43953,12.3586 12.07059,18.0534 6.08634,5.227 15.47523,8.9976 28.08889,11.2805 13.05667,2.3631 18.79808,3.0504 47.58156,5.6969 46.60114,4.2845 56.22741,5.4452 77.59455,9.3558 23.48646,4.2985 34.42207,8.4723 71.93567,27.4561 9.28577,4.6991 18.42051,9.1684 20.29937,9.9321 9.96441,4.0495 18.27254,6.6448 24.4008,7.6222 4.68705,0.7475 14.86263,0.5281 18.78862,-0.4051 z m 30.01299,-93.2922 c -13.43167,-1.058 -33.40973,-3.638 -43.67744,-5.6405 -15.58479,-3.0396 -19.88236,-4.2395 -31.85769,-8.8955 -22.1386,-8.6074 -48.29148,-26.8171 -59.50341,-41.4309 -6.2814,-8.1873 -13.32762,-20.82047 -16.22184,-29.084 -4.47775,-12.78484 -3.98524,-26.1452 1.44277,-39.13869 2.999,-7.17899 4.80769,-10.76355 7.67078,-15.20213 13.36871,-20.72548 24.21116,-30.99097 46.73969,-44.25259 8.72006,-5.13318 12.90295,-7.04445 24.71328,-11.29218 13.66689,-4.91553 29.79201,-9.08034 54.58933,-14.09944 22.31512,-4.51673 41.31578,-5.85471 64.41812,-4.53628 21.44348,1.22376 37.89182,3.92483 57.3419,9.41638 23.39173,6.60438 40.51782,14.69998 64.66212,30.56605 13.78748,9.06024 27.64309,23.28623 35.70555,36.66005 8.95422,14.85314 13.04511,24.08494 15.62042,35.25067 1.35703,5.88353 1.21521,20.01992 -0.25958,25.87156 -2.72196,10.8003 -9.56677,22.9036 -18.20129,32.1846 -12.69085,13.6411 -28.38428,23.2507 -50.43367,30.8826 -5.35149,1.8522 -19.93317,5.315 -27.57291,6.5478 -12.22476,1.9728 -30.74087,4.1495 -44.89748,5.2781 -13.4022,1.0684 -17.75194,1.2036 -43.67745,1.358 -21.3954,0.1274 -30.79908,0.014 -36.6012,-0.4436 z m 79.79064,-2.735 c 38.11117,-3.0353 63.12917,-7.7035 81.30996,-15.172 17.60498,-7.2318 29.57934,-15.2152 40.61806,-27.0805 8.57386,-9.2157 15.0308,-20.6177 17.71099,-31.2749 1.46809,-5.83758 1.60752,-19.12758 0.26186,-24.96181 -2.55676,-11.08527 -6.45723,-19.93565 -15.13445,-34.34098 -8.04777,-13.36041 -21.91255,-27.5969 -35.7035,-36.66077 -23.96505,-15.75063 -40.47834,-23.55804 -63.68609,-30.11048 -22.77942,-6.43154 -42.31159,-9.21003 -68.32226,-9.71886 -19.45569,-0.38062 -30.76507,0.62032 -50.26566,4.44863 -25.02731,4.91335 -42.69462,9.42162 -56.79189,14.49189 -11.80716,4.2466 -15.06061,5.73213 -23.73075,10.83537 -22.51038,13.24961 -33.41759,23.5736 -46.71036,44.21256 -6.65078,10.32632 -11.14322,23.1616 -11.70112,33.43128 -0.2848,5.24221 0.98829,13.25393 3.03444,19.09608 2.86358,8.17615 9.5045,20.07319 15.74564,28.20799 11.12042,14.4946 36.96907,32.5703 58.66402,41.023 16.82377,6.5549 28.85273,9.1551 59.78197,12.9228 16.16895,1.9698 21.8738,2.1913 51.7297,2.009 25.37161,-0.1549 29.84745,-0.2956 43.18944,-1.3583 z m -58.80595,-46.4141 c -51.23486,-3.7561 -58.65168,-5.2401 -73.93444,-14.7932 -6.88141,-4.3014 -11.56007,-9.9696 -15.07657,-18.26503 -1.84192,-4.34511 -2.30173,-8.24988 -1.55155,-13.17542 1.32262,-8.68358 3.55071,-13.76223 9.94611,-22.67082 6.39408,-8.90677 19.07279,-19.9213 30.43444,-26.43972 7.09131,-4.06838 18.34042,-8.58297 27.00124,-10.83633 22.06936,-5.7419 50.13833,-5.93179 70.61275,-0.47763 15.43343,4.11132 31.33314,11.44105 42.12556,19.41984 6.25291,4.62275 17.2381,14.8353 21.18869,19.69839 3.7098,4.56666 7.91576,10.83546 9.30783,13.87284 1.75393,3.8269 3.17074,11.05843 3.15287,16.0924 -0.02,5.62664 -0.6922,8.8934 -2.86592,13.92748 -2.09769,4.8579 -3.96723,7.5276 -8.07866,11.536 -6.25627,6.0994 -13.49614,9.7516 -23.68743,11.9491 -10.66246,2.2991 -15.84241,2.666 -36.84521,2.61 -18.24103,-0.049 -20.39259,-0.1505 -51.72971,-2.4479 z m 76.13052,0.01 c 12.11109,-1.3912 21.81099,-4.1752 27.98679,-8.0326 1.24864,-0.7799 3.77192,-2.7716 5.60735,-4.4259 10.03703,-9.0469 13.65562,-20.97713 10.37927,-34.21969 -1.36956,-5.53558 -1.95592,-6.89394 -5.02378,-11.63813 -5.54996,-8.58261 -16.65731,-19.92754 -26.98665,-27.56402 -13.30557,-9.83675 -33.53847,-18.18716 -51.39787,-21.21257 -21.09859,-3.57415 -49.57379,-1.32775 -68.17267,5.37807 -10.07621,3.633 -17.37064,7.39413 -25.7812,13.29331 -11.31275,7.93481 -19.97026,17.04668 -26.5327,27.92517 -3.34575,5.54618 -5.71619,15.34582 -5.04648,20.86285 0.36064,2.97106 2.45052,8.26198 4.78475,12.11361 4.42406,7.2998 15.05803,14.907 25.38723,18.1612 11.07118,3.488 20.691,4.713 59.15345,7.5327 31.11503,2.2811 33.59434,2.3996 51.2417,2.4479 13.68949,0.037 20.07781,-0.1253 24.40081,-0.6219 z m -1378.52332,-14.9426 c -19.2612,-1.3573 -19.8867,-1.4308 -19.8867,-2.3375 0,-0.8024 0.2614,-0.9169 1.8301,-0.8016 32.0831,2.3582 42.0858,2.8455 58.1616,2.8332 19.9424,-0.015 29.0546,-0.6226 46.6398,-3.1084 12.4291,-1.7571 18.1746,-3.0104 34.4052,-7.5057 3.0867,-0.8548 13.8135,-4.44503 23.8374,-7.9782 15.6449,-5.51433 21.7599,-7.97647 43.1895,-17.38972 13.7302,-6.03118 33.0895,-14.29812 43.0207,-18.37101 9.9311,-4.07283 25.3036,-10.71756 34.1611,-14.76602 32.8907,-15.0332 39.0995,-16.57559 88.8189,-22.06427 47.3682,-5.22916 50.791,-5.73572 102.9714,-15.23884 19.4955,-3.55054 36.6741,-6.37569 49.7776,-8.18629 32.3728,-4.47321 52.4332,-7.89006 77.3506,-13.17493 13.5939,-2.88324 22.0064,-4.96839 48.0696,-11.91464 43.2035,-11.5145 66.6387,-15.46362 112.9757,-19.03785 35.0409,-2.70294 43.44165,-3.68886 61.48999,-7.21657 18.62929,-3.64123 17.15167,-3.29473 27.1621,-6.3695 20.55904,-6.31491 33.17528,-13.63004 40.24717,-23.33607 2.57112,-3.52879 6.19122,-10.64434 7.09727,-13.95012 0.44453,-1.6218 0.79986,-6.07812 0.96622,-12.11704 0.21663,-7.86526 0.0825,-11.06935 -0.7596,-18.14663 -1.79145,-15.05494 -1.23165,-21.83428 2.33248,-28.24642 3.52752,-6.34636 8.95558,-9.97472 21.20898,-14.17705 7.22405,-2.4775 3.88812,-1.89116 42.13335,-7.40563 21.24827,-3.06373 41.17309,-5.60849 60.67465,-7.74926 51.22651,-5.62335 63.46244,-8.36962 92.23503,-20.70158 5.95292,-2.55142 26.66051,-13.59837 37.26745,-19.88117 23.30008,-13.80135 34.21012,-27.1387 43.82691,-53.57771 4.65748,-12.80451 6.95369,-27.67861 7.54683,-48.88511 0.43306,-15.48328 -0.48685,-22.12468 -5.24769,-37.88768 -2.71561,-8.99129 -9.7103,-23.6265 -15.91845,-33.30688 -11.70125,-18.24575 -28.95653,-34.90217 -65.76699,-63.48456 -22.65961,-17.59462 -25.31071,-19.25191 -56.12185,-35.08426 -22.93983,-11.78765 -26.70809,-13.63504 -33.78037,-16.56072 -13.34529,-5.52074 -26.83352,-9.76867 -49.67037,-15.64298 -12.90178,-3.31871 -18.97402,-4.59738 -43.18942,-9.09476 -20.26936,-3.76451 -26.63465,-5.15966 -35.62517,-7.80842 -8.00791,-2.35925 -22.71208,-8.42291 -29.13446,-12.01442 -5.59267,-3.12749 -53.44313,-31.32806 -54.04788,-31.853 -0.27534,-0.23898 0.22839,-0.40241 1.24039,-0.40241 1.39568,0 5.8865,2.4716 24.82006,13.65998 30.49295,18.01927 32.14693,18.92847 42.05044,23.11574 13.92646,5.88823 22.61578,8.17721 51.18463,13.48313 24.21541,4.4974 30.28765,5.77606 43.18942,9.09476 22.88293,5.88617 36.29625,10.11269 49.77764,15.68491 7.20487,2.97797 11.77549,5.21682 34.64914,16.97244 30.82256,15.84084 33.4637,17.492 56.12185,35.08548 36.80534,28.57843 54.04172,45.21568 65.77065,63.48455 6.35085,9.89199 13.66304,25.14541 16.40281,34.21657 4.81408,15.93933 5.68114,22.32488 5.23563,38.55899 -0.72939,26.57784 -3.6242,41.24827 -11.75748,59.58499 -4.38273,9.88101 -8.01181,15.8615 -14.07643,23.19721 -5.87611,7.1077 -14.47793,13.99445 -26.0158,20.82869 -10.8973,6.45481 -31.56322,17.46445 -37.84315,20.16069 -29.13593,12.50934 -41.2213,15.23299 -92.63536,20.87692 -19.50156,2.14077 -39.42637,4.68553 -60.67464,7.74926 -38.24928,5.51505 -34.90745,4.9275 -42.14677,7.41023 -11.39494,3.90791 -16.71104,7.43867 -19.97597,13.26729 -3.28957,5.8726 -3.80213,12.46842 -2.0887,26.87735 0.84729,7.12549 0.97764,10.30551 0.76233,18.60147 -0.29955,11.54193 -0.62642,13.12498 -4.11652,19.93455 -4.6972,9.16485 -9.09608,13.99833 -17.46956,19.1956 -7.15553,4.4413 -16.91312,8.62844 -28.15208,12.0806 -10.05264,3.08774 -8.56859,2.73959 -27.2007,6.38137 -18.04835,3.5277 -26.44911,4.51364 -61.49001,7.21656 -46.3369,3.57424 -69.7722,7.52336 -112.9757,19.03787 -26.0632,6.94623 -34.4757,9.0314 -48.0696,11.91463 -24.9174,5.28487 -44.9778,8.70173 -77.3506,13.17492 -13.1035,1.81061 -30.282,4.63576 -49.7776,8.18629 -52.1804,9.50313 -55.6032,10.0097 -102.9714,15.23884 -49.7193,5.48869 -55.9282,7.03107 -88.8189,22.06428 -8.8575,4.04846 -24.23,10.69319 -34.1611,14.76603 -9.9311,4.07288 -29.2904,12.33982 -43.0207,18.371 -21.4296,9.41325 -27.5446,11.87538 -43.1894,17.38972 -10.0239,3.53316 -20.7508,7.12341 -23.8375,7.97821 -16.2306,4.4952 -21.9761,5.7486 -34.4052,7.5057 -18.3049,2.5876 -26.5377,3.104 -48.5576,3.0459 -16.0078,-0.042 -21.7319,-0.257 -38.6752,-1.451 z m -19.8867,-40.2903 c 0,-0.58443 0.4017,-1.00576 1.0981,-1.15149 1.5902,-0.33295 12.053,-1.37159 29.8909,-2.96733 28.0167,-2.50631 47.4899,-5.51635 66.3702,-10.25899 15.3526,-3.85652 26.2365,-7.83302 49.8711,-18.22078 7.7325,-3.39852 20.3224,-8.80179 27.9776,-12.00728 7.6552,-3.20545 23.3571,-10.06999 34.8931,-15.25453 16.042,-7.2096 24.6471,-10.76119 36.5911,-15.10221 26.9911,-9.80991 36.4848,-12.53835 79.5466,-22.86148 51.8095,-12.42011 64.0997,-16.1036 97.6032,-29.25264 17.7081,-6.94984 64.0082,-23.72337 87.5547,-31.71918 19.5399,-6.63526 37.9624,-11.22168 73.0026,-18.17447 36.3328,-7.20924 45.1256,-9.39746 61.4167,-15.28432 21.8134,-7.88237 35.9567,-15.55627 45.0544,-24.44573 7.3695,-7.20079 9.4233,-11.72872 9.4299,-20.78895 0,-3.21667 -0.2943,-4.75043 -1.7011,-8.79585 -0.9372,-2.69489 -2.2182,-5.85402 -2.8467,-7.0203 -1.3474,-2.50018 -7.247,-10.90166 -15.2231,-21.67892 -7.672,-10.36643 -10.9506,-16.93521 -10.9655,-21.97031 -0.01,-2.62735 1.3234,-7.94995 2.7341,-10.93239 3.9567,-8.36471 19.5108,-19.85606 33.9993,-25.11865 6.2904,-2.2848 14.1978,-4.34488 21.0907,-5.49458 11.6217,-1.93844 44.5441,-1.5576 66.1262,0.76494 6.0074,0.64648 18.77813,2.63732 31.96505,4.98305 33.80102,6.01263 64.7899,10.15817 102.23937,13.67707 l 17.81258,1.67376 18.78862,-0.28316 c 43.59877,-0.65702 63.04226,-2.51363 84.61037,-8.07921 12.08743,-3.11912 28.26296,-10.26095 38.17252,-16.85397 5.05814,-3.36527 15.08784,-12.95465 17.193,-16.43818 4.5547,-7.53694 5.70544,-13.59255 5.67572,-29.86761 -0.0224,-12.29269 -0.53706,-16.19956 -3.26521,-24.78918 -2.19188,-6.90111 -7.81773,-16.86703 -13.22339,-23.42463 -4.31264,-5.2316 -16.36342,-16.21862 -28.38769,-25.88173 -27.63743,-22.21039 -41.34926,-31.10053 -67.59023,-43.82261 -13.06575,-6.3345 -34.37922,-13.9068 -48.31359,-17.16494 -21.03315,-4.91801 -23.30642,-5.27655 -75.15447,-11.8535 -23.75418,-3.01323 -45.6051,-5.89101 -48.5576,-6.39507 -10.18021,-1.73804 -23.87795,-6.20049 -32.14825,-10.47323 -10.3318,-5.33784 -19.366,-11.64724 -67.651,-47.24717 -27.0286,-19.92782 -28.7583,-21.13748 -35.8692,-25.08575 -18.282,-10.15086 -62.9371,-31.20083 -77.589,-36.57463 l -4.8747,-1.78786 2.3696,-0.14082 c 2.8527,-0.16948 4.5836,0.44334 18.3601,6.50022 20.5668,9.04232 50.0157,23.3192 63.198,30.63856 7.111,3.94825 8.8406,5.15792 35.8692,25.08573 47.7276,35.18896 57.2588,41.85703 67.2425,47.04355 7.8197,4.06228 21.56966,8.51285 31.58077,10.222 2.9525,0.50407 24.80342,3.38186 48.5576,6.39508 51.84804,6.57694 54.12132,6.93549 75.15447,11.85349 25.73104,6.01647 58.85801,20.41329 81.9867,35.63103 22.77546,14.98534 54.14533,40.61089 63.28084,51.69311 5.50068,6.6729 11.46472,17.25732 13.71174,24.33433 2.75905,8.68981 3.24555,12.44986 3.26644,25.24402 0.0278,16.98559 -1.08408,22.74821 -5.9559,30.87269 -2.30421,3.84258 -12.00636,13.20756 -17.4024,16.79764 -10.07832,6.70531 -26.93273,14.15725 -39.14855,17.30903 -21.65767,5.58785 -41.15884,7.43963 -85.09839,8.08074 l -19.27663,0.28126 -17.81259,-1.67367 c -37.44752,-3.51857 -68.43771,-7.66426 -102.23936,-13.677 -13.18693,-2.34573 -25.95764,-4.33658 -31.96504,-4.98305 -21.5394,-2.31794 -53.5457,-2.6925 -65.1502,-0.76241 -10.7459,1.78731 -22.3795,5.40132 -29.5249,9.172 -10.9444,5.77542 -21.7372,14.81664 -24.2321,20.29935 -1.2296,2.70213 -2.5918,7.91805 -2.5947,9.93514 -0.01,4.82633 2.9831,10.80044 10.4716,20.92297 8.4746,11.45558 13.9278,19.24378 15.4514,22.06733 0.7446,1.37989 2.131,4.74371 3.0809,7.47515 1.4873,4.27708 1.7266,5.57003 1.7242,9.31714 -0.01,9.65391 -2.2531,14.67322 -9.918,22.15704 -6.7301,6.57109 -13.7171,10.96761 -27.9755,17.60342 -4.0674,1.89294 -12.1929,5.17534 -18.0566,7.29425 -16.2892,5.88617 -25.083,8.07458 -61.415,15.28369 -35.0401,6.95279 -53.4627,11.53919 -73.0026,18.17446 -23.5464,7.9958 -69.8465,24.76935 -87.5546,31.71918 -33.5036,13.14905 -45.7938,16.83254 -97.6032,29.25264 -43.0619,10.32312 -52.5556,13.05157 -79.5467,22.86149 -11.944,4.34102 -20.549,7.8926 -36.5911,15.1022 -11.536,5.18453 -27.2379,12.04909 -34.8931,15.25453 -7.6552,3.20549 -20.2451,8.60876 -27.9776,12.00729 -23.6346,10.38775 -34.5185,14.36426 -49.8711,18.22077 -19.3858,4.86964 -38.1906,7.73381 -68.8102,10.48059 -17.2838,1.55044 -23.9891,2.22356 -27.4509,2.75569 -1.3536,0.20805 -1.5861,0.10871 -1.5861,-0.67786 z m 1913.2669,-8.05984 c -3.48931,-3.88058 -13.261834,-13.56923 -21.716663,-21.53034 -16.97964,-15.98801 -33.221449,-29.5184 -64.659931,-53.86574 -30.707044,-23.78087 -34.847226,-27.53714 -46.682737,-42.35383 -6.610422,-8.27549 -8.867886,-11.87697 -16.526469,-26.36595 -6.940759,-13.13103 -13.742629,-27.9913 -31.85354,-69.59162 -14.588751,-33.50992 -28.17727,-61.89298 -33.54427,-70.06567 -1.13405,-1.72688 -7.23406,-11.33266 -13.55553,-21.34615 -30.8778,-48.91163 -35.60218,-57.56488 -42.47145,-77.79137 -14.07057,-41.43037 -22.07965,-66.71024 -28.46046,-89.83233 -3.76246,-13.63405 -12.43709,-43.82453 -19.27697,-67.08996 -11.40513,-38.79391 -13.28146,-44.69529 -22.63258,-71.18359 -5.60803,-15.88554 -11.19967,-32.05536 -12.42591,-35.93292 -1.22619,-3.87758 -2.35341,-7.42507 -2.50489,-7.88333 -0.21892,-0.6623 -0.0483,-0.80222 0.83114,-0.68227 0.98159,0.13386 1.3744,0.9982 3.47936,7.6559 1.3051,4.12774 6.96199,20.50224 12.57085,36.38778 9.35625,26.49878 11.22447,32.37431 22.63409,71.18358 6.83989,23.26543 15.51452,53.45592 19.27698,67.08997 6.38081,23.12208 14.38988,48.40196 28.46046,89.83233 6.79518,20.00829 10.56081,26.95271 39.77638,73.35364 6.81573,10.82491 13.62321,21.57068 15.12772,23.87947 6.25514,9.59902 19.337926,36.75931 34.667145,71.97007 17.958893,41.25114 24.898286,56.42839 31.610947,69.13678 7.406961,14.0229 9.700685,17.67332 16.281045,25.91109 11.835512,14.81671 15.9756934,18.57297 46.682737,42.35384 30.368556,23.5187 47.761936,37.97001 63.805903,53.01322 17.734263,16.62808 27.694863,27.19727 27.694863,29.387 0,0.81467 -0.0549,1.46656 -0.122,1.44864 -0.0671,-0.0177 -2.9769,-3.20763 -6.46622,-7.08824 z m -1913.2669,-31.01131 c 0,-0.70511 3.201,-1.73397 20.6187,-6.62749 11.3403,-3.18603 29.8422,-8.52952 41.1153,-11.87442 11.2732,-3.34486 33.4535,-9.7739 49.2897,-14.28667 27.0852,-7.71839 29.9362,-8.63367 48.0695,-15.43165 33.9721,-12.73572 35.2132,-13.26016 58.4659,-24.70434 21.8089,-10.73358 62.0526,-28.87647 98.7657,-44.52614 20.4117,-8.70086 32.0399,-14.2469 44.3191,-21.13784 17.3459,-9.73436 17.5892,-9.8952 40.2613,-26.60852 14.1318,-10.41762 16.2485,-11.84456 37.0892,-25.0025 15.2615,-9.63549 18.3196,-11.85625 26.2653,-19.07315 9.2861,-8.43437 12.4794,-13.12815 25.702,-37.77932 12.785,-23.83531 16.0447,-30.69864 21.4966,-45.26232 6.8777,-18.37227 7.1639,-19.06841 10.0477,-24.43806 4.4048,-8.20176 8.8328,-14.40847 15.0149,-21.04667 1.6309,-1.75116 12.193,-11.88585 23.4715,-22.52154 15.7058,-14.81082 23.0217,-22.10443 31.2524,-31.15703 15.8107,-17.38977 20.2502,-23.39979 23.6209,-31.97729 2.5391,-6.46141 3.1811,-10.85095 2.7996,-19.14206 -0.7661,-16.64647 -5.3095,-32.11862 -12.9023,-43.93713 -11.8786,-18.48943 -23.251,-30.59624 -37.2365,-39.64121 -13.521,-8.74461 -15.5978,-9.80559 -28.7568,-14.69157 -8.7323,-3.24236 -16.5129,-5.40025 -42.7014,-11.84293 -25.8371,-6.35622 -37.1148,-9.56134 -51.2417,-14.56276 -22.8256,-8.08104 -37.3767,-15.17433 -54.3923,-26.5149 -6.8618,-4.57327 -43.0452,-29.4893 -44.1625,-30.4105 -0.2621,-0.21605 0.2684,-0.38184 1.22,-0.38134 1.4369,0 4.0447,1.64145 17.7882,11.19069 41.7148,28.98433 50.4685,33.82922 80.0346,44.29667 14.1269,5.00142 25.4047,8.20652 51.2417,14.56276 26.1613,6.43597 33.9599,8.59812 42.7014,11.83882 13.4379,4.98171 16.1336,6.35533 29.7329,15.15052 14.1292,9.13792 25.6632,21.4704 37.4998,40.09605 7.9434,12.49936 12.4068,27.74533 13.1306,44.85139 0.3738,8.83499 -0.2394,13.06738 -2.8594,19.73692 -3.517,8.95281 -8.1187,15.217 -24.0528,32.74241 -8.2306,9.0526 -15.5465,16.34621 -31.2524,31.15704 -11.2784,10.63568 -21.8406,20.77037 -23.4714,22.52153 -6.0626,6.50975 -10.6141,12.85475 -14.769,20.5887 -2.6299,4.89521 -2.973,5.73451 -9.8056,23.98633 -5.473,14.61991 -8.6981,21.4019 -21.7405,45.7169 -13.4837,25.13788 -16.6272,29.77025 -25.9461,38.23444 -7.9457,7.2169 -11.0039,9.43767 -26.2653,19.07315 -20.8407,13.15794 -22.9575,14.58489 -37.0893,25.0025 -22.672,16.71332 -22.9154,16.87415 -40.2613,26.60852 -12.4482,6.98582 -23.9977,12.49189 -45.1415,21.5206 -38.0085,16.23031 -76.3675,33.52839 -98.3352,44.34451 -23.2672,11.45602 -24.4483,11.95631 -57.7963,24.48052 -19.5804,7.3537 -21.7063,8.03947 -49.2896,15.89969 -15.8546,4.518 -38.0501,10.95095 -49.3232,14.29548 -20.9136,6.20458 -60.7616,17.5179 -61.7019,17.5179 -0.2861,0 -0.5202,-0.37561 -0.5202,-0.83469 z M 105.46108,896.00581 C 101.56915,893.6553 89.600557,886.69245 78.864252,880.53277 50.504419,864.26216 40.373792,857.51731 22.742406,843.16766 5.6878556,829.28745 -5.2540499,816.81149 -12.152742,803.38026 c -5.127439,-9.98276 -12.589936,-29.16298 -24.098184,-61.93723 -11.851909,-33.75308 -11.604827,-33.10527 -17.262202,-45.2573 -7.59841,-16.32135 -9.947231,-19.9792 -31.025084,-48.31537 -22.552148,-30.31814 -27.083228,-36.72828 -33.847968,-47.88483 -11.87914,-19.59124 -12.38882,-20.64818 -22.55244,-46.76429 -9.82366,-25.24263 -15.49173,-42.89627 -24.2279,-75.45975 -8.0874,-30.14546 -32.38357,-107.74288 -45.18618,-144.31643 -4.02828,-11.50763 -7.62413,-21.79286 -7.99088,-22.85607 -0.65218,-1.89089 -0.64242,-1.93311 0.44644,-1.93311 0.89078,0 1.23224,0.38617 1.70913,1.93311 0.32775,1.06321 3.86192,11.2461 7.85369,22.62865 12.65275,36.07921 37.01665,113.88462 45.11987,144.089 8.73617,32.56348 14.40423,50.21712 24.2279,75.45975 7.15197,18.37752 11.05288,27.41818 13.99586,32.43661 12.60087,21.48705 16.02952,26.50142 41.916527,61.30281 21.106303,28.37446 23.710016,32.44108 31.516808,49.22507 5.656936,12.16198 5.412196,11.52016 17.258493,45.2573 11.298352,32.17653 18.940049,51.87037 23.85686,61.4827 3.7120451,7.25709 10.18577328,16.08563 17.1192614,23.34631 5.8407716,6.11642 9.5072846,9.45905 17.5291946,15.9807 17.791065,14.46382 27.198404,20.73917 55.09633,36.75315 19.960198,11.45761 31.731296,18.38857 32.910626,19.37809 0.3587,0.30098 0.5783,0.95291 0.48802,1.44879 -0.1425,0.78288 -1.09564,0.33899 -7.24035,-3.37211 z M -1807.07,878.9046 c 0,-0.89687 0.927,-1.30104 8.4182,-3.68368 10.4444,-3.32187 23.2078,-8.11446 35.0114,-13.14662 22.742,-9.69535 66.6706,-29.60496 81.4987,-36.93747 64.1475,-31.72068 72.9738,-36.6606 97.1145,-54.35325 11.6465,-8.53564 39.8272,-27.46426 54.1705,-36.3856 9.2729,-5.76765 18.8178,-14.05105 37.7422,-32.75409 14.6868,-14.515 18.2097,-18.17313 28.6913,-29.79249 10.6641,-11.82163 14.2764,-16.30969 20.5016,-25.47145 8.779,-12.9204 10.3631,-15.70541 24.8373,-43.66533 15.7568,-30.43749 18.7487,-36.88672 22.156,-47.75897 3.4756,-11.09006 3.9299,-15.45404 3.9305,-37.75232 0,-21.1693 -0.4494,-26.09709 -3.2008,-35.05432 -5.3973,-17.57046 -11.2588,-25.15725 -45.6599,-59.09906 -28.7197,-28.33615 -32.4503,-31.45444 -60.6008,-50.65351 -14.0026,-9.54996 -26.7336,-17.53785 -34.7416,-21.79822 -7.8378,-4.16982 -24.3606,-10.56237 -32.9411,-12.74469 -17.9429,-4.56348 -22.5296,-5.25176 -34.8931,-5.23616 -20.9252,0.0264 -46.2527,3.99583 -59.0958,9.26169 -10.2236,4.19188 -13.6713,6.03547 -41.9236,22.41789 -22.6116,13.11157 -27.9951,16.62682 -47.8649,31.25352 -14.0531,10.34496 -47.9846,33.93506 -52.5444,36.53034 -0.4233,0.24094 -0.61,0.007 -0.61,-0.76606 0,-0.93974 2.5913,-2.86217 16.6257,-12.33432 9.1442,-6.17158 24.9011,-17.31271 35.0152,-24.75807 19.9197,-14.6635 25.2959,-18.17438 47.9144,-31.28996 28.248,-16.37996 32.1899,-18.48154 42.9073,-22.87591 12.9833,-5.32335 38.5109,-9.28102 59.8201,-9.2742 12.7301,0.005 18.293,0.86221 36.6012,5.64611 8.0713,2.10904 24.6587,8.64305 32.3428,12.74032 8.1528,4.34725 20.8249,12.29666 34.8518,21.86317 28.1505,19.19908 31.8812,22.31737 60.6008,50.65352 34.5129,34.05207 40.6102,41.98064 46.1479,60.00874 2.7669,9.00742 3.2031,13.84402 3.2024,35.50918 -5e-4,22.79799 -0.4396,27.06336 -3.9321,38.20717 -3.4061,10.86845 -6.3934,17.30835 -22.1537,47.75897 -14.7292,28.45816 -16.5296,31.62666 -25.3276,44.57503 -6.2251,9.16175 -9.8375,13.64981 -20.5016,25.47144 -10.4816,11.61936 -14.0045,15.27748 -28.6913,29.7925 -18.9243,18.70304 -28.4692,26.98644 -37.7422,32.75408 -14.3432,8.92134 -42.524,27.84994 -54.1704,36.38561 -24.1602,17.70688 -33.0531,22.68236 -97.3766,54.48115 -15.0446,7.43738 -59.3682,27.5274 -82.1998,37.25762 -12.3252,5.25272 -22.862,9.21986 -34.296,12.91239 -9.2668,2.99272 -9.6381,3.07386 -9.6345,2.10531 z M 109.85322,852.50808 C 98.808004,846.28122 61.051227,822.38955 54.46345,817.4587 44.035376,809.65347 36.858661,802.23031 31.143651,793.33818 25.75083,784.9473 24.061172,781.49792 15.526698,761.45631 1.4047339,728.29334 -9.2254758,705.73458 -17.909429,690.50014 c -4.593304,-8.05818 -30.993997,-49.40968 -39.058169,-61.17696 -2.828736,-4.12774 -9.684679,-13.44074 -15.235422,-20.69555 -15.50549,-20.26576 -24.729189,-34.08589 -32.17846,-48.21381 -4.50454,-8.54306 -5.67285,-11.2919 -12.75942,-30.01991 -6.04535,-15.97646 -10.51202,-29.40833 -20.41952,-61.40439 -3.7957,-12.25813 -12.25438,-37.84329 -18.79706,-56.85591 -16.49875,-47.9441 -21.45334,-63.49856 -28.79578,-90.40087 -3.47468,-12.73086 -3.5409,-13.07686 -2.50348,-13.07686 0.9794,0 1.25757,0.72676 3.43847,8.98324 6.4139,24.28179 13.50804,46.659 29.81285,94.03965 6.54268,19.01262 15.00137,44.59777 18.79706,56.8559 11.82165,38.1778 19.54592,60.55873 27.55007,79.8257 6.21786,14.96716 18.327295,34.08 37.319318,58.90272 5.550743,7.25482 12.406686,16.56781 15.235422,20.69555 8.127614,11.85987 34.478139,53.14258 39.163483,61.35646 8.8477314,15.51094 19.5915025,38.28259 33.822002,71.68636 8.617094,20.22719 9.851824,22.75492 15.128839,30.97218 5.705737,8.88485 12.874888,16.30195 23.316724,24.1232 6.18126,4.62993 49.783592,32.22246 56.241462,35.59084 0.38533,0.20099 0.62588,0.8083 0.53452,1.34953 -0.16202,0.95954 -0.23312,0.94636 -2.85026,-0.52913 z M -1807.0738,830.4263 c 0,-0.68164 1.7082,-1.4547 8.6623,-3.9201 14.9006,-5.28269 21.6598,-7.96943 27.1319,-10.78503 20.7599,-10.68159 42.1431,-27.17321 55.7341,-42.98465 6.5476,-7.61742 10.7944,-13.82304 18.1604,-26.53712 5.9657,-10.29707 7.2851,-12.94888 14.2909,-28.72184 4.979,-11.2098 8.3674,-17.3828 14.4831,-26.3848 6.7653,-9.95837 17.6445,-18.38734 31.6109,-24.4914 2.9525,-1.29039 13.9465,-5.88751 24.4311,-10.21581 19.387,-8.00339 23.9173,-10.13313 36.0727,-16.95794 22.9662,-12.89479 38.4666,-25.99769 48.9855,-41.4088 8.3934,-12.29709 14.7297,-26.49063 18.5137,-41.47119 1.3044,-5.164 1.3211,-5.43097 1.306,-20.92298 -0.017,-18.09498 -0.7356,-25.95803 -3.4061,-37.29746 -3.9964,-16.96939 -8.8636,-27.43664 -18.8235,-40.48141 -6.5262,-8.5476 -13.6339,-14.57231 -23.7322,-20.11616 -6.3329,-3.47672 -12.0875,-5.57774 -22.3452,-8.1583 l -7.3202,-1.84159 -13.4205,-0.22519 -13.4204,-0.2252 -9.0283,1.46098 c -11.6398,1.88357 -25.4097,4.88235 -35.8692,7.81151 -23.2761,6.51844 -58.9477,20.23188 -76.4636,29.39535 -14.6162,7.64646 -61.5564,37.00764 -70.9172,44.35885 -1.6105,1.26471 -3.3124,2.59816 -3.7822,2.96321 -0.7814,0.60732 -0.8512,0.55143 -0.8212,-0.65759 0.026,-1.04938 0.6538,-1.79812 3.0501,-3.63801 10.5068,-8.06714 56.7911,-36.97359 71.3674,-44.57184 18.0136,-9.39005 53.6584,-23.11054 77.0787,-29.66936 10.4623,-2.92998 24.2327,-5.92863 35.8692,-7.81097 l 9.0283,-1.46042 13.9084,0.22278 13.9085,0.2228 7.3202,1.84344 c 10.4762,2.63818 16.2616,4.76045 22.9368,8.41401 10.467,5.7289 17.5059,11.65881 24.1167,20.31716 10.1526,13.29709 15.2868,24.30145 19.3115,41.3911 2.6926,11.43347 3.3908,19.16916 3.4071,37.75231 0.014,15.98469 0,16.19969 -1.307,21.37783 -3.7961,15.02848 -10.427,29.81813 -19.0007,42.37932 -10.5268,15.42266 -26.0167,28.51348 -49.0246,41.43169 -12.2957,6.90363 -17.2589,9.23773 -36.8131,17.31238 -10.5933,4.37435 -21.4566,8.90739 -24.1407,10.07344 -13.4146,5.82774 -24.4404,14.42149 -31.1229,24.25801 -5.9726,8.79158 -9.2828,14.81231 -13.9284,25.33366 -6.579,14.90032 -8.7302,19.21789 -14.7664,29.63657 -12.793,22.08107 -20.7222,31.43654 -40.4696,47.74942 -12.662,10.4598 -31.1897,21.7179 -43.8335,26.63476 -6.1206,2.38016 -25.9619,9.46363 -26.5082,9.46363 -0.2313,0 -0.4206,-0.38206 -0.4206,-0.84905 z M 106.39763,804.08163 C 82.620317,788.40242 63.751859,771.1078 50.961154,753.26905 40.562898,738.76703 37.348971,733.16279 20.050754,699.36966 12.696303,685.00232 4.1376238,669.58576 -13.281182,639.32982 -29.245749,611.59975 -40.800261,590.85919 -49.522669,574.27553 -59.068654,556.12604 -66.136883,543.51724 -77.295321,524.73252 -104.9873,478.11443 -107.06245,473.60218 -130.33364,409.40454 c -17.24497,-47.5731 -25.2762,-72.97372 -29.37417,-92.90254 l -1.61338,-7.84612 1.05314,0 c 0.97315,0 1.15689,0.52695 2.41831,6.93643 3.69975,18.79856 12.15453,45.58238 29.46987,93.35738 13.09572,36.13263 15.60442,42.73901 21.0721,55.49136 8.123269,18.94597 11.671049,25.58689 31.488258,58.94199 11.188402,18.83167 18.210563,31.35775 27.771725,49.53908 8.74881,16.63667 20.212063,37.21172 36.238315,65.04315 17.6154763,30.59127 25.959819,45.62631 33.574138,60.49469 17.321495,33.82342 20.242223,38.91459 30.660536,53.44455 12.679243,17.68324 32.195981,35.60295 55.109948,50.60031 4.13842,2.70861 5.24617,3.65956 5.24617,4.50348 0,0.58844 -0.0727,1.06985 -0.16149,1.06985 -0.0889,0 -2.88886,-1.79842 -6.2222,-3.99652 z M 104.70275,771.1944 C 92.803162,762.08974 79.12007,749.27344 70.484333,739.14367 64.450064,732.06547 60.755489,726.44399 54.997144,715.57914 46.692575,699.9102 40.477007,685.9939 23.480628,645.01541 13.957629,622.05532 6.9278556,606.97048 -0.57748969,593.39025 -3.2735344,588.51201 -14.227494,569.42365 -24.919584,550.97167 c -10.692139,-18.45198 -23.322531,-40.55756 -28.06756,-49.1235 -4.745029,-8.56595 -12.995087,-23.04531 -18.333397,-32.17638 -12.977908,-22.19842 -20.454607,-36.41821 -28.340019,-53.8994 -16.60694,-36.81593 -26.02453,-61.89823 -34.66827,-92.33397 -1.20779,-4.25282 -2.44647,-8.96049 -2.75265,-10.46149 -0.30614,-1.50099 -0.67181,-3.10401 -0.81255,-3.56227 -0.20292,-0.66053 -0.0234,-0.80189 0.8672,-0.68227 0.99307,0.13345 1.22107,0.60563 1.96817,4.07575 0.46474,2.1587 1.75339,7.07106 2.86363,10.91634 8.93889,30.95972 18.05279,55.1646 34.487559,91.59307 7.90342,17.51824 14.931827,30.89041 27.85132,52.98971 5.338164,9.13105 13.588026,23.61042 18.333055,32.17636 4.745029,8.56595 17.375616,30.67152 28.067999,49.12351 31.4153994,54.21416 34.374143,59.96077 48.887789,94.95344 16.863053,40.65705 23.210873,54.88602 31.281878,70.12022 5.533468,10.44456 9.248734,16.0778 15.233812,23.09833 8.374794,9.82368 22.495685,23.08756 33.878708,31.82254 5.46807,4.19602 6.95423,5.57261 6.95423,6.44165 0,0.6079 -0.0667,1.10522 -0.14831,1.10522 -0.0815,0 -3.65016,-2.67936 -7.93026,-5.95413 z m 1.35947,-31.43801 C 93.67022,728.18602 90.169827,722.44886 79.340019,695.9583 76.578678,689.20382 71.08757,675.89954 67.137617,666.39323 63.187664,656.88692 56.272672,639.59136 51.770919,627.95864 39.197234,595.46737 35.562588,587.28079 24.383702,566.2716 15.079627,548.78593 10.564454,541.17101 -8.3518782,511.06289 -35.611333,467.67539 -46.324163,448.54204 -61.181812,416.70715 c -6.121625,-13.11649 -12.207331,-25.17656 -18.992023,-37.63632 -11.097973,-20.38102 -17.033127,-32.40336 -22.726225,-46.03463 -3.24814,-7.7772 -9.29397,-23.53725 -9.29397,-24.22716 0,-0.11904 0.46444,-0.15102 1.0321,-0.0711 0.86745,0.12217 1.51798,1.45188 4.07655,8.33262 7.606655,20.45644 14.553953,35.26981 28.830668,61.47442 6.785082,12.45387 12.826867,24.42689 18.992169,37.63707 14.800063,31.71149 25.111891,50.12343 52.3747129,93.51631 18.9937311,30.23134 23.4690341,37.78456 33.0029641,55.70122 11.410987,21.44406 14.978579,29.46938 27.607849,62.10421 4.501753,11.63272 11.416745,28.92829 15.366698,38.43459 3.949953,9.50632 9.44272,22.8106 12.206111,29.56507 10.587411,25.8786 13.93852,31.40996 25.659888,42.35422 4.9944,4.66329 5.87825,5.69882 5.74229,6.72803 -0.14914,1.12927 -0.62466,0.78319 -6.63575,-4.82931 z m 3.61034,-84.9985 C 104.07223,636.60132 99.092127,623.40569 93.721999,612.49383 90.761498,606.47828 87.846481,601.55635 66.918351,567.23653 58.528038,553.4774 48.034814,535.77247 43.600066,527.89224 14.801702,476.71988 6.434325,462.34377 -9.598808,436.49065 -33.064718,398.65228 -85.35315,310.62542 -85.35315,308.95927 c 0,-0.16689 0.420182,-0.30339 0.93377,-0.30339 0.711772,0 1.916342,1.75704 5.067169,7.39127 8.551505,15.29151 54.546481,92.1973 71.2174511,119.07896 16.033133,25.85312 24.4005099,40.22923 53.1988739,91.40159 4.434748,7.88023 14.927972,25.58516 23.318286,39.34429 21.459676,35.19153 23.974081,39.43963 27.096066,45.77883 5.141344,10.43948 9.858804,22.6558 14.863944,38.49146 2.08954,6.61108 2.46019,8.33508 2.33896,10.87959 l -0.14406,3.02364 -2.86475,-9.28762 z m -947.54648,-55.90257 c -16.86896,-1.4131 -50.45007,-5.72641 -60.23704,-7.73711 -16.739,-3.43899 -25.07426,-5.83984 -39.2075,-11.29321 -10.32862,-3.98531 -23.41911,-11.82859 -31.66658,-18.97322 -6.74268,-5.84105 -10.58468,-10.40714 -13.38096,-15.90277 -3.92248,-7.70909 -3.74441,-12.51416 0.66028,-17.81448 2.79038,-3.35777 4.28346,-4.6403 7.85311,-6.74573 6.52482,-3.84843 15.59323,-6.28809 30.32322,-8.15781 5.09977,-0.64733 9.93112,-1.28248 10.73635,-1.41145 0.80523,-0.12898 7.50325,-0.65503 14.88449,-1.16899 20.62756,-1.43635 39.24122,-0.68607 64.41812,2.59652 17.96538,2.34235 27.1413,4.02147 37.57723,6.87632 20.02706,5.47858 34.55549,12.63442 43.51854,21.43456 4.81848,4.73091 7.09683,7.95959 9.77584,13.85323 1.36245,2.99725 1.50861,3.82144 1.73148,9.76435 0.23406,6.23965 0.19101,6.62681 -1.11258,10.00664 -4.95136,12.83724 -14.51262,19.8241 -32.92859,24.06244 -4.81061,1.10714 -5.97531,1.18755 -19.03262,1.31404 -10.54437,0.10213 -16.32824,-0.0679 -23.91279,-0.70333 z m 42.4574,-2.43194 c 11.17156,-2.56705 17.82913,-5.589 23.13254,-10.50011 3.97343,-3.67946 6.33802,-7.14939 8.31453,-12.20117 1.32042,-3.37484 1.36708,-3.77154 1.12444,-9.5518 -0.27593,-6.5732 -0.91415,-8.62303 -4.60556,-14.7928 -2.56447,-4.2862 -10.52797,-11.81426 -15.66834,-14.81159 -7.52828,-4.38971 -11.42318,-6.25573 -18.64182,-8.93119 -14.9228,-5.53085 -27.81086,-8.38606 -52.21772,-11.56826 -25.1255,-3.27589 -43.11002,-4.01191 -63.44208,-2.59637 -7.38125,0.51388 -14.07927,1.03986 -14.88449,1.16884 -0.80523,0.12897 -5.63659,0.76412 -10.73636,1.41145 -17.4332,2.21285 -27.6078,5.42037 -33.60205,10.59299 -2.53837,2.19041 -5.58681,6.22923 -6.13563,8.12895 -1.34517,4.65603 1.62182,12.39195 7.24499,18.88982 8.60011,9.93801 25.14527,21.15677 39.08091,26.49962 18.90037,7.24628 34.77817,11.12902 57.58589,14.08196 38.5054,4.98534 46.71295,5.6801 64.90614,5.49423 12.51576,-0.12788 13.76586,-0.21649 18.54461,-1.31457 z M 108.38917,565.93921 C 100.20056,547.92925 96.098393,541.09606 71.191371,503.97659 60.878128,488.60655 55.03316,479.26463 46.148047,463.95004 12.875356,406.60045 12.981012,406.76095 -13.030732,374.06171 c -7.303892,-9.1817 -15.577814,-19.96263 -18.386395,-23.95755 -4.401905,-6.26129 -20.9884,-32.89023 -24.471321,-39.28775 l -1.176217,-2.16053 1.149913,0 c 0.760329,0 1.342873,0.39467 1.719427,1.16487 1.793215,3.6683 19.928428,32.78284 24.24127,38.91745 2.809118,3.99571 11.083479,14.77726 18.387371,23.95897 26.011744,32.69924 25.906088,32.53874 59.178779,89.88832 8.885113,15.31461 14.730081,24.65652 25.043324,40.02657 24.324136,36.25077 28.603351,43.30983 36.385261,60.02208 3.24067,6.95963 3.76621,8.44325 3.64191,10.28088 -0.14299,2.11395 -0.21018,2.00477 -4.29342,-6.97581 z M 104.04178,494.7589 C 93.860595,475.32356 89.507882,468.29309 71.701494,442.52346 63.607211,430.80936 53.240823,414.9828 46.140726,403.49946 37.300852,389.20219 27.476308,374.412 8.3388564,346.5911 -5.8829074,325.91634 -17.518918,308.92306 -17.518918,308.82827 c 0,-0.0948 0.494116,-0.17098 1.098036,-0.16929 1.723673,0.005 47.854952,67.35126 63.899065,93.28533 7.111809,11.49565 17.497328,27.35477 25.350287,38.71094 17.707662,25.60716 22.174815,32.78062 31.84066,51.13093 7.10024,13.47957 8.1544,15.76033 8.02137,17.35471 -0.1424,1.70611 -0.75252,0.69151 -8.64872,-14.38199 z m 4.24179,-64.27788 C 99.837425,415.43266 94.701886,407.94412 75.425594,382.56855 58.672832,360.51507 55.884845,356.43832 43.230833,335.49188 38.470285,327.61165 32.924666,318.50333 30.907208,315.25117 c -2.017459,-3.25216 -3.759481,-6.06652 -3.871188,-6.25415 -0.111707,-0.18762 0.312623,-0.34114 0.942945,-0.34114 1.328331,0 0.188618,-1.72328 14.890785,22.51495 14.784446,24.37385 16.972759,27.59217 34.019892,50.03317 18.899446,24.87952 24.258988,32.66002 32.187198,46.72655 3.1009,5.50175 3.73879,6.98569 3.61312,8.40533 -0.14528,1.64061 -0.35849,1.35727 -4.40639,-5.85486 z M 90.962317,344.53419 C 79.096109,327.92822 68.369955,313.06222 67.126393,311.49868 c -2.211152,-2.78021 -2.233943,-2.8428 -1.03479,-2.8428 1.574731,0 3.907203,2.95042 18.698384,23.65207 26.382103,36.92436 28.069613,39.40174 27.902803,40.96317 -0.13864,1.29832 -2.48873,-1.80949 -21.730473,-28.73693 z M -1806.9884,321.57014 c 0.123,-1.02951 1.6357,-2.62939 6.7329,-7.12104 5.4743,-4.82398 6.8215,-5.7914 8.0522,-5.78221 1.3951,0.0104 1.1495,0.30385 -4.3781,5.23011 -3.2209,2.87049 -6.9158,6.07002 -8.2109,7.11003 l -2.3547,1.89094 0.1586,-1.32783 z"
       id="path3047"
       inkscape:connector-curvature="0" />
  </g>
</svg>
