<?xml version="1.0" encoding="UTF-8" standalone="no"?>
<!-- Created with Inkscape (http://www.inkscape.org/) -->

<svg
   xmlns:dc="http://purl.org/dc/elements/1.1/"
   xmlns:cc="http://creativecommons.org/ns#"
   xmlns:rdf="http://www.w3.org/1999/02/22-rdf-syntax-ns#"
   xmlns:svg="http://www.w3.org/2000/svg"
   xmlns="http://www.w3.org/2000/svg"
   xmlns:sodipodi="http://sodipodi.sourceforge.net/DTD/sodipodi-0.dtd"
   xmlns:inkscape="http://www.inkscape.org/namespaces/inkscape"
   width="320"
   height="208"
   id="svg4494"
   version="1.1"
   inkscape:version="0.48.2 r9819"
   sodipodi:docname="data-collection.svg">
  <defs
     id="defs4496" />
  <sodipodi:namedview
     id="base"
     pagecolor="#ffffff"
     bordercolor="#666666"
     borderopacity="1.0"
     inkscape:pageopacity="0.0"
     inkscape:pageshadow="2"
     inkscape:zoom="1.979899"
     inkscape:cx="153.86369"
     inkscape:cy="106.45104"
     inkscape:document-units="px"
     inkscape:current-layer="layer1"
     showgrid="false"
     fit-margin-top="0"
     fit-margin-left="0"
     fit-margin-right="0"
     fit-margin-bottom="0"
     inkscape:showpageshadow="false"
     inkscape:window-width="1280"
     inkscape:window-height="668"
     inkscape:window-x="0"
     inkscape:window-y="0"
     inkscape:window-maximized="1"
     showguides="true"
     inkscape:guide-bbox="true" />
  <metadata
     id="metadata4499">
    <rdf:RDF>
      <cc:Work
         rdf:about="">
        <dc:format>image/svg+xml</dc:format>
        <dc:type
           rdf:resource="http://purl.org/dc/dcmitype/StillImage" />
        <dc:title></dc:title>
      </cc:Work>
    </rdf:RDF>
  </metadata>
  <g
     inkscape:label="Layer 1"
     inkscape:groupmode="layer"
     id="layer1"
     transform="translate(-171.42857,-342.6479)">
    <rect
       style="fill:#586068;fill-opacity:1;stroke:none"
       id="rect4048"
       width="40"
       height="40"
       x="171.42857"
       y="342.64789"
       rx="4"
       ry="4" />
    <rect
       style="fill:#98a0a8;fill-opacity:1;stroke:none"
       id="rect4048-4"
       width="24"
       height="24"
       x="179.42857"
       y="350.64789"
       rx="2"
       ry="2" />
    <rect
       style="fill:#586068;fill-opacity:1;stroke:none"
       id="rect4048-8"
       width="40"
       height="40"
       x="283.42856"
       y="342.64789"
       rx="4"
       ry="4" />
    <rect
       style="fill:#98a0a8;fill-opacity:1;stroke:none"
       id="rect4048-4-8"
       width="24"
       height="24"
       x="291.42856"
       y="350.64789"
       rx="2"
       ry="2" />
    <rect
       style="fill:#586068;fill-opacity:1;stroke:none"
       id="rect4048-9"
       width="40"
       height="40"
       x="395.42856"
       y="342.64789"
       rx="4"
       ry="4" />
    <rect
       style="fill:#98a0a8;fill-opacity:1;stroke:none"
       id="rect4048-4-3"
       width="24"
       height="24"
       x="403.42856"
       y="350.64789"
       rx="2"
       ry="2" />
    <rect
       style="fill:#586068;fill-opacity:1;stroke:none"
       id="rect4048-2"
       width="40"
       height="40"
       x="451.42856"
       y="342.64789"
       rx="4"
       ry="4" />
    <rect
       style="fill:#98a0a8;fill-opacity:1;stroke:none"
       id="rect4048-4-38"
       width="24"
       height="24"
       x="459.42856"
       y="350.64789"
       rx="2"
       ry="2" />
    <rect
       style="fill:#586068;fill-opacity:1;stroke:none"
       id="rect4048-46"
       width="40"
       height="40"
       x="171.42857"
       y="398.64789"
       rx="4"
       ry="4" />
    <rect
       style="fill:#98a0a8;fill-opacity:1;stroke:none"
       id="rect4048-4-9"
       width="24"
       height="24"
       x="179.42857"
       y="406.64789"
       rx="2"
       ry="2" />
    <rect
       style="fill:#586068;fill-opacity:1;stroke:none"
       id="rect4048-7-3"
       width="40"
       height="40"
       x="227.42857"
       y="398.64789"
       rx="4"
       ry="4" />
    <rect
       style="fill:#98a0a8;fill-opacity:1;stroke:none"
       id="rect4048-4-6-2"
       width="24"
       height="24"
       x="235.42857"
       y="406.64789"
       rx="2"
       ry="2" />
    <rect
       style="fill:#586068;fill-opacity:1;stroke:none"
       id="rect4048-8-4"
       width="40"
       height="40"
       x="283.42856"
       y="398.64789"
       rx="4"
       ry="4" />
    <rect
       style="fill:#98a0a8;fill-opacity:1;stroke:none"
       id="rect4048-4-8-1"
       width="24"
       height="24"
       x="291.42856"
       y="406.64789"
       rx="2"
       ry="2" />
    <rect
       style="fill:#586068;fill-opacity:1;stroke:none"
       id="rect4048-9-3"
       width="40"
       height="40"
       x="395.42856"
       y="398.64789"
       rx="4"
       ry="4" />
    <rect
       style="fill:#98a0a8;fill-opacity:1;stroke:none"
       id="rect4048-4-3-3"
       width="24"
       height="24"
       x="403.42856"
       y="406.64789"
       rx="2"
       ry="2" />
    <rect
       style="fill:#586068;fill-opacity:1;stroke:none"
       id="rect4048-2-8"
       width="40"
       height="40"
       x="451.42856"
       y="398.64789"
       rx="4"
       ry="4" />
    <rect
       style="fill:#98a0a8;fill-opacity:1;stroke:none"
       id="rect4048-4-38-1"
       width="24"
       height="24"
       x="459.42856"
       y="406.64789"
       rx="2"
       ry="2" />
    <rect
       style="fill:#586068;fill-opacity:1;stroke:none"
       id="rect4048-72"
       width="40"
       height="40"
       x="171.42857"
       y="454.64789"
       rx="4"
       ry="4" />
    <rect
       style="fill:#98a0a8;fill-opacity:1;stroke:none"
       id="rect4048-4-35"
       width="24"
       height="24"
       x="179.42857"
       y="462.64789"
       rx="2"
       ry="2" />
    <rect
       style="fill:#586068;fill-opacity:1;stroke:none"
       id="rect4048-8-7"
       width="40"
       height="40"
       x="283.42856"
       y="454.64789"
       rx="4"
       ry="4" />
    <rect
       style="fill:#98a0a8;fill-opacity:1;stroke:none"
       id="rect4048-4-8-9"
       width="24"
       height="24"
       x="291.42856"
       y="462.64789"
       rx="2"
       ry="2" />
    <rect
       style="fill:#586068;fill-opacity:1;stroke:none"
       id="rect4048-5-4"
       width="40"
       height="40"
       x="339.42856"
       y="454.64789"
       rx="4"
       ry="4" />
    <rect
       style="fill:#98a0a8;fill-opacity:1;stroke:none"
       id="rect4048-4-68-8"
       width="24"
       height="24"
       x="347.42856"
       y="462.64789"
       rx="2"
       ry="2" />
    <rect
       style="fill:#586068;fill-opacity:1;stroke:none"
       id="rect4048-9-9"
       width="40"
       height="40"
       x="395.42856"
       y="454.64789"
       rx="4"
       ry="4" />
    <rect
       style="fill:#98a0a8;fill-opacity:1;stroke:none"
       id="rect4048-4-3-6"
       width="24"
       height="24"
       x="403.42856"
       y="462.64789"
       rx="2"
       ry="2" />
    <rect
       style="fill:#586068;fill-opacity:1;stroke:none"
       id="rect4048-80"
       width="40"
       height="40"
       x="171.42857"
       y="510.64789"
       rx="4"
       ry="4" />
    <rect
       style="fill:#98a0a8;fill-opacity:1;stroke:none"
       id="rect4048-4-36"
       width="24"
       height="24"
       x="179.42857"
       y="518.64789"
       rx="2"
       ry="2" />
    <rect
       style="fill:#586068;fill-opacity:1;stroke:none"
       id="rect4048-7-5"
       width="40"
       height="40"
       x="227.42857"
       y="510.64789"
       rx="4"
       ry="4" />
    <rect
       style="fill:#98a0a8;fill-opacity:1;stroke:none"
       id="rect4048-4-6-4"
       width="24"
       height="24"
       x="235.42857"
       y="518.64789"
       rx="2"
       ry="2" />
    <rect
       style="fill:#586068;fill-opacity:1;stroke:none"
       id="rect4048-8-3"
       width="40"
       height="40"
       x="283.42856"
       y="510.64789"
       rx="4"
       ry="4" />
    <rect
       style="fill:#98a0a8;fill-opacity:1;stroke:none"
       id="rect4048-4-8-12"
       width="24"
       height="24"
       x="291.42856"
       y="518.64789"
       rx="2"
       ry="2" />
    <rect
       style="fill:#586068;fill-opacity:1;stroke:none"
       id="rect4048-9-4"
       width="40"
       height="40"
       x="395.42856"
       y="510.64789"
       rx="4"
       ry="4" />
    <rect
       style="fill:#98a0a8;fill-opacity:1;stroke:none"
       id="rect4048-4-3-8"
       width="24"
       height="24"
       x="403.42856"
       y="518.64789"
       rx="2"
       ry="2" />
    <rect
       style="fill:#586068;fill-opacity:1;stroke:none"
       id="rect4048-2-1"
       width="40"
       height="40"
       x="451.42856"
       y="510.64789"
       rx="4"
       ry="4" />
    <rect
       style="fill:#98a0a8;fill-opacity:1;stroke:none"
       id="rect4048-4-38-0"
       width="24"
       height="24"
       x="459.42856"
       y="518.64789"
       rx="2"
       ry="2" />
    <rect
       style="fill:#98a0a8;fill-opacity:1;stroke:none"
       id="rect4048-7"
       width="40"
       height="40"
       x="227.42857"
       y="342.64789"
       rx="4"
       ry="4" />
    <path
       sodipodi:type="arc"
       style="fill:#586068;fill-opacity:1;stroke:none"
       id="path4859"
       sodipodi:cx="-46.719555"
       sodipodi:cy="67.083717"
       sodipodi:rx="21.970818"
       sodipodi:ry="17.172594"
       d="m -24.748737,67.083717 a 21.970818,17.172594 0 1 1 -43.941635,0 21.970818,17.172594 0 1 1 43.941635,0 z"
       transform="matrix(0.54617904,0,0,0.69878784,272.94582,315.7706)" />
    <rect
       style="fill:#98a0a8;fill-opacity:1;stroke:none"
       id="rect4048-7-7"
       width="40"
       height="40"
       x="339.42859"
       y="342.64789"
       rx="4"
       ry="4" />
    <path
       sodipodi:type="arc"
       style="fill:#586068;fill-opacity:1;stroke:none"
       id="path4859-8"
       sodipodi:cx="-46.719555"
       sodipodi:cy="67.083717"
       sodipodi:rx="21.970818"
       sodipodi:ry="17.172594"
       d="m -24.748737,67.083717 a 21.970818,17.172594 0 1 1 -43.941635,0 21.970818,17.172594 0 1 1 43.941635,0 z"
       transform="matrix(0.54617904,0,0,0.69878784,384.94582,315.77061)" />
    <rect
       style="fill:#98a0a8;fill-opacity:1;stroke:none"
       id="rect4048-7-79"
       width="40"
       height="40"
       x="339.42859"
       y="398.64789"
       rx="4"
       ry="4" />
    <path
       sodipodi:type="arc"
       style="fill:#586068;fill-opacity:1;stroke:none"
       id="path4859-5"
       sodipodi:cx="-46.719555"
       sodipodi:cy="67.083717"
       sodipodi:rx="21.970818"
       sodipodi:ry="17.172594"
       d="m -24.748737,67.083717 a 21.970818,17.172594 0 1 1 -43.941635,0 21.970818,17.172594 0 1 1 43.941635,0 z"
       transform="matrix(0.54617904,0,0,0.69878784,384.94582,371.77061)" />
    <rect
       style="fill:#98a0a8;fill-opacity:1;stroke:none"
       id="rect4048-7-6"
       width="40"
       height="40"
       x="227.42857"
       y="454.64789"
       rx="4"
       ry="4" />
    <path
       sodipodi:type="arc"
       style="fill:#586068;fill-opacity:1;stroke:none"
       id="path4859-0"
       sodipodi:cx="-46.719555"
       sodipodi:cy="67.083717"
       sodipodi:rx="21.970818"
       sodipodi:ry="17.172594"
       d="m -24.748737,67.083717 a 21.970818,17.172594 0 1 1 -43.941635,0 21.970818,17.172594 0 1 1 43.941635,0 z"
       transform="matrix(0.54617904,0,0,0.69878784,272.94582,427.77061)" />
    <rect
       style="fill:#98a0a8;fill-opacity:1;stroke:none"
       id="rect4048-7-74"
       width="40"
       height="40"
       x="339.42859"
       y="510.64789"
       rx="4"
       ry="4" />
    <path
       sodipodi:type="arc"
       style="fill:#586068;fill-opacity:1;stroke:none"
       id="path4859-59"
       sodipodi:cx="-46.719555"
       sodipodi:cy="67.083717"
       sodipodi:rx="21.970818"
       sodipodi:ry="17.172594"
       d="m -24.748737,67.083717 a 21.970818,17.172594 0 1 1 -43.941635,0 21.970818,17.172594 0 1 1 43.941635,0 z"
       transform="matrix(0.54617904,0,0,0.69878784,384.94582,483.77061)" />
    <rect
       style="fill:#98a0a8;fill-opacity:1;stroke:none"
       id="rect4048-7-74-5"
       width="40"
       height="40"
       x="451.42856"
       y="454.64789"
       rx="4"
       ry="4" />
    <path
       sodipodi:type="arc"
       style="fill:#586068;fill-opacity:1;stroke:none"
       id="path4859-59-9"
       sodipodi:cx="-46.719555"
       sodipodi:cy="67.083717"
       sodipodi:rx="21.970818"
       sodipodi:ry="17.172594"
       d="m -24.748737,67.083717 a 21.970818,17.172594 0 1 1 -43.941635,0 21.970818,17.172594 0 1 1 43.941635,0 z"
       transform="matrix(0.54617904,0,0,0.69878784,496.9458,427.77062)" />
    <path
       sodipodi:type="star"
       style="fill:#ffffff;fill-opacity:1;stroke:none"
       id="path5504"
       sodipodi:sides="3"
       sodipodi:cx="-28.789349"
       sodipodi:cy="76.175095"
       sodipodi:r1="26.341557"
       sodipodi:r2="13.170778"
       sodipodi:arg1="0.52359878"
       sodipodi:arg2="1.5707963"
       inkscape:flatsided="true"
       inkscape:rounded="0"
       inkscape:randomized="0"
       d="m -5.9768915,89.345873 -45.6249145,0 22.812458,-39.512335 z"
       transform="matrix(0.26301419,0,0,0.20246842,199.00058,348.55817)"
       inkscape:transform-center-y="-1.3333302" />
    <path
       sodipodi:type="star"
       style="fill:#ffffff;fill-opacity:1;stroke:none"
       id="path5504-4"
       sodipodi:sides="3"
       sodipodi:cx="-28.789349"
       sodipodi:cy="76.175095"
       sodipodi:r1="26.341557"
       sodipodi:r2="13.170778"
       sodipodi:arg1="0.52359878"
       sodipodi:arg2="1.5707963"
       inkscape:flatsided="true"
       inkscape:rounded="0"
       inkscape:randomized="0"
       d="m -5.9768915,89.345873 -45.6249145,0 22.812458,-39.512335 z"
       transform="matrix(0.26301419,0,0,-0.20246842,311.00057,376.73761)"
       inkscape:transform-center-y="1.3333348" />
    <path
       sodipodi:type="star"
       style="fill:#ffffff;fill-opacity:1;stroke:none"
       id="path5504-47"
       sodipodi:sides="3"
       sodipodi:cx="-28.789349"
       sodipodi:cy="76.175095"
       sodipodi:r1="26.341557"
       sodipodi:r2="13.170778"
       sodipodi:arg1="0.52359878"
       sodipodi:arg2="1.5707963"
       inkscape:flatsided="true"
       inkscape:rounded="0"
       inkscape:randomized="0"
       d="m -5.9768915,89.345873 -45.6249145,0 22.812458,-39.512335 z"
       transform="matrix(0.26301419,0,0,0.20246842,423.00057,348.55817)"
       inkscape:transform-center-y="-1.3333302" />
    <path
       sodipodi:type="star"
       style="fill:#ffffff;fill-opacity:1;stroke:none"
       id="path5504-55"
       sodipodi:sides="3"
       sodipodi:cx="-28.789349"
       sodipodi:cy="76.175095"
       sodipodi:r1="26.341557"
       sodipodi:r2="13.170778"
       sodipodi:arg1="0.52359878"
       sodipodi:arg2="1.5707963"
       inkscape:flatsided="true"
       inkscape:rounded="0"
       inkscape:randomized="0"
       d="m -5.9768915,89.345873 -45.6249145,0 22.812458,-39.512335 z"
       transform="matrix(0.26301419,0,0,0.20246842,479.00057,348.55817)"
       inkscape:transform-center-y="-1.3333302" />
    <path
       sodipodi:type="star"
       style="fill:#ffffff;fill-opacity:1;stroke:none"
       id="path5504-64"
       sodipodi:sides="3"
       sodipodi:cx="-28.789349"
       sodipodi:cy="76.175095"
       sodipodi:r1="26.341557"
       sodipodi:r2="13.170778"
       sodipodi:arg1="0.52359878"
       sodipodi:arg2="1.5707963"
       inkscape:flatsided="true"
       inkscape:rounded="0"
       inkscape:randomized="0"
       d="m -5.9768915,89.345873 -45.6249145,0 22.812458,-39.512335 z"
       transform="matrix(0.26301419,0,0,0.20246842,199.00058,404.55817)"
       inkscape:transform-center-y="-1.3333302" />
    <path
       sodipodi:type="star"
       style="fill:#ffffff;fill-opacity:1;stroke:none"
       id="path5504-1"
       sodipodi:sides="3"
       sodipodi:cx="-28.789349"
       sodipodi:cy="76.175095"
       sodipodi:r1="26.341557"
       sodipodi:r2="13.170778"
       sodipodi:arg1="0.52359878"
       sodipodi:arg2="1.5707963"
       inkscape:flatsided="true"
       inkscape:rounded="0"
       inkscape:randomized="0"
       d="m -5.9768915,89.345873 -45.6249145,0 22.812458,-39.512335 z"
       transform="matrix(0.26301419,0,0,-0.20246842,255.00058,432.73761)"
       inkscape:transform-center-y="1.3333348" />
    <path
       sodipodi:type="star"
       style="fill:#ffffff;fill-opacity:1;stroke:none"
       id="path5504-10"
       sodipodi:sides="3"
       sodipodi:cx="-28.789349"
       sodipodi:cy="76.175095"
       sodipodi:r1="26.341557"
       sodipodi:r2="13.170778"
       sodipodi:arg1="0.52359878"
       sodipodi:arg2="1.5707963"
       inkscape:flatsided="true"
       inkscape:rounded="0"
       inkscape:randomized="0"
       d="m -5.9768915,89.345873 -45.6249145,0 22.812458,-39.512335 z"
       transform="matrix(0.26301419,0,0,0.20246842,311.00057,404.55817)"
       inkscape:transform-center-y="-1.3333302" />
    <path
       sodipodi:type="star"
       style="fill:#ffffff;fill-opacity:1;stroke:none"
       id="path5504-7"
       sodipodi:sides="3"
       sodipodi:cx="-28.789349"
       sodipodi:cy="76.175095"
       sodipodi:r1="26.341557"
       sodipodi:r2="13.170778"
       sodipodi:arg1="0.52359878"
       sodipodi:arg2="1.5707963"
       inkscape:flatsided="true"
       inkscape:rounded="0"
       inkscape:randomized="0"
       d="m -5.9768915,89.345873 -45.6249145,0 22.812458,-39.512335 z"
       transform="matrix(0.26301419,0,0,-0.20246842,423.00057,432.73761)"
       inkscape:transform-center-y="1.3333348" />
    <path
       sodipodi:type="star"
       style="fill:#ffffff;fill-opacity:1;stroke:none"
       id="path5504-79"
       sodipodi:sides="3"
       sodipodi:cx="-28.789349"
       sodipodi:cy="76.175095"
       sodipodi:r1="26.341557"
       sodipodi:r2="13.170778"
       sodipodi:arg1="0.52359878"
       sodipodi:arg2="1.5707963"
       inkscape:flatsided="true"
       inkscape:rounded="0"
       inkscape:randomized="0"
       d="m -5.9768915,89.345873 -45.6249145,0 22.812458,-39.512335 z"
       transform="matrix(0.26301419,0,0,0.20246842,479.00057,404.55817)"
       inkscape:transform-center-y="-1.3333302" />
    <path
       sodipodi:type="star"
       style="fill:#ffffff;fill-opacity:1;stroke:none"
       id="path5504-2"
       sodipodi:sides="3"
       sodipodi:cx="-28.789349"
       sodipodi:cy="76.175095"
       sodipodi:r1="26.341557"
       sodipodi:r2="13.170778"
       sodipodi:arg1="0.52359878"
       sodipodi:arg2="1.5707963"
       inkscape:flatsided="true"
       inkscape:rounded="0"
       inkscape:randomized="0"
       d="m -5.9768915,89.345873 -45.6249145,0 22.812458,-39.512335 z"
       transform="matrix(0.26301419,0,0,0.20246842,423.00057,460.55817)"
       inkscape:transform-center-y="-1.3333302" />
    <path
       sodipodi:type="star"
       style="fill:#ffffff;fill-opacity:1;stroke:none"
       id="path5504-59"
       sodipodi:sides="3"
       sodipodi:cx="-28.789349"
       sodipodi:cy="76.175095"
       sodipodi:r1="26.341557"
       sodipodi:r2="13.170778"
       sodipodi:arg1="0.52359878"
       sodipodi:arg2="1.5707963"
       inkscape:flatsided="true"
       inkscape:rounded="0"
       inkscape:randomized="0"
       d="m -5.9768915,89.345873 -45.6249145,0 22.812458,-39.512335 z"
       transform="matrix(0.26301419,0,0,0.20246842,367.00057,460.55817)"
       inkscape:transform-center-y="-1.3333302" />
    <path
       sodipodi:type="star"
       style="fill:#ffffff;fill-opacity:1;stroke:none"
       id="path5504-9"
       sodipodi:sides="3"
       sodipodi:cx="-28.789349"
       sodipodi:cy="76.175095"
       sodipodi:r1="26.341557"
       sodipodi:r2="13.170778"
       sodipodi:arg1="0.52359878"
       sodipodi:arg2="1.5707963"
       inkscape:flatsided="true"
       inkscape:rounded="0"
       inkscape:randomized="0"
       d="m -5.9768915,89.345873 -45.6249145,0 22.812458,-39.512335 z"
       transform="matrix(0.26301419,0,0,-0.20246842,311.00057,488.73761)"
       inkscape:transform-center-y="1.3333348" />
    <path
       sodipodi:type="star"
       style="fill:#ffffff;fill-opacity:1;stroke:none"
       id="path5504-28"
       sodipodi:sides="3"
       sodipodi:cx="-28.789349"
       sodipodi:cy="76.175095"
       sodipodi:r1="26.341557"
       sodipodi:r2="13.170778"
       sodipodi:arg1="0.52359878"
       sodipodi:arg2="1.5707963"
       inkscape:flatsided="true"
       inkscape:rounded="0"
       inkscape:randomized="0"
       d="m -5.9768915,89.345873 -45.6249145,0 22.812458,-39.512335 z"
       transform="matrix(0.26301419,0,0,0.20246842,199.00058,460.55817)"
       inkscape:transform-center-y="-1.3333302" />
    <path
       sodipodi:type="star"
       style="fill:#ffffff;fill-opacity:1;stroke:none"
       id="path5504-36"
       sodipodi:sides="3"
       sodipodi:cx="-28.789349"
       sodipodi:cy="76.175095"
       sodipodi:r1="26.341557"
       sodipodi:r2="13.170778"
       sodipodi:arg1="0.52359878"
       sodipodi:arg2="1.5707963"
       inkscape:flatsided="true"
       inkscape:rounded="0"
       inkscape:randomized="0"
       d="m -5.9768915,89.345873 -45.6249145,0 22.812458,-39.512335 z"
       transform="matrix(0.26301419,0,0,0.20246842,199.00058,516.55817)"
       inkscape:transform-center-y="-1.3333302" />
    <path
       sodipodi:type="star"
       style="fill:#ffffff;fill-opacity:1;stroke:none"
       id="path5504-63"
       sodipodi:sides="3"
       sodipodi:cx="-28.789349"
       sodipodi:cy="76.175095"
       sodipodi:r1="26.341557"
       sodipodi:r2="13.170778"
       sodipodi:arg1="0.52359878"
       sodipodi:arg2="1.5707963"
       inkscape:flatsided="true"
       inkscape:rounded="0"
       inkscape:randomized="0"
       d="m -5.9768915,89.345873 -45.6249145,0 22.812458,-39.512335 z"
       transform="matrix(0.26301419,0,0,0.20246842,255.00058,516.55817)"
       inkscape:transform-center-y="-1.3333302" />
    <path
       sodipodi:type="star"
       style="fill:#ffffff;fill-opacity:1;stroke:none"
       id="path5504-73"
       sodipodi:sides="3"
       sodipodi:cx="-28.789349"
       sodipodi:cy="76.175095"
       sodipodi:r1="26.341557"
       sodipodi:r2="13.170778"
       sodipodi:arg1="0.52359878"
       sodipodi:arg2="1.5707963"
       inkscape:flatsided="true"
       inkscape:rounded="0"
       inkscape:randomized="0"
       d="m -5.9768915,89.345873 -45.6249145,0 22.812458,-39.512335 z"
       transform="matrix(0.26301419,0,0,0.20246842,311.00057,516.55817)"
       inkscape:transform-center-y="-1.3333302" />
    <path
       sodipodi:type="star"
       style="fill:#ffffff;fill-opacity:1;stroke:none"
       id="path5504-46"
       sodipodi:sides="3"
       sodipodi:cx="-28.789349"
       sodipodi:cy="76.175095"
       sodipodi:r1="26.341557"
       sodipodi:r2="13.170778"
       sodipodi:arg1="0.52359878"
       sodipodi:arg2="1.5707963"
       inkscape:flatsided="true"
       inkscape:rounded="0"
       inkscape:randomized="0"
       d="m -5.9768915,89.345873 -45.6249145,0 22.812458,-39.512335 z"
       transform="matrix(0.26301419,0,0,0.20246842,423.00057,516.55817)"
       inkscape:transform-center-y="-1.3333302" />
    <path
       sodipodi:type="star"
       style="fill:#ffffff;fill-opacity:1;stroke:none"
       id="path5504-30"
       sodipodi:sides="3"
       sodipodi:cx="-28.789349"
       sodipodi:cy="76.175095"
       sodipodi:r1="26.341557"
       sodipodi:r2="13.170778"
       sodipodi:arg1="0.52359878"
       sodipodi:arg2="1.5707963"
       inkscape:flatsided="true"
       inkscape:rounded="0"
       inkscape:randomized="0"
       d="m -5.9768915,89.345873 -45.6249145,0 22.812458,-39.512335 z"
       transform="matrix(0.26301419,0,0,-0.20246842,479.00057,544.73761)"
       inkscape:transform-center-y="1.3333348" />
    <path
       sodipodi:type="arc"
       style="fill:#ffffff;fill-opacity:1;stroke:none"
       id="path4859-9"
       sodipodi:cx="-46.719555"
       sodipodi:cy="67.083717"
       sodipodi:rx="21.970818"
       sodipodi:ry="17.172594"
       d="m -24.748737,67.083717 a 21.970818,17.172594 0 1 1 -43.941635,0 21.970818,17.172594 0 1 1 43.941635,0 z"
       transform="matrix(0.27308952,0,0,0.34939392,260.18719,339.20925)" />
    <path
       sodipodi:type="arc"
       style="fill:#ffffff;fill-opacity:1;stroke:none"
       id="path4859-9-4"
       sodipodi:cx="-46.719555"
       sodipodi:cy="67.083717"
       sodipodi:rx="21.970818"
       sodipodi:ry="17.172594"
       d="m -24.748737,67.083717 a 21.970818,17.172594 0 1 1 -43.941635,0 21.970818,17.172594 0 1 1 43.941635,0 z"
       transform="matrix(0.27308952,0,0,0.34939392,372.18721,339.20925)" />
    <path
       sodipodi:type="arc"
       style="fill:#ffffff;fill-opacity:1;stroke:none"
       id="path4859-9-1"
       sodipodi:cx="-46.719555"
       sodipodi:cy="67.083717"
       sodipodi:rx="21.970818"
       sodipodi:ry="17.172594"
       d="m -24.748737,67.083717 a 21.970818,17.172594 0 1 1 -43.941635,0 21.970818,17.172594 0 1 1 43.941635,0 z"
       transform="matrix(0.27308952,0,0,0.34939392,372.18721,395.20925)" />
    <path
       sodipodi:type="arc"
       style="fill:#ffffff;fill-opacity:1;stroke:none"
       id="path4859-9-0"
       sodipodi:cx="-46.719555"
       sodipodi:cy="67.083717"
       sodipodi:rx="21.970818"
       sodipodi:ry="17.172594"
       d="m -24.748737,67.083717 a 21.970818,17.172594 0 1 1 -43.941635,0 21.970818,17.172594 0 1 1 43.941635,0 z"
       transform="matrix(0.27308952,0,0,0.34939392,260.18719,451.20925)" />
    <path
       sodipodi:type="arc"
       style="fill:#ffffff;fill-opacity:1;stroke:none"
       id="path4859-9-08"
       sodipodi:cx="-46.719555"
       sodipodi:cy="67.083717"
       sodipodi:rx="21.970818"
       sodipodi:ry="17.172594"
       d="m -24.748737,67.083717 a 21.970818,17.172594 0 1 1 -43.941635,0 21.970818,17.172594 0 1 1 43.941635,0 z"
       transform="matrix(0.27308952,0,0,0.34939392,372.18721,507.20925)" />
    <path
       sodipodi:type="arc"
       style="fill:#ffffff;fill-opacity:1;stroke:none"
       id="path4859-9-5"
       sodipodi:cx="-46.719555"
       sodipodi:cy="67.083717"
       sodipodi:rx="21.970818"
       sodipodi:ry="17.172594"
       d="m -24.748737,67.083717 a 21.970818,17.172594 0 1 1 -43.941635,0 21.970818,17.172594 0 1 1 43.941635,0 z"
       transform="matrix(0.27308952,0,0,0.34939392,484.18718,451.20925)" />
  </g>
</svg>
