<?xml version="1.0" encoding="UTF-8" standalone="no"?>
<!-- Created with Inkscape (http://www.inkscape.org/) -->

<svg
   xmlns:dc="http://purl.org/dc/elements/1.1/"
   xmlns:cc="http://creativecommons.org/ns#"
   xmlns:rdf="http://www.w3.org/1999/02/22-rdf-syntax-ns#"
   xmlns:svg="http://www.w3.org/2000/svg"
   xmlns="http://www.w3.org/2000/svg"
   xmlns:sodipodi="http://sodipodi.sourceforge.net/DTD/sodipodi-0.dtd"
   xmlns:inkscape="http://www.inkscape.org/namespaces/inkscape"
   width="276"
   height="64.000038"
   id="svg2"
   version="1.1"
   inkscape:version="0.48.2 r9819"
   sodipodi:docname="place-hold-2.svg">
  <defs
     id="defs4" />
  <sodipodi:namedview
     id="base"
     pagecolor="#ffffff"
     bordercolor="#666666"
     borderopacity="1.0"
     inkscape:pageopacity="0.0"
     inkscape:pageshadow="2"
     inkscape:zoom="2.8"
     inkscape:cx="136.70223"
     inkscape:cy="27.818101"
     inkscape:document-units="px"
     inkscape:current-layer="layer1"
     showgrid="false"
     inkscape:showpageshadow="false"
     inkscape:window-width="1280"
     inkscape:window-height="674"
     inkscape:window-x="0"
     inkscape:window-y="0"
     inkscape:window-maximized="0"
     fit-margin-top="0"
     fit-margin-left="0"
     fit-margin-right="0"
     fit-margin-bottom="0" />
  <metadata
     id="metadata7">
    <rdf:RDF>
      <cc:Work
         rdf:about="">
        <dc:format>image/svg+xml</dc:format>
        <dc:type
           rdf:resource="http://purl.org/dc/dcmitype/StillImage" />
        <dc:title></dc:title>
      </cc:Work>
    </rdf:RDF>
  </metadata>
  <g
     inkscape:label="Layer 1"
     inkscape:groupmode="layer"
     id="layer1"
     transform="translate(0,-988.36216)">
    <rect
       style="fill:#1878b8;fill-opacity:1;stroke:none"
       id="rect3801"
       width="64"
       height="64"
       x="0"
       y="988.36218"
       rx="8"
       ry="8" />
    <path
       sodipodi:type="arc"
       style="fill:#ffffff;fill-opacity:1;stroke:none"
       id="path3803"
       sodipodi:cx="15.803572"
       sodipodi:cy="39.44643"
       sodipodi:rx="22.053572"
       sodipodi:ry="17.767857"
       d="m 37.857143,39.44643 c 0,9.812916 -9.87372,17.767857 -22.053571,17.767857 C 3.6237204,57.214287 -6.25,49.259346 -6.25,39.44643 c 0,-9.812916 9.8737204,-17.767856 22.053572,-17.767856 12.179851,0 22.053571,7.95494 22.053571,17.767856 z"
       transform="matrix(0.72550606,0,0,0.90050256,20.534413,984.84057)" />
    <path
       style="fill:#20d868;fill-opacity:1;stroke:none"
       d="m 32,1044.3622 c -6.547547,0 -12.343168,3.153 -16,8 l 32,0 c -3.656832,-4.847 -9.452453,-8 -16,-8 z"
       id="path3803-0"
       inkscape:connector-curvature="0" />
    <path
       sodipodi:type="arc"
       style="fill:#1878b8;fill-opacity:1;stroke:none"
       id="path3803-5"
       sodipodi:cx="15.803572"
       sodipodi:cy="39.44643"
       sodipodi:rx="22.053572"
       sodipodi:ry="17.767857"
       d="m 37.857143,39.44643 c 0,9.812916 -9.87372,17.767857 -22.053571,17.767857 C 3.6237204,57.214287 -6.25,49.259346 -6.25,39.44643 c 0,-9.812916 9.8737204,-17.767856 22.053572,-17.767856 12.179851,0 22.053571,7.95494 22.053571,17.767856 z"
       transform="matrix(0.45344129,0,0,0.5628141,24.834008,998.16117)" />
    <path
       sodipodi:type="star"
       style="fill:#1878b8;fill-opacity:1;stroke:none"
       id="path3841"
       sodipodi:sides="3"
       sodipodi:cx="-21.607143"
       sodipodi:cy="26.678572"
       sodipodi:r1="18.039249"
       sodipodi:r2="9.0196247"
       sodipodi:arg1="0.52359878"
       sodipodi:arg2="1.5707963"
       inkscape:flatsided="true"
       inkscape:rounded="0"
       inkscape:randomized="0"
       d="m -5.9846952,35.698196 -31.2448968,0 15.622449,-27.0588737 z"
       transform="matrix(0,-1.0241673,0.88695486,0,24.337311,998.23285)"
       inkscape:transform-center-x="4.0000003" />
    <g
       transform="translate(0,-2e-5)"
       id="g2999">
      <path
         style="fill:#202830;fill-opacity:1"
         inkscape:connector-curvature="0"
         d="m 85.457,1052.3622 q -6.573,0 -10.015,-3.64 -3.442,-3.641 -3.442,-10.341 0,-3.33 1.05,-5.944 1.05,-2.614 2.878,-4.415 1.828,-1.801 4.356,-2.731 2.529,-0.929 5.485,-0.929 1.711,0 3.111,0.252 1.4,0.251 2.45,0.581 1.051,0.329 1.751,0.677 0.7,0.349 1.011,0.543 l -1.75,4.879 q -1.245,-0.658 -2.898,-1.123 -1.653,-0.465 -3.753,-0.465 -1.4,0 -2.742,0.465 -1.342,0.465 -2.373,1.491 -1.031,1.026 -1.653,2.653 -0.622,1.627 -0.622,3.95 0,1.859 0.408,3.466 0.409,1.607 1.323,2.769 0.914,1.162 2.392,1.84 1.478,0.678 3.578,0.678 1.322,0 2.372,-0.155 1.051,-0.155 1.867,-0.368 0.817,-0.213 1.439,-0.484 0.623,-0.271 1.128,-0.504 l 1.673,4.841 q -1.284,0.775 -3.617,1.394 -2.334,0.62 -5.407,0.62 z"
         id="path8" />
      <path
         style="fill:#202830;fill-opacity:1"
         inkscape:connector-curvature="0"
         d="m 102.493,1038.3812 q 0,1.975 0.486,3.563 0.486,1.588 1.4,2.731 0.914,1.142 2.237,1.762 1.322,0.619 3.034,0.619 1.672,0 3.014,-0.619 1.342,-0.62 2.256,-1.762 0.914,-1.143 1.4,-2.731 0.486,-1.588 0.486,-3.563 0,-1.975 -0.486,-3.582 -0.486,-1.607 -1.4,-2.75 -0.914,-1.142 -2.256,-1.762 -1.342,-0.619 -3.014,-0.619 -1.712,0 -3.034,0.639 -1.323,0.639 -2.237,1.781 -0.914,1.143 -1.4,2.75 -0.486,1.607 -0.486,3.543 z m 20.575,0 q 0,3.447 -1.031,6.061 -1.03,2.614 -2.819,4.376 -1.79,1.763 -4.259,2.653 -2.47,0.891 -5.309,0.891 -2.762,0 -5.212,-0.891 -2.451,-0.89 -4.279,-2.653 -1.828,-1.762 -2.878,-4.376 -1.05,-2.614 -1.05,-6.061 0,-3.446 1.089,-6.06 1.089,-2.615 2.937,-4.396 1.847,-1.782 4.278,-2.672 2.431,-0.891 5.115,-0.891 2.761,0 5.211,0.891 2.451,0.89 4.279,2.672 1.828,1.781 2.878,4.396 1.05,2.614 1.05,6.06 z"
         id="path10" />
      <path
         style="fill:#202830;fill-opacity:1"
         inkscape:connector-curvature="0"
         d="m 135.281,1024.9822 q 0.7,1.278 1.614,3.156 0.914,1.878 1.906,4.066 0.992,2.188 1.964,4.473 0.972,2.285 1.828,4.299 0.856,-2.014 1.828,-4.299 0.972,-2.285 1.964,-4.473 0.992,-2.188 1.906,-4.066 0.914,-1.878 1.614,-3.156 l 5.523,0 q 0.389,2.672 0.72,5.983 0.33,3.311 0.583,6.894 0.253,3.582 0.467,7.184 0.214,3.601 0.369,6.777 l -5.912,0 q -0.116,-3.912 -0.311,-8.52 -0.194,-4.609 -0.583,-9.295 -0.7,1.627 -1.556,3.602 -0.856,1.975 -1.692,3.95 -0.836,1.975 -1.614,3.776 -0.778,1.801 -1.322,3.079 l -4.24,0 q -0.544,-1.278 -1.322,-3.079 -0.778,-1.801 -1.614,-3.776 -0.837,-1.975 -1.692,-3.95 -0.856,-1.975 -1.556,-3.602 -0.389,4.686 -0.584,9.295 -0.194,4.608 -0.311,8.52 l -5.912,0 q 0.156,-3.176 0.37,-6.777 0.214,-3.602 0.467,-7.184 0.252,-3.583 0.583,-6.894 0.331,-3.311 0.72,-5.983 z"
         id="path12" />
      <path
         style="fill:#202830;fill-opacity:1"
         inkscape:connector-curvature="0"
         d="m 170.169,1024.9822 q 0.7,1.278 1.614,3.156 0.914,1.878 1.906,4.066 0.992,2.188 1.964,4.473 0.972,2.285 1.828,4.299 0.856,-2.014 1.828,-4.299 0.972,-2.285 1.964,-4.473 0.992,-2.188 1.906,-4.066 0.914,-1.878 1.614,-3.156 l 5.523,0 q 0.389,2.672 0.72,5.983 0.33,3.311 0.583,6.894 0.253,3.582 0.467,7.184 0.214,3.601 0.369,6.777 l -5.912,0 q -0.116,-3.912 -0.311,-8.52 -0.194,-4.609 -0.583,-9.295 -0.7,1.627 -1.556,3.602 -0.856,1.975 -1.692,3.95 -0.836,1.975 -1.614,3.776 -0.778,1.801 -1.322,3.079 l -4.24,0 q -0.544,-1.278 -1.322,-3.079 -0.778,-1.801 -1.614,-3.776 -0.837,-1.975 -1.692,-3.95 -0.856,-1.975 -1.556,-3.602 -0.389,4.686 -0.583,9.295 -0.195,4.608 -0.312,8.52 l -5.911,0 q 0.155,-3.176 0.369,-6.777 0.214,-3.602 0.467,-7.184 0.253,-3.583 0.583,-6.894 0.331,-3.311 0.72,-5.983 z"
         id="path14" />
      <path
         style="fill:#202830;fill-opacity:1"
         inkscape:connector-curvature="0"
         d="m 202.996,1038.3812 q 0,1.975 0.486,3.563 0.486,1.588 1.4,2.731 0.914,1.142 2.236,1.762 1.323,0.619 3.034,0.619 1.673,0 3.014,-0.619 1.342,-0.62 2.256,-1.762 0.914,-1.143 1.4,-2.731 0.487,-1.588 0.487,-3.563 0,-1.975 -0.487,-3.582 -0.486,-1.607 -1.4,-2.75 -0.914,-1.142 -2.256,-1.762 -1.341,-0.619 -3.014,-0.619 -1.711,0 -3.034,0.639 -1.322,0.639 -2.236,1.781 -0.914,1.143 -1.4,2.75 -0.486,1.607 -0.486,3.543 z m 20.575,0 q 0,3.447 -1.031,6.061 -1.031,2.614 -2.82,4.376 -1.789,1.763 -4.259,2.653 -2.47,0.891 -5.309,0.891 -2.761,0 -5.212,-0.891 -2.45,-0.89 -4.278,-2.653 -1.828,-1.762 -2.878,-4.376 -1.05,-2.614 -1.05,-6.061 0,-3.446 1.089,-6.06 1.089,-2.615 2.936,-4.396 1.848,-1.782 4.279,-2.672 2.43,-0.891 5.114,-0.891 2.762,0 5.212,0.891 2.45,0.89 4.278,2.672 1.828,1.781 2.878,4.396 1.051,2.614 1.051,6.06 z"
         id="path16" />
      <path
         style="fill:#202830;fill-opacity:1"
         inkscape:connector-curvature="0"
         d="m 246.713,1051.8202 q -2.606,-4.609 -5.64,-9.101 -3.034,-4.493 -6.456,-8.481 l 0,17.582 -5.99,0 0,-26.838 4.939,0 q 1.284,1.278 2.84,3.137 1.556,1.858 3.17,3.969 1.614,2.111 3.208,4.376 1.595,2.266 2.995,4.357 l 0,-15.839 6.029,0 0,26.838 z"
         id="path18" />
      <path
         style="fill:#202830;fill-opacity:1"
         inkscape:connector-curvature="0"
         d="m 265.382,1047.2112 q 1.283,0 2.12,-0.213 0.836,-0.213 1.341,-0.581 0.506,-0.368 0.701,-0.871 0.194,-0.504 0.194,-1.123 0,-1.317 -1.245,-2.188 -1.244,-0.872 -4.278,-1.879 -1.322,-0.464 -2.645,-1.065 -1.322,-0.6 -2.372,-1.51 -1.05,-0.91 -1.712,-2.207 -0.661,-1.298 -0.661,-3.157 0,-1.859 0.7,-3.35 0.7,-1.491 1.984,-2.536 1.283,-1.046 3.111,-1.607 1.828,-0.562 4.123,-0.562 2.723,0 4.706,0.581 1.984,0.581 3.267,1.278 l -1.75,4.763 q -1.128,-0.581 -2.508,-1.026 -1.381,-0.445 -3.326,-0.445 -2.178,0 -3.131,0.6 -0.953,0.6 -0.953,1.84 0,0.735 0.35,1.239 0.35,0.503 0.992,0.91 0.642,0.407 1.478,0.736 0.836,0.329 1.848,0.678 2.1,0.774 3.656,1.529 1.555,0.755 2.586,1.762 1.031,1.007 1.536,2.363 0.506,1.355 0.506,3.292 0,3.756 -2.645,5.828 -2.645,2.072 -7.973,2.072 -1.789,0 -3.228,-0.213 -1.439,-0.213 -2.548,-0.523 -1.108,-0.31 -1.906,-0.658 -0.797,-0.349 -1.342,-0.659 l 1.712,-4.802 q 1.206,0.659 2.975,1.181 1.77,0.523 4.337,0.523 z"
         id="path20" />
      <path
         style="fill:#202830;fill-opacity:1"
         inkscape:connector-curvature="0"
         d="m 84.475,1017.9942 q -2.794,0 -5.09,-0.899 -2.296,-0.899 -3.941,-2.623 -1.645,-1.723 -2.545,-4.252 -0.899,-2.528 -0.899,-5.787 0,-3.259 1.014,-5.78802 1.014,-2.529 2.736,-4.252 1.722,-1.723 4.018,-2.622 2.296,-0.899 4.898,-0.899 1.646,0 2.966,0.225 1.32,0.224 2.296,0.524 0.976,0.3 1.588,0.599 0.612,0.3 0.842,0.45 l -1.072,2.997 q -0.344,-0.225 -0.994,-0.487 -0.651,-0.262 -1.474,-0.525 -0.823,-0.262 -1.798,-0.43 -0.976,-0.169 -1.971,-0.169 -2.105,0 -3.788,0.712 -1.684,0.712 -2.87,2.06 -1.187,1.349 -1.818,3.27802 -0.632,1.929 -0.632,4.327 0,2.322 0.555,4.233 0.555,1.91 1.665,3.278 1.11,1.367 2.774,2.116 1.665,0.749 3.884,0.749 2.564,0 4.248,-0.524 1.684,-0.524 2.526,-0.937 l 0.956,2.997 q -0.268,0.188 -0.956,0.469 -0.689,0.281 -1.722,0.543 -1.034,0.262 -2.411,0.449 -1.378,0.188 -2.985,0.188 z"
         id="path22" />
      <path
         style="fill:#202830;fill-opacity:1"
         inkscape:connector-curvature="0"
         d="m 96.567,1017.4322 0,-28.47102 3.559,-0.599 0,9.965 q 0.995,-0.375 2.124,-0.581 1.129,-0.206 2.238,-0.206 2.373,0 3.942,0.656 1.569,0.655 2.506,1.83502 0.938,1.18 1.321,2.828 0.382,1.649 0.382,3.634 l 0,10.939 -3.559,0 0,-10.19 q 0,-1.798 -0.248,-3.071 -0.249,-1.274 -0.823,-2.061 -0.574,-0.787 -1.531,-1.142 -0.956,-0.356 -2.372,-0.356 -0.574,0 -1.186,0.075 -0.613,0.075 -1.168,0.168 -0.554,0.094 -0.995,0.206 -0.44,0.113 -0.631,0.188 l 0,16.183 z"
         id="path24" />
      <path
         style="fill:#202830;fill-opacity:1"
         inkscape:connector-curvature="0"
         d="m 117.308,1007.7292 q 0,-2.584 0.765,-4.514 0.765,-1.929 2.028,-3.203 1.263,-1.27302 2.909,-1.91002 1.645,-0.637 3.367,-0.637 4.018,0 6.161,2.454 2.143,2.45302 2.143,7.47302 0,0.225 0,0.581 0,0.356 -0.038,0.655 l -13.623,0 q 0.229,3.035 1.798,4.608 1.569,1.573 4.898,1.573 1.875,0 3.157,-0.318 1.282,-0.318 1.933,-0.618 l 0.497,2.922 q -0.65,0.337 -2.277,0.712 -1.626,0.374 -3.692,0.374 -2.602,0 -4.497,-0.768 -1.894,-0.768 -3.118,-2.116 -1.225,-1.349 -1.818,-3.203 -0.593,-1.854 -0.593,-4.065 z m 13.661,-1.91 q 0.038,-2.36 -1.205,-3.877 -1.244,-1.518 -3.425,-1.518 -1.225,0 -2.162,0.469 -0.938,0.468 -1.588,1.217 -0.651,0.749 -1.014,1.723 -0.364,0.974 -0.479,1.986 z"
         id="path26" />
      <path
         style="fill:#202830;fill-opacity:1"
         inkscape:connector-curvature="0"
         d="m 144.439,1014.9222 q 2.181,0 3.233,-0.562 1.053,-0.562 1.053,-1.798 0,-1.274 -1.033,-2.023 -1.034,-0.749 -3.406,-1.686 -1.148,-0.449 -2.2,-0.918 -1.053,-0.468 -1.818,-1.105 -0.765,-0.637 -1.225,-1.536 -0.459,-0.899 -0.459,-2.21 0,-2.585 1.952,-4.10202 1.951,-1.517 5.319,-1.517 0.842,0 1.684,0.094 0.841,0.093 1.568,0.224 0.728,0.132 1.282,0.281 0.555,0.15 0.861,0.263 l -0.65,2.99602 q -0.574,-0.299 -1.799,-0.618 -1.224,-0.318 -2.946,-0.318 -1.493,0 -2.602,0.581 -1.11,0.58 -1.11,1.816 0,0.637 0.249,1.124 0.248,0.487 0.765,0.881 0.517,0.393 1.282,0.73 0.765,0.337 1.837,0.712 1.416,0.524 2.525,1.03 1.11,0.506 1.895,1.18 0.784,0.674 1.205,1.63 0.421,0.955 0.421,2.341 0,2.697 -2.047,4.083 -2.048,1.386 -5.836,1.386 -2.64,0 -4.133,-0.431 -1.492,-0.43 -2.028,-0.655 l 0.651,-2.997 q 0.612,0.225 1.951,0.674 1.339,0.45 3.559,0.45 z"
         id="path28" />
      <path
         style="fill:#202830;fill-opacity:1"
         inkscape:connector-curvature="0"
         d="m 163.611,1014.9222 q 1.262,0 2.238,-0.056 0.976,-0.057 1.627,-0.206 l 0,-5.807 q -0.383,-0.187 -1.244,-0.318 -0.861,-0.131 -2.086,-0.131 -0.803,0 -1.703,0.112 -0.899,0.112 -1.645,0.468 -0.746,0.356 -1.244,0.974 -0.497,0.618 -0.497,1.63 0,1.873 1.224,2.603 1.225,0.731 3.33,0.731 z m -0.307,-17.45702 q 2.143,0 3.617,0.543 1.473,0.543 2.372,1.536 0.899,0.99302 1.282,2.36002 0.383,1.367 0.383,3.016 l 0,12.175 q -0.459,0.074 -1.282,0.206 -0.823,0.131 -1.856,0.243 -1.033,0.112 -2.239,0.206 -1.205,0.094 -2.391,0.094 -1.684,0 -3.1,-0.337 -1.416,-0.338 -2.449,-1.068 -1.033,-0.73 -1.607,-1.929 -0.574,-1.199 -0.574,-2.885 0,-1.611 0.669,-2.772 0.67,-1.161 1.818,-1.873 1.148,-0.712 2.679,-1.049 1.53,-0.337 3.214,-0.337 0.536,0 1.11,0.056 0.574,0.056 1.091,0.15 0.516,0.094 0.899,0.169 0.382,0.075 0.536,0.112 l 0,-0.974 q 0,-0.862 -0.192,-1.704 -0.191,-0.843 -0.689,-1.499 -0.497,-0.655 -1.358,-1.049 -0.861,-0.393 -2.239,-0.393 -1.76,0 -3.08,0.243 -1.32,0.244 -1.971,0.506 l -0.421,-2.88402 q 0.689,-0.3 2.296,-0.581 1.607,-0.281 3.482,-0.281 z"
         id="path30" />
      <path
         style="fill:#202830;fill-opacity:1"
         inkscape:connector-curvature="0"
         d="m 190.665,1007.7292 q 0,-3.409 -1.722,-5.244 -1.722,-1.836 -4.592,-1.836 -1.607,0 -2.506,0.113 -0.9,0.112 -1.435,0.262 l 0,12.287 q 0.65,0.524 1.875,1.011 1.224,0.487 2.678,0.487 1.531,0 2.622,-0.543 1.09,-0.543 1.779,-1.498 0.689,-0.955 0.995,-2.248 0.306,-1.292 0.306,-2.791 z m 3.712,0 q 0,2.211 -0.593,4.084 -0.593,1.873 -1.741,3.221 -1.148,1.349 -2.813,2.098 -1.664,0.749 -3.807,0.749 -1.722,0 -3.043,-0.449 -1.32,-0.45 -1.97,-0.862 l 0,7.792 -3.559,0 0,-25.81102 q 1.263,-0.299 3.157,-0.655 1.894,-0.356 4.381,-0.356 2.296,0 4.133,0.712 1.837,0.711 3.138,2.02302 1.301,1.311 2.009,3.203 0.708,1.891 0.708,4.251 z"
         id="path32" />
      <path
         style="fill:#202830;fill-opacity:1"
         inkscape:connector-curvature="0"
         d="m 198.28,1007.7292 q 0,-2.584 0.766,-4.514 0.765,-1.929 2.028,-3.203 1.263,-1.27302 2.908,-1.91002 1.645,-0.637 3.367,-0.637 4.018,0 6.161,2.454 2.143,2.45302 2.143,7.47302 0,0.225 0,0.581 0,0.356 -0.038,0.655 l -13.623,0 q 0.23,3.035 1.799,4.608 1.569,1.573 4.898,1.573 1.875,0 3.157,-0.318 1.282,-0.318 1.932,-0.618 l 0.498,2.922 q -0.651,0.337 -2.277,0.712 -1.626,0.374 -3.693,0.374 -2.602,0 -4.496,-0.768 -1.894,-0.768 -3.119,-2.116 -1.224,-1.349 -1.818,-3.203 -0.593,-1.854 -0.593,-4.065 z m 13.661,-1.91 q 0.039,-2.36 -1.205,-3.877 -1.244,-1.518 -3.425,-1.518 -1.224,0 -2.162,0.469 -0.937,0.468 -1.588,1.217 -0.65,0.749 -1.014,1.723 -0.364,0.974 -0.478,1.986 z"
         id="path34" />
      <path
         style="fill:#202830;fill-opacity:1"
         inkscape:connector-curvature="0"
         d="m 227.516,1014.9222 q 1.263,0 2.239,-0.056 0.975,-0.057 1.626,-0.206 l 0,-5.807 q -0.383,-0.187 -1.244,-0.318 -0.861,-0.131 -2.085,-0.131 -0.804,0 -1.703,0.112 -0.899,0.112 -1.646,0.468 -0.746,0.356 -1.243,0.974 -0.498,0.618 -0.498,1.63 0,1.873 1.225,2.603 1.224,0.731 3.329,0.731 z m -0.306,-17.45702 q 2.143,0 3.616,0.543 1.473,0.543 2.373,1.536 0.899,0.99302 1.282,2.36002 0.382,1.367 0.382,3.016 l 0,12.175 q -0.459,0.074 -1.282,0.206 -0.822,0.131 -1.856,0.243 -1.033,0.112 -2.238,0.206 -1.206,0.094 -2.392,0.094 -1.684,0 -3.1,-0.337 -1.415,-0.338 -2.449,-1.068 -1.033,-0.73 -1.607,-1.929 -0.574,-1.199 -0.574,-2.885 0,-1.611 0.67,-2.772 0.67,-1.161 1.818,-1.873 1.148,-0.712 2.678,-1.049 1.531,-0.337 3.215,-0.337 0.535,0 1.109,0.056 0.574,0.056 1.091,0.15 0.517,0.094 0.899,0.169 0.383,0.075 0.536,0.112 l 0,-0.974 q 0,-0.862 -0.191,-1.704 -0.192,-0.843 -0.689,-1.499 -0.498,-0.655 -1.359,-1.049 -0.861,-0.393 -2.238,-0.393 -1.761,0 -3.081,0.243 -1.32,0.244 -1.97,0.506 l -0.421,-2.88402 q 0.688,-0.3 2.296,-0.581 1.607,-0.281 3.482,-0.281 z"
         id="path36" />
      <path
         style="fill:#202830;fill-opacity:1"
         inkscape:connector-curvature="0"
         d="m 247.95,1006.7182 q 1.148,0.861 2.43,2.135 1.282,1.274 2.526,2.754 1.244,1.479 2.353,2.996 1.11,1.518 1.875,2.829 l -4.171,0 q -0.803,-1.311 -1.856,-2.679 -1.052,-1.367 -2.2,-2.622 -1.148,-1.255 -2.334,-2.304 -1.186,-1.049 -2.258,-1.761 l 0,9.366 -3.559,0 0,-28.47102 3.559,-0.599 0,17.75702 q 0.919,-0.9 2.028,-1.986 1.11,-1.086 2.181,-2.21 1.072,-1.124 2.029,-2.15402 0.956,-1.03 1.645,-1.817 l 4.171,0 q -0.88,0.937 -1.913,2.06002 -1.033,1.124 -2.143,2.267 -1.11,1.142 -2.239,2.285 -1.129,1.142 -2.124,2.154 z"
         id="path38" />
      <path
         style="fill:#202830;fill-opacity:1"
         inkscape:connector-curvature="0"
         d="m 258.627,1007.7292 q 0,-2.584 0.765,-4.514 0.766,-1.929 2.028,-3.203 1.263,-1.27302 2.909,-1.91002 1.645,-0.637 3.367,-0.637 4.018,0 6.161,2.454 2.143,2.45302 2.143,7.47302 0,0.225 0,0.581 0,0.356 -0.038,0.655 l -13.623,0 q 0.229,3.035 1.798,4.608 1.569,1.573 4.898,1.573 1.876,0 3.157,-0.318 1.282,-0.318 1.933,-0.618 l 0.497,2.922 q -0.65,0.337 -2.276,0.712 -1.627,0.374 -3.693,0.374 -2.602,0 -4.497,-0.768 -1.894,-0.768 -3.118,-2.116 -1.225,-1.349 -1.818,-3.203 -0.593,-1.854 -0.593,-4.065 z m 13.661,-1.91 q 0.038,-2.36 -1.205,-3.877 -1.244,-1.518 -3.425,-1.518 -1.225,0 -2.162,0.469 -0.938,0.468 -1.588,1.217 -0.651,0.749 -1.014,1.723 -0.364,0.974 -0.479,1.986 z"
         id="path40" />
    </g>
  </g>
</svg>
