<?xml version="1.0" encoding="UTF-8" standalone="no"?>
<!-- Created with Inkscape (http://www.inkscape.org/) -->

<svg
   xmlns:dc="http://purl.org/dc/elements/1.1/"
   xmlns:cc="http://creativecommons.org/ns#"
   xmlns:rdf="http://www.w3.org/1999/02/22-rdf-syntax-ns#"
   xmlns:svg="http://www.w3.org/2000/svg"
   xmlns="http://www.w3.org/2000/svg"
   xmlns:sodipodi="http://sodipodi.sourceforge.net/DTD/sodipodi-0.dtd"
   xmlns:inkscape="http://www.inkscape.org/namespaces/inkscape"
   width="64"
   height="192"
   id="svg3828"
   version="1.1"
   inkscape:version="0.48.2 r9819"
   sodipodi:docname="p-glyphs.svg">
  <defs
     id="defs3830" />
  <sodipodi:namedview
     id="base"
     pagecolor="#ffffff"
     bordercolor="#666666"
     borderopacity="1.0"
     inkscape:pageopacity="0.0"
     inkscape:pageshadow="2"
     inkscape:zoom="12.390625"
     inkscape:cx="28.217873"
     inkscape:cy="23.307518"
     inkscape:document-units="px"
     inkscape:current-layer="layer1"
     showgrid="false"
     inkscape:showpageshadow="false"
     inkscape:window-width="1280"
     inkscape:window-height="671"
     inkscape:window-x="0"
     inkscape:window-y="0"
     inkscape:window-maximized="0"
     fit-margin-top="0"
     fit-margin-left="0"
     fit-margin-right="0"
     fit-margin-bottom="0" />
  <metadata
     id="metadata3833">
    <rdf:RDF>
      <cc:Work
         rdf:about="">
        <dc:format>image/svg+xml</dc:format>
        <dc:type
           rdf:resource="http://purl.org/dc/dcmitype/StillImage" />
        <dc:title></dc:title>
      </cc:Work>
    </rdf:RDF>
  </metadata>
  <g
     inkscape:label="Layer 1"
     inkscape:groupmode="layer"
     id="layer1"
     transform="translate(-4.9999999e-7,-924.3622)">
    <path
       sodipodi:type="arc"
       style="fill:#ffffff;fill-opacity:1;stroke:none"
       id="path4504-9"
       sodipodi:cx="-6.9642859"
       sodipodi:cy="35.25"
       sodipodi:rx="11.25"
       sodipodi:ry="12.678572"
       d="m 4.2857141,35.25 a 11.25,12.678572 0 1 1 -22.5000001,0 11.25,12.678572 0 1 1 22.5000001,0 z"
       transform="matrix(2.8222223,0,0,2.5239438,51.404763,931.39318)" />
    <path
       sodipodi:type="arc"
       style="fill:#1878b8;fill-opacity:1;stroke:none"
       id="path4504"
       sodipodi:cx="-6.9642859"
       sodipodi:cy="35.25"
       sodipodi:rx="11.25"
       sodipodi:ry="12.678572"
       d="m 4.2857141,35.25 a 11.25,12.678572 0 1 1 -22.5000001,0 11.25,12.678572 0 1 1 22.5000001,0 z"
       transform="matrix(2.4888889,0,0,2.2084508,49.333334,942.51431)" />
    <rect
       style="fill:#ffffff;fill-opacity:1;stroke:none"
       id="rect3789"
       width="8"
       height="12"
       x="18"
       y="1018.3622"
       rx="2"
       ry="2" />
    <rect
       style="fill:#ffffff;fill-opacity:1;stroke:none"
       id="rect3789-5"
       width="8"
       height="16"
       x="28"
       y="1014.3622"
       rx="2"
       ry="2" />
    <rect
       style="fill:#ffffff;fill-opacity:1;stroke:none"
       id="rect3789-3"
       width="8"
       height="20"
       x="38"
       y="1010.3622"
       rx="2"
       ry="2" />
    <path
       sodipodi:type="arc"
       style="fill:#ffffff;fill-opacity:1;stroke:none"
       id="path4504-9-3"
       sodipodi:cx="-6.9642859"
       sodipodi:cy="35.25"
       sodipodi:rx="11.25"
       sodipodi:ry="12.678572"
       d="m 4.2857141,35.25 a 11.25,12.678572 0 1 1 -22.5000001,0 11.25,12.678572 0 1 1 22.5000001,0 z"
       transform="matrix(2.8444444,0,0,2.5239438,51.809524,867.39318)" />
    <path
       sodipodi:type="arc"
       style="fill:#1878b8;fill-opacity:1;stroke:none"
       id="path4504-1"
       sodipodi:cx="-6.9642859"
       sodipodi:cy="35.25"
       sodipodi:rx="11.25"
       sodipodi:ry="12.678572"
       d="m 4.2857141,35.25 a 11.25,12.678572 0 1 1 -22.5000001,0 11.25,12.678572 0 1 1 22.5000001,0 z"
       transform="matrix(2.4888889,0,0,2.2084508,49.333334,878.51431)" />
    <path
       style="fill:#ffffff;fill-opacity:1;stroke:none"
       d="m 18,950.36219 8,-3.99998 0,16 -8,3.99998 z"
       id="rect3789-6"
       inkscape:connector-curvature="0"
       sodipodi:nodetypes="ccccc" />
    <path
       style="fill:#ffffff;fill-opacity:1;stroke:none"
       d="m 28,946.36221 8,3.99998 0,16 -8,-3.99998 z"
       id="rect3789-5-9"
       inkscape:connector-curvature="0"
       sodipodi:nodetypes="ccccc" />
    <path
       style="fill:#ffffff;fill-opacity:1;stroke:none"
       d="m 38,950.36219 8,-3.99998 0,16 -8,3.99998 z"
       id="rect3789-3-1"
       inkscape:connector-curvature="0"
       sodipodi:nodetypes="ccccc" />
    <path
       sodipodi:type="arc"
       style="fill:#ffffff;fill-opacity:1;stroke:none"
       id="path4504-9-0"
       sodipodi:cx="-6.9642859"
       sodipodi:cy="35.25"
       sodipodi:rx="11.25"
       sodipodi:ry="12.678572"
       d="m 4.2857141,35.25 a 11.25,12.678572 0 1 1 -22.5000001,0 11.25,12.678572 0 1 1 22.5000001,0 z"
       transform="matrix(2.8444444,0,0,2.5239438,51.809524,995.39318)" />
    <path
       sodipodi:type="arc"
       style="fill:#1878b8;fill-opacity:1;stroke:none"
       id="path4504-6"
       sodipodi:cx="-6.9642859"
       sodipodi:cy="35.25"
       sodipodi:rx="11.25"
       sodipodi:ry="12.678572"
       d="m 4.2857141,35.25 a 11.25,12.678572 0 1 1 -22.5000001,0 11.25,12.678572 0 1 1 22.5000001,0 z"
       transform="matrix(2.4888889,0,0,2.2084508,49.333334,1006.5143)" />
    <rect
       style="fill:#ffffff;fill-opacity:1;stroke:none"
       id="rect3789-3-0"
       width="8"
       height="17"
       x="1086.3622"
       y="-41"
       rx="2"
       ry="1.4166666"
       transform="matrix(0,1,-1,0,0,0)" />
    <path
       sodipodi:type="arc"
       style="fill:#ffffff;fill-opacity:1;stroke:none"
       id="path3915"
       sodipodi:cx="-12.232142"
       sodipodi:cy="156.28572"
       sodipodi:rx="9.1964283"
       sodipodi:ry="9.6428576"
       d="m -3.0357141,156.28572 a 9.1964283,9.6428576 0 1 1 -18.3928569,0 9.1964283,9.6428576 0 1 1 18.3928569,0 z"
       transform="matrix(0.76116507,0,0,0.72592589,34.31068,973.91029)" />
    <path
       sodipodi:type="arc"
       style="fill:#ffffff;fill-opacity:1;stroke:none"
       id="path3915-0"
       sodipodi:cx="-12.232142"
       sodipodi:cy="156.28572"
       sodipodi:rx="9.1964283"
       sodipodi:ry="9.6428576"
       d="m -3.0357141,156.28572 a 9.1964283,9.6428576 0 1 1 -18.3928569,0 9.1964283,9.6428576 0 1 1 18.3928569,0 z"
       transform="matrix(0.6524272,0,0,0.62222219,47.980583,991.1177)" />
    <path
       sodipodi:type="arc"
       style="fill:#ffffff;fill-opacity:1;stroke:none"
       id="path3915-2"
       sodipodi:cx="-12.232142"
       sodipodi:cy="156.28572"
       sodipodi:rx="9.1964283"
       sodipodi:ry="9.6428576"
       d="m -3.0357141,156.28572 a 9.1964283,9.6428576 0 1 1 -18.3928569,0 9.1964283,9.6428576 0 1 1 18.3928569,0 z"
       transform="matrix(0.86990294,0,0,0.82962959,42.105062,952.7029)" />
    <rect
       style="fill:#1878b8;fill-opacity:1;stroke:none"
       id="rect3955"
       width="4"
       height="10"
       x="30"
       y="1086.3622" />
    <path
       sodipodi:type="star"
       style="fill:#1878b8;fill-opacity:1;stroke:#1878b8;stroke-width:1.10516810000000021;stroke-linecap:round;stroke-linejoin:round;stroke-miterlimit:4;stroke-opacity:1;stroke-dasharray:none"
       id="path3957"
       sodipodi:sides="3"
       sodipodi:cx="-9.1071424"
       sodipodi:cy="156.91071"
       sodipodi:r1="6.7909989"
       sodipodi:r2="3.3954995"
       sodipodi:arg1="0.52359878"
       sodipodi:arg2="1.5707963"
       inkscape:flatsided="true"
       inkscape:rounded="0"
       inkscape:randomized="0"
       d="m -3.2259649,160.30621 -11.7623551,0 5.8811776,-10.1865 z"
       transform="matrix(0.78997785,0,0,0.5195112,39.194441,1004.7273)"
       inkscape:transform-center-y="-0.88203587" />
  </g>
</svg>
