<?xml version="1.0" encoding="UTF-8" standalone="no"?>
<!-- Created with Inkscape (http://www.inkscape.org/) -->

<svg
   xmlns:dc="http://purl.org/dc/elements/1.1/"
   xmlns:cc="http://creativecommons.org/ns#"
   xmlns:rdf="http://www.w3.org/1999/02/22-rdf-syntax-ns#"
   xmlns:svg="http://www.w3.org/2000/svg"
   xmlns="http://www.w3.org/2000/svg"
   xmlns:sodipodi="http://sodipodi.sourceforge.net/DTD/sodipodi-0.dtd"
   xmlns:inkscape="http://www.inkscape.org/namespaces/inkscape"
   width="64"
   height="191.99998"
   id="svg2"
   version="1.1"
   inkscape:version="0.48.2 r9819"
   sodipodi:docname="project-glyph.svg">
  <defs
     id="defs4" />
  <sodipodi:namedview
     id="base"
     pagecolor="#ffffff"
     bordercolor="#666666"
     borderopacity="1.0"
     inkscape:pageopacity="0.0"
     inkscape:pageshadow="2"
     inkscape:zoom="5.6"
     inkscape:cx="31.292518"
     inkscape:cy="84.080426"
     inkscape:document-units="px"
     inkscape:current-layer="layer1"
     showgrid="false"
     inkscape:showpageshadow="false"
     fit-margin-top="0"
     fit-margin-left="0"
     fit-margin-right="0"
     fit-margin-bottom="0"
     inkscape:window-width="1280"
     inkscape:window-height="678"
     inkscape:window-x="0"
     inkscape:window-y="0"
     inkscape:window-maximized="0" />
  <metadata
     id="metadata7">
    <rdf:RDF>
      <cc:Work
         rdf:about="">
        <dc:format>image/svg+xml</dc:format>
        <dc:type
           rdf:resource="http://purl.org/dc/dcmitype/StillImage" />
        <dc:title></dc:title>
      </cc:Work>
    </rdf:RDF>
  </metadata>
  <g
     inkscape:label="Layer 1"
     inkscape:groupmode="layer"
     id="layer1"
     transform="translate(1.1254059e-6,-860.36219)">
    <g
       id="g3890">
      <path
         transform="matrix(1.5515152,0,0,1.7148321,-10.805196,832.6799)"
         d="m 48.214285,34.80357 a 20.625,18.660715 0 1 1 -41.2500001,0 20.625,18.660715 0 1 1 41.2500001,0 z"
         sodipodi:ry="18.660715"
         sodipodi:rx="20.625"
         sodipodi:cy="34.80357"
         sodipodi:cx="27.589285"
         id="path2985-6-6-6"
         style="fill:#ffffff;fill-opacity:1;stroke:none"
         sodipodi:type="arc" />
      <path
         transform="matrix(1.3575758,0,0,1.5004782,-5.4545458,840.14018)"
         d="m 48.214285,34.80357 a 20.625,18.660715 0 1 1 -41.2500001,0 20.625,18.660715 0 1 1 41.2500001,0 z"
         sodipodi:ry="18.660715"
         sodipodi:rx="20.625"
         sodipodi:cy="34.80357"
         sodipodi:cx="27.589285"
         id="path2985-5"
         style="fill:#20d868;fill-opacity:1;stroke:none"
         sodipodi:type="arc" />
      <path
         transform="matrix(1.1636364,0,0,1.2861241,-0.1038964,847.60047)"
         d="m 48.214285,34.80357 a 20.625,18.660715 0 1 1 -41.2500001,0 20.625,18.660715 0 1 1 41.2500001,0 z"
         sodipodi:ry="18.660715"
         sodipodi:rx="20.625"
         sodipodi:cy="34.80357"
         sodipodi:cx="27.589285"
         id="path2985-6-6"
         style="fill:#ffffff;fill-opacity:1;stroke:none"
         sodipodi:type="arc" />
      <path
         transform="matrix(0.96969697,0,0,1.07177,5.2467537,855.06076)"
         d="m 48.214285,34.80357 a 20.625,18.660715 0 1 1 -41.2500001,0 20.625,18.660715 0 1 1 41.2500001,0 z"
         sodipodi:ry="18.660715"
         sodipodi:rx="20.625"
         sodipodi:cy="34.80357"
         sodipodi:cx="27.589285"
         id="path2985-6-2-3"
         style="fill:#20d868;fill-opacity:1;stroke:none"
         sodipodi:type="arc" />
    </g>
    <path
       sodipodi:type="arc"
       style="fill:#ffffff;fill-opacity:1;stroke:none"
       id="path2985-6-6-6-4"
       sodipodi:cx="27.589285"
       sodipodi:cy="34.80357"
       sodipodi:rx="20.625"
       sodipodi:ry="18.660715"
       d="m 48.214285,34.80357 a 20.625,18.660715 0 1 1 -41.2500001,0 20.625,18.660715 0 1 1 41.2500001,0 z"
       transform="matrix(1.5515152,0,0,1.7148321,-10.805196,896.6799)" />
    <path
       sodipodi:type="arc"
       style="fill:#d86820;fill-opacity:1;stroke:none"
       id="path2985-5-7"
       sodipodi:cx="27.589285"
       sodipodi:cy="34.80357"
       sodipodi:rx="20.625"
       sodipodi:ry="18.660715"
       d="m 48.214285,34.80357 a 20.625,18.660715 0 1 1 -41.2500001,0 20.625,18.660715 0 1 1 41.2500001,0 z"
       transform="matrix(1.3575758,0,0,1.5004782,-5.4545458,904.14018)" />
    <path
       sodipodi:type="arc"
       style="fill:#ffffff;fill-opacity:1;stroke:none"
       id="path2985-6-6-9"
       sodipodi:cx="27.589285"
       sodipodi:cy="34.80357"
       sodipodi:rx="20.625"
       sodipodi:ry="18.660715"
       d="m 48.214285,34.80357 a 20.625,18.660715 0 1 1 -41.2500001,0 20.625,18.660715 0 1 1 41.2500001,0 z"
       transform="matrix(1.1636364,0,0,1.2861241,-0.1038964,911.60047)" />
    <path
       sodipodi:type="arc"
       style="fill:#d86820;fill-opacity:1;stroke:none"
       id="path2985-6-2-3-5"
       sodipodi:cx="27.589285"
       sodipodi:cy="34.80357"
       sodipodi:rx="20.625"
       sodipodi:ry="18.660715"
       d="m 48.214285,34.80357 a 20.625,18.660715 0 1 1 -41.2500001,0 20.625,18.660715 0 1 1 41.2500001,0 z"
       transform="matrix(0.96969697,0,0,1.07177,5.2467537,919.06076)" />
    <path
       sodipodi:type="arc"
       style="fill:#ffffff;fill-opacity:1;stroke:none"
       id="path2985-6-6-6-3"
       sodipodi:cx="27.589285"
       sodipodi:cy="34.80357"
       sodipodi:rx="20.625"
       sodipodi:ry="18.660715"
       d="m 48.214285,34.80357 a 20.625,18.660715 0 1 1 -41.2500001,0 20.625,18.660715 0 1 1 41.2500001,0 z"
       transform="matrix(1.5515152,0,0,1.7148321,-10.805196,960.6799)" />
    <path
       sodipodi:type="arc"
       style="fill:#c420d8;fill-opacity:1;stroke:none"
       id="path2985-5-8"
       sodipodi:cx="27.589285"
       sodipodi:cy="34.80357"
       sodipodi:rx="20.625"
       sodipodi:ry="18.660715"
       d="m 48.214285,34.80357 a 20.625,18.660715 0 1 1 -41.2500001,0 20.625,18.660715 0 1 1 41.2500001,0 z"
       transform="matrix(1.3575758,0,0,1.5004782,-5.4545458,968.14018)" />
    <path
       sodipodi:type="arc"
       style="fill:#ffffff;fill-opacity:1;stroke:none"
       id="path2985-6-6-8"
       sodipodi:cx="27.589285"
       sodipodi:cy="34.80357"
       sodipodi:rx="20.625"
       sodipodi:ry="18.660715"
       d="m 48.214285,34.80357 a 20.625,18.660715 0 1 1 -41.2500001,0 20.625,18.660715 0 1 1 41.2500001,0 z"
       transform="matrix(1.1636364,0,0,1.2861241,-0.1038964,975.60047)" />
    <path
       sodipodi:type="arc"
       style="fill:#c420d8;fill-opacity:1;stroke:none"
       id="path2985-6-2-3-9"
       sodipodi:cx="27.589285"
       sodipodi:cy="34.80357"
       sodipodi:rx="20.625"
       sodipodi:ry="18.660715"
       d="m 48.214285,34.80357 a 20.625,18.660715 0 1 1 -41.2500001,0 20.625,18.660715 0 1 1 41.2500001,0 z"
       transform="matrix(0.96969697,0,0,1.07177,5.2467537,983.06076)" />
  </g>
</svg>
