<?xml version="1.0" encoding="UTF-8" standalone="no"?>
<!-- Created with Inkscape (http://www.inkscape.org/) -->

<svg
   xmlns:dc="http://purl.org/dc/elements/1.1/"
   xmlns:cc="http://creativecommons.org/ns#"
   xmlns:rdf="http://www.w3.org/1999/02/22-rdf-syntax-ns#"
   xmlns:svg="http://www.w3.org/2000/svg"
   xmlns="http://www.w3.org/2000/svg"
   xmlns:sodipodi="http://sodipodi.sourceforge.net/DTD/sodipodi-0.dtd"
   xmlns:inkscape="http://www.inkscape.org/namespaces/inkscape"
   width="320"
   height="200"
   id="svg3242"
   version="1.1"
   inkscape:version="0.48.2 r9819"
   sodipodi:docname="browser-window-light.svg">
  <defs
     id="defs3244" />
  <sodipodi:namedview
     id="base"
     pagecolor="#ffffff"
     bordercolor="#666666"
     borderopacity="1.0"
     inkscape:pageopacity="0.0"
     inkscape:pageshadow="2"
     inkscape:zoom="3.959798"
     inkscape:cx="-10.607234"
     inkscape:cy="147.79917"
     inkscape:document-units="px"
     inkscape:current-layer="layer1"
     showgrid="false"
     fit-margin-top="0"
     fit-margin-left="0"
     fit-margin-right="0"
     fit-margin-bottom="0"
     inkscape:showpageshadow="false"
     inkscape:window-width="1280"
     inkscape:window-height="682"
     inkscape:window-x="0"
     inkscape:window-y="0"
     inkscape:window-maximized="0" />
  <metadata
     id="metadata3247">
    <rdf:RDF>
      <cc:Work
         rdf:about="">
        <dc:format>image/svg+xml</dc:format>
        <dc:type
           rdf:resource="http://purl.org/dc/dcmitype/StillImage" />
        <dc:title />
      </cc:Work>
    </rdf:RDF>
  </metadata>
  <g
     inkscape:label="Layer 1"
     inkscape:groupmode="layer"
     id="layer1"
     transform="translate(-131.42857,-329.50504)">
    <rect
       style="fill:#c8d0d8;fill-opacity:1;stroke:none"
       id="rect2985-8-1-7"
       width="320"
       height="200"
       x="131.42857"
       y="329.50504"
       rx="4"
       ry="4" />
    <rect
       style="fill:#ffffff;fill-opacity:1;stroke:none"
       id="rect2985-8-1-3-9"
       width="304"
       height="160"
       x="139.42857"
       y="361.50504" />
    <rect
       style="fill:#c8d0d8;fill-opacity:1;stroke:none"
       id="rect3799-4"
       width="320"
       height="24"
       x="131.42857"
       y="337.50504" />
    <rect
       style="fill:#ffffff;fill-opacity:1;stroke:none"
       id="rect3799-8-1"
       width="228"
       height="16"
       x="215.42857"
       y="337.50504" />
    <path
       sodipodi:type="arc"
       style="fill:#ffffff;fill-opacity:1;stroke:none"
       id="path3826-5-2"
       sodipodi:cx="-58.214287"
       sodipodi:cy="-29.642855"
       sodipodi:rx="12.5"
       sodipodi:ry="9.6428576"
       d="m -45.714287,-29.642855 c 0,5.325603 -5.59644,9.642858 -12.5,9.642858 -6.903559,0 -12.5,-4.317255 -12.5,-9.642858 0,-5.325603 5.596441,-9.642857 12.5,-9.642857 6.90356,0 12.5,4.317254 12.5,9.642857 z"
       transform="matrix(0.64,0,0,0.8296296,210.68571,370.09763)" />
    <path
       sodipodi:type="arc"
       style="fill:#b0b8c0;fill-opacity:1;stroke:none"
       id="path3826-04"
       sodipodi:cx="-58.214287"
       sodipodi:cy="-29.642855"
       sodipodi:rx="12.5"
       sodipodi:ry="9.6428576"
       d="m -45.714287,-29.642855 c 0,5.325603 -5.59644,9.642858 -12.5,9.642858 -6.903559,0 -12.5,-4.317255 -12.5,-9.642858 0,-5.325603 5.596441,-9.642857 12.5,-9.642857 6.90356,0 12.5,4.317254 12.5,9.642857 z"
       transform="matrix(0.48,0,0,0.6222222,201.37143,363.94948)" />
    <path
       sodipodi:type="arc"
       style="fill:#ffffff;fill-opacity:1;stroke:none"
       id="path3826-5-4-5"
       sodipodi:cx="-58.214287"
       sodipodi:cy="-29.642855"
       sodipodi:rx="12.5"
       sodipodi:ry="9.6428576"
       d="m -45.714287,-29.642855 c 0,5.325603 -5.59644,9.642858 -12.5,9.642858 -6.903559,0 -12.5,-4.317255 -12.5,-9.642858 0,-5.325603 5.596441,-9.642857 12.5,-9.642857 6.90356,0 12.5,4.317254 12.5,9.642857 z"
       transform="matrix(0.64,0,0,0.8296296,234.68571,370.09763)" />
    <path
       sodipodi:type="arc"
       style="fill:#b0b8c0;fill-opacity:1;stroke:none"
       id="path3826-9-9"
       sodipodi:cx="-58.214287"
       sodipodi:cy="-29.642855"
       sodipodi:rx="12.5"
       sodipodi:ry="9.6428576"
       d="m -45.714287,-29.642855 c 0,5.325603 -5.59644,9.642858 -12.5,9.642858 -6.903559,0 -12.5,-4.317255 -12.5,-9.642858 0,-5.325603 5.596441,-9.642857 12.5,-9.642857 6.90356,0 12.5,4.317254 12.5,9.642857 z"
       transform="matrix(0.48,0,0,0.6222222,225.37143,363.94948)" />
    <path
       sodipodi:type="arc"
       style="fill:#ffffff;fill-opacity:1;stroke:none"
       id="path3826-5-5-5"
       sodipodi:cx="-58.214287"
       sodipodi:cy="-29.642855"
       sodipodi:rx="12.5"
       sodipodi:ry="9.6428576"
       d="m -45.714287,-29.642855 c 0,5.325603 -5.59644,9.642858 -12.5,9.642858 -6.903559,0 -12.5,-4.317255 -12.5,-9.642858 0,-5.325603 5.596441,-9.642857 12.5,-9.642857 6.90356,0 12.5,4.317254 12.5,9.642857 z"
       transform="matrix(0.64,0,0,0.8296296,186.68571,370.09763)" />
    <path
       sodipodi:type="arc"
       style="fill:#e4686c;fill-opacity:1;stroke:none"
       id="path3826-0-3"
       sodipodi:cx="-58.214287"
       sodipodi:cy="-29.642855"
       sodipodi:rx="12.5"
       sodipodi:ry="9.6428576"
       d="m -45.714287,-29.642855 c 0,5.325603 -5.59644,9.642858 -12.5,9.642858 -6.903559,0 -12.5,-4.317255 -12.5,-9.642858 0,-5.325603 5.596441,-9.642857 12.5,-9.642857 6.90356,0 12.5,4.317254 12.5,9.642857 z"
       transform="matrix(0.48,0,0,0.6222222,177.37143,363.94948)" />
  </g>
</svg>
