<?xml version="1.0" encoding="UTF-8" standalone="no"?>
<!-- Created with Inkscape (http://www.inkscape.org/) -->

<svg
   xmlns:dc="http://purl.org/dc/elements/1.1/"
   xmlns:cc="http://creativecommons.org/ns#"
   xmlns:rdf="http://www.w3.org/1999/02/22-rdf-syntax-ns#"
   xmlns:svg="http://www.w3.org/2000/svg"
   xmlns="http://www.w3.org/2000/svg"
   xmlns:sodipodi="http://sodipodi.sourceforge.net/DTD/sodipodi-0.dtd"
   xmlns:inkscape="http://www.inkscape.org/namespaces/inkscape"
   width="320"
   height="200"
   id="svg5979"
   version="1.1"
   inkscape:version="0.48.2 r9819"
   sodipodi:docname="data-mask-mosaic.svg">
  <defs
     id="defs5981" />
  <sodipodi:namedview
     id="base"
     pagecolor="#ffffff"
     bordercolor="#666666"
     borderopacity="1.0"
     inkscape:pageopacity="0.0"
     inkscape:pageshadow="2"
     inkscape:zoom="1.979899"
     inkscape:cx="128.86475"
     inkscape:cy="77.955061"
     inkscape:document-units="px"
     inkscape:current-layer="layer1"
     showgrid="false"
     fit-margin-top="0"
     fit-margin-left="0"
     fit-margin-right="0"
     fit-margin-bottom="0"
     inkscape:showpageshadow="false"
     inkscape:window-width="1280"
     inkscape:window-height="668"
     inkscape:window-x="0"
     inkscape:window-y="0"
     inkscape:window-maximized="0" />
  <metadata
     id="metadata5984">
    <rdf:RDF>
      <cc:Work
         rdf:about="">
        <dc:format>image/svg+xml</dc:format>
        <dc:type
           rdf:resource="http://purl.org/dc/dcmitype/StillImage" />
        <dc:title></dc:title>
      </cc:Work>
    </rdf:RDF>
  </metadata>
  <g
     inkscape:label="Layer 1"
     inkscape:groupmode="layer"
     id="layer1"
     transform="translate(-197.14285,-329.50504)">
    <path
       inkscape:connector-curvature="0"
       style="fill:#ffffff;fill-opacity:1;stroke:none"
       d="m 197.14286,329.50504 0,200 320,0 0,-200 -320,0 z m 6,4 12,0 c 1.108,0 2,0.892 2,2 l 0,8 c 0,1.108 -0.892,2 -2,2 l -12,0 c -1.108,0 -2,-0.892 -2,-2 l 0,-8 c 0,-1.108 0.892,-2 2,-2 z m 20,0 8,0 c 1.108,0 2,0.892 2,2 l 0,8 c 0,1.108 -0.892,2 -2,2 l -8,0 c -1.108,0 -2,-0.892 -2,-2 l 0,-8 c 0,-1.108 0.892,-2 2,-2 z m 20,0 12,0 c 1.108,0 2,0.892 2,2 l 0,28 c 0,1.108 -0.892,2 -2,2 l -12,0 c -1.108,0 -2,-0.892 -2,-2 l 0,-28 c 0,-1.108 0.892,-2 2,-2 z m 20,0 8,0 c 1.108,0 2,0.892 2,2 l 0,12 c 0,1.108 -0.892,2 -2,2 l -8,0 c -1.108,0 -2,-0.892 -2,-2 l 0,-12 c 0,-1.108 0.892,-2 2,-2 z m 20,0 28,0 c 1.108,0 2,0.892 2,2 l 0,10 c 0,1.108 -0.892,2 -2,2 l -28,0 c -1.108,0 -2,-0.892 -2,-2 l 0,-10 c 0,-1.108 0.892,-2 2,-2 z m 40,0 8,0 c 1.108,0 2,0.892 2,2 l 0,8 c 0,1.108 -0.892,2 -2,2 l -8,0 c -1.108,0 -2,-0.892 -2,-2 l 0,-8 c 0,-1.108 0.892,-2 2,-2 z m 16,0 12,0 c 1.108,0 2,0.892 2,2 l 0,28 c 0,1.108 -0.892,2 -2,2 l -12,0 c -1.108,0 -2,-0.892 -2,-2 l 0,-28 c 0,-1.108 0.892,-2 2,-2 z m 24,0 12,0 c 1.108,0 2,0.892 2,2 l 0,28 c 0,1.108 -0.892,2 -2,2 l -12,0 c -1.108,0 -2,-0.892 -2,-2 l 0,-28 c 0,-1.108 0.892,-2 2,-2 z m 20,0 8,0 c 1.108,0 2,0.892 2,2 l 0,12 c 0,1.108 -0.892,2 -2,2 l -8,0 c -1.108,0 -2,-0.892 -2,-2 l 0,-12 c 0,-1.108 0.892,-2 2,-2 z m 20,0 12,0 c 1.108,0 2,0.892 2,2 l 0,8 c 0,1.108 -0.892,2 -2,2 l -12,0 c -1.108,0 -2,-0.892 -2,-2 l 0,-8 c 0,-1.108 0.892,-2 2,-2 z m 20,0 8,0 c 1.108,0 2,0.892 2,2 l 0,8 c 0,1.108 -0.892,2 -2,2 l -8,0 c -1.108,0 -2,-0.892 -2,-2 l 0,-8 c 0,-1.108 0.892,-2 2,-2 z m 20,0 28,0 c 1.108,0 2,0.892 2,2 l 0,12 c 0,1.108 -0.892,2 -2,2 l -28,0 c -1.108,0 -2,-0.892 -2,-2 l 0,-12 c 0,-1.108 0.892,-2 2,-2 z m 40,0 12,0 c 1.108,0 2,0.892 2,2 l 0,8 c 0,1.108 -0.892,2 -2,2 l -12,0 c -1.108,0 -2,-0.892 -2,-2 l 0,-8 c 0,-1.108 0.892,-2 2,-2 z m 20,0 8,0 c 1.108,0 2,0.892 2,2 l 0,8 c 0,1.108 -0.892,2 -2,2 l -8,0 c -1.108,0 -2,-0.892 -2,-2 l 0,-8 c 0,-1.108 0.892,-2 2,-2 z m -300,16 28,0 c 1.108,0 2,0.892 2,2 l 0,12 c 0,1.108 -0.892,2 -2,2 l -28,0 c -1.108,0 -2,-0.892 -2,-2 l 0,-12 c 0,-1.108 0.892,-2 2,-2 z m 120,0 8,0 c 1.108,0 2,0.892 2,2 l 0,12 c 0,1.108 -0.892,2 -2,2 l -8,0 c -1.108,0 -2,-0.892 -2,-2 l 0,-12 c 0,-1.108 0.892,-2 2,-2 z m 80,0 28,0 c 1.108,0 2,0.892 2,2 l 0,12 c 0,1.108 -0.892,2 -2,2 l -28,0 c -1.108,0 -2,-0.892 -2,-2 l 0,-12 c 0,-1.108 0.892,-2 2,-2 z m 80,0 28,0 c 1.108,0 2,0.892 2,2 l 0,12 c 0,1.108 -0.892,2 -2,2 l -28,0 c -1.108,0 -2,-0.892 -2,-2 l 0,-12 c 0,-1.108 0.892,-2 2,-2 z m -200,2 28,0 c 1.108,0 2,0.892 2,2 l 0,10 c 0,1.108 -0.892,2 -2,2 l -28,0 c -1.108,0 -2,-0.892 -2,-2 l 0,-10 c 0,-1.108 0.892,-2 2,-2 z m -20,2 8,0 c 1.108,0 2,0.892 2,2 l 0,8 c 0,1.108 -0.892,2 -2,2 l -8,0 c -1.108,0 -2,-0.892 -2,-2 l 0,-8 c 0,-1.108 0.892,-2 2,-2 z m 120,0 8,0 c 1.108,0 2,0.892 2,2 l 0,8 c 0,1.108 -0.892,2 -2,2 l -8,0 c -1.108,0 -2,-0.892 -2,-2 l 0,-8 c 0,-1.108 0.892,-2 2,-2 z m 60,0 12,0 c 1.108,0 2,0.892 2,2 l 0,8 c 0,1.108 -0.892,2 -2,2 l -12,0 c -1.108,0 -2,-0.892 -2,-2 l 0,-8 c 0,-1.108 0.892,-2 2,-2 z m 20,0 8,0 c 1.108,0 2,0.892 2,2 l 0,8 c 0,1.108 -0.892,2 -2,2 l -8,0 c -1.108,0 -2,-0.892 -2,-2 l 0,-8 c 0,-1.108 0.892,-2 2,-2 z m -260,20 12,0 c 1.108,0 2,0.892 2,2 l 0,28 c 0,1.108 -0.892,2 -2,2 l -12,0 c -1.108,0 -2,-0.892 -2,-2 l 0,-28 c 0,-1.108 0.892,-2 2,-2 z m 20,0 8,0 c 1.108,0 2,0.892 2,2 l 0,12 c 0,1.108 -0.892,2 -2,2 l -8,0 c -1.108,0 -2,-0.892 -2,-2 l 0,-12 c 0,-1.108 0.892,-2 2,-2 z m 20,0 10,0 c 1.108,0 2,0.892 2,2 l 0,10 c 0,1.108 -0.892,2 -2,2 l -10,0 c -1.108,0 -2,-0.892 -2,-2 l 0,-10 c 0,-1.108 0.892,-2 2,-2 z m 18,0 10,0 c 1.108,0 2,0.892 2,2 l 0,10 c 0,1.108 -0.892,2 -2,2 l -10,0 c -1.108,0 -2,-0.892 -2,-2 l 0,-10 c 0,-1.108 0.892,-2 2,-2 z m 22,0 28,0 c 1.108,0 2,0.892 2,2 l 0,12 c 0,1.108 -0.892,2 -2,2 l -28,0 c -1.108,0 -2,-0.892 -2,-2 l 0,-12 c 0,-1.108 0.892,-2 2,-2 z m 40,0 12,0 c 1.108,0 2,0.892 2,2 l 0,28 c 0,1.108 -0.892,2 -2,2 l -12,0 c -1.108,0 -2,-0.892 -2,-2 l 0,-28 c 0,-1.108 0.892,-2 2,-2 z m 20,0 8,0 c 1.108,0 2,0.892 2,2 l 0,8 c 0,1.108 -0.892,2 -2,2 l -8,0 c -1.108,0 -2,-0.892 -2,-2 l 0,-8 c 0,-1.108 0.892,-2 2,-2 z m 20,0 8,0 c 1.108,0 2,0.892 2,2 l 0,8 c 0,1.108 -0.892,2 -2,2 l -8,0 c -1.108,0 -2,-0.892 -2,-2 l 0,-8 c 0,-1.108 0.892,-2 2,-2 z m 16,0 12,0 c 1.108,0 2,0.892 2,2 l 0,8 c 0,1.108 -0.892,2 -2,2 l -12,0 c -1.108,0 -2,-0.892 -2,-2 l 0,-8 c 0,-1.108 0.892,-2 2,-2 z m 24,0 28,0 c 1.108,0 2,0.892 2,2 l 0,12 c 0,1.108 -0.892,2 -2,2 l -28,0 c -1.108,0 -2,-0.892 -2,-2 l 0,-12 c 0,-1.108 0.892,-2 2,-2 z m 40,0 12,0 c 1.108,0 2,0.892 2,2 l 0,28 c 0,1.108 -0.892,2 -2,2 l -12,0 c -1.108,0 -2,-0.892 -2,-2 l 0,-28 c 0,-1.108 0.892,-2 2,-2 z m 20,0 8,0 c 1.108,0 2,0.892 2,2 l 0,12 c 0,1.108 -0.892,2 -2,2 l -8,0 c -1.108,0 -2,-0.892 -2,-2 l 0,-12 c 0,-1.108 0.892,-2 2,-2 z m 20,0 8,0 c 1.108,0 2,0.892 2,2 l 0,8 c 0,1.108 -0.892,2 -2,2 l -8,0 c -1.108,0 -2,-0.892 -2,-2 l 0,-8 c 0,-1.108 0.892,-2 2,-2 z m 16,0 12,0 c 1.108,0 2,0.892 2,2 l 0,8 c 0,1.108 -0.892,2 -2,2 l -12,0 c -1.108,0 -2,-0.892 -2,-2 l 0,-8 c 0,-1.108 0.892,-2 2,-2 z m -156,16 8,0 c 1.108,0 2,0.892 2,2 l 0,12 c 0,1.108 -0.892,2 -2,2 l -8,0 c -1.108,0 -2,-0.892 -2,-2 l 0,-12 c 0,-1.108 0.892,-2 2,-2 z m 20,0 28,0 c 1.108,0 2,0.892 2,2 l 0,12 c 0,1.108 -0.892,2 -2,2 l -28,0 c -1.108,0 -2,-0.892 -2,-2 l 0,-12 c 0,-1.108 0.892,-2 2,-2 z m 120,0 28,0 c 1.108,0 2,0.892 2,2 l 0,12 c 0,1.108 -0.892,2 -2,2 l -28,0 c -1.108,0 -2,-0.892 -2,-2 l 0,-12 c 0,-1.108 0.892,-2 2,-2 z m -240,2 10,0 c 1.108,0 2,0.892 2,2 l 0,10 c 0,1.108 -0.892,2 -2,2 l -10,0 c -1.108,0 -2,-0.892 -2,-2 l 0,-10 c 0,-1.108 0.892,-2 2,-2 z m 18,0 10,0 c 1.108,0 2,0.892 2,2 l 0,10 c 0,1.108 -0.892,2 -2,2 l -10,0 c -1.108,0 -2,-0.892 -2,-2 l 0,-10 c 0,-1.108 0.892,-2 2,-2 z m -38,2 8,0 c 1.108,0 2,0.892 2,2 l 0,8 c 0,1.108 -0.892,2 -2,2 l -8,0 c -1.108,0 -2,-0.892 -2,-2 l 0,-8 c 0,-1.108 0.892,-2 2,-2 z m 60,0 12,0 c 1.108,0 2,0.892 2,2 l 0,8 c 0,1.108 -0.892,2 -2,2 l -12,0 c -1.108,0 -2,-0.892 -2,-2 l 0,-8 c 0,-1.108 0.892,-2 2,-2 z m 20,0 8,0 c 1.108,0 2,0.892 2,2 l 0,8 c 0,1.108 -0.892,2 -2,2 l -8,0 c -1.108,0 -2,-0.892 -2,-2 l 0,-8 c 0,-1.108 0.892,-2 2,-2 z m 100,0 8,0 c 1.108,0 2,0.892 2,2 l 0,8 c 0,1.108 -0.892,2 -2,2 l -8,0 c -1.108,0 -2,-0.892 -2,-2 l 0,-8 c 0,-1.108 0.892,-2 2,-2 z m 16,0 12,0 c 1.108,0 2,0.892 2,2 l 0,8 c 0,1.108 -0.892,2 -2,2 l -12,0 c -1.108,0 -2,-0.892 -2,-2 l 0,-8 c 0,-1.108 0.892,-2 2,-2 z m 44,0 8,0 c 1.108,0 2,0.892 2,2 l 0,8 c 0,1.108 -0.892,2 -2,2 l -8,0 c -1.108,0 -2,-0.892 -2,-2 l 0,-8 c 0,-1.108 0.892,-2 2,-2 z m -260,20 28,0 c 1.108,0 2,0.892 2,2 l 0,12 c 0,1.108 -0.892,2 -2,2 l -28,0 c -1.108,0 -2,-0.892 -2,-2 l 0,-12 c 0,-1.108 0.892,-2 2,-2 z m 40,0 28,0 c 1.108,0 2,0.892 2,2 l 0,12 c 0,1.108 -0.892,2 -2,2 l -28,0 c -1.108,0 -2,-0.892 -2,-2 l 0,-12 c 0,-1.108 0.892,-2 2,-2 z m 40,0 12,0 c 1.108,0 2,0.892 2,2 l 0,8 c 0,1.108 -0.892,2 -2,2 l -12,0 c -1.108,0 -2,-0.892 -2,-2 l 0,-8 c 0,-1.108 0.892,-2 2,-2 z m 20,0 8,0 c 1.108,0 2,0.892 2,2 l 0,8 c 0,1.108 -0.892,2 -2,2 l -8,0 c -1.108,0 -2,-0.892 -2,-2 l 0,-8 c 0,-1.108 0.892,-2 2,-2 z m 20,0 12,0 c 1.108,0 2,0.892 2,2 l 0,28 c 0,1.108 -0.892,2 -2,2 l -12,0 c -1.108,0 -2,-0.892 -2,-2 l 0,-28 c 0,-1.108 0.892,-2 2,-2 z m 20,0 8,0 c 1.108,0 2,0.892 2,2 l 0,8 c 0,1.108 -0.892,2 -2,2 l -8,0 c -1.108,0 -2,-0.892 -2,-2 l 0,-8 c 0,-1.108 0.892,-2 2,-2 z m 20,0 10,0 c 1.108,0 2,0.892 2,2 l 0,10 c 0,1.108 -0.892,2 -2,2 l -10,0 c -1.108,0 -2,-0.892 -2,-2 l 0,-10 c 0,-1.108 0.892,-2 2,-2 z m 18,0 10,0 c 1.108,0 2,0.892 2,2 l 0,10 c 0,1.108 -0.892,2 -2,2 l -10,0 c -1.108,0 -2,-0.892 -2,-2 l 0,-10 c 0,-1.108 0.892,-2 2,-2 z m 22,0 10,0 c 1.108,0 2,0.892 2,2 l 0,28 c 0,1.108 -0.892,2 -2,2 l -10,0 c -1.108,0 -2,-0.892 -2,-2 l 0,-28 c 0,-1.108 0.892,-2 2,-2 z m 18,0 10,0 c 1.108,0 2,0.892 2,2 l 0,28 c 0,1.108 -0.892,2 -2,2 l -10,0 c -1.108,0 -2,-0.892 -2,-2 l 0,-28 c 0,-1.108 0.892,-2 2,-2 z m 22,0 12,0 c 1.108,0 2,0.892 2,2 l 0,8 c 0,1.108 -0.892,2 -2,2 l -12,0 c -1.108,0 -2,-0.892 -2,-2 l 0,-8 c 0,-1.108 0.892,-2 2,-2 z m 20,0 8,0 c 1.108,0 2,0.892 2,2 l 0,8 c 0,1.108 -0.892,2 -2,2 l -8,0 c -1.108,0 -2,-0.892 -2,-2 l 0,-8 c 0,-1.108 0.892,-2 2,-2 z m 20,0 8,0 c 1.108,0 2,0.892 2,2 l 0,8 c 0,1.108 -0.892,2 -2,2 l -8,0 c -1.108,0 -2,-0.892 -2,-2 l 0,-8 c 0,-1.108 0.892,-2 2,-2 z m 16,0 12,0 c 1.108,0 2,0.892 2,2 l 0,28 c 0,1.108 -0.892,2 -2,2 l -12,0 c -1.108,0 -2,-0.892 -2,-2 l 0,-28 c 0,-1.108 0.892,-2 2,-2 z m -216,16 28,0 c 1.108,0 2,0.892 2,2 l 0,12 c 0,1.108 -0.892,2 -2,2 l -28,0 c -1.108,0 -2,-0.892 -2,-2 l 0,-12 c 0,-1.108 0.892,-2 2,-2 z m 60,0 8,0 c 1.108,0 2,0.892 2,2 l 0,12 c 0,1.108 -0.892,2 -2,2 l -8,0 c -1.108,0 -2,-0.892 -2,-2 l 0,-12 c 0,-1.108 0.892,-2 2,-2 z m 100,0 28,0 c 1.108,0 2,0.892 2,2 l 0,12 c 0,1.108 -0.892,2 -2,2 l -28,0 c -1.108,0 -2,-0.892 -2,-2 l 0,-12 c 0,-1.108 0.892,-2 2,-2 z m 40,0 8,0 c 1.108,0 2,0.892 2,2 l 0,12 c 0,1.108 -0.892,2 -2,2 l -8,0 c -1.108,0 -2,-0.892 -2,-2 l 0,-12 c 0,-1.108 0.892,-2 2,-2 z m -120,2 10,0 c 1.108,0 2,0.892 2,2 l 0,10 c 0,1.108 -0.892,2 -2,2 l -10,0 c -1.108,0 -2,-0.892 -2,-2 l 0,-10 c 0,-1.108 0.892,-2 2,-2 z m 18,0 10,0 c 1.108,0 2,0.892 2,2 l 0,10 c 0,1.108 -0.892,2 -2,2 l -10,0 c -1.108,0 -2,-0.892 -2,-2 l 0,-10 c 0,-1.108 0.892,-2 2,-2 z m -178,2 8,0 c 1.108,0 2,0.892 2,2 l 0,8 c 0,1.108 -0.892,2 -2,2 l -8,0 c -1.108,0 -2,-0.892 -2,-2 l 0,-8 c 0,-1.108 0.892,-2 2,-2 z m 16,0 12,0 c 1.108,0 2,0.892 2,2 l 0,8 c 0,1.108 -0.892,2 -2,2 l -12,0 c -1.108,0 -2,-0.892 -2,-2 l 0,-8 c 0,-1.108 0.892,-2 2,-2 z m 24,0 8,0 c 1.108,0 2,0.892 2,2 l 0,8 c 0,1.108 -0.892,2 -2,2 l -8,0 c -1.108,0 -2,-0.892 -2,-2 l 0,-8 c 0,-1.108 0.892,-2 2,-2 z m 16,0 12,0 c 1.108,0 2,0.892 2,2 l 0,8 c 0,1.108 -0.892,2 -2,2 l -12,0 c -1.108,0 -2,-0.892 -2,-2 l 0,-8 c 0,-1.108 0.892,-2 2,-2 z m -56,20 12,0 c 1.108,0 2,0.892 2,2 l 0,8 c 0,1.108 -0.892,2 -2,2 l -12,0 c -1.108,0 -2,-0.892 -2,-2 l 0,-8 c 0,-1.108 0.892,-2 2,-2 z m 20,0 8,0 c 1.108,0 2,0.892 2,2 l 0,8 c 0,1.108 -0.892,2 -2,2 l -8,0 c -1.108,0 -2,-0.892 -2,-2 l 0,-8 c 0,-1.108 0.892,-2 2,-2 z m 20,0 10,0 c 1.108,0 2,0.892 2,2 l 0,28 c 0,1.108 -0.892,2 -2,2 l -10,0 c -1.108,0 -2,-0.892 -2,-2 l 0,-28 c 0,-1.108 0.892,-2 2,-2 z m 18,0 10,0 c 1.108,0 2,0.892 2,2 l 0,28 c 0,1.108 -0.892,2 -2,2 l -10,0 c -1.108,0 -2,-0.892 -2,-2 l 0,-28 c 0,-1.108 0.892,-2 2,-2 z m 22,0 8,0 c 1.108,0 2,0.892 2,2 l 0,8 c 0,1.108 -0.892,2 -2,2 l -8,0 c -1.108,0 -2,-0.892 -2,-2 l 0,-8 c 0,-1.108 0.892,-2 2,-2 z m 16,0 12,0 c 1.108,0 2,0.892 2,2 l 0,8 c 0,1.108 -0.892,2 -2,2 l -12,0 c -1.108,0 -2,-0.892 -2,-2 l 0,-8 c 0,-1.108 0.892,-2 2,-2 z m 24,0 28,0 c 1.108,0 2,0.892 2,2 l 0,12 c 0,1.108 -0.892,2 -2,2 l -28,0 c -1.108,0 -2,-0.892 -2,-2 l 0,-12 c 0,-1.108 0.892,-2 2,-2 z m 40,0 8,0 c 1.108,0 2,0.892 2,2 l 0,12 c 0,1.108 -0.892,2 -2,2 l -8,0 c -1.108,0 -2,-0.892 -2,-2 l 0,-12 c 0,-1.108 0.892,-2 2,-2 z m 16,0 12,0 c 1.108,0 2,0.892 2,2 l 0,28 c 0,1.108 -0.892,2 -2,2 l -12,0 c -1.108,0 -2,-0.892 -2,-2 l 0,-28 c 0,-1.108 0.892,-2 2,-2 z m 24,0 12,0 c 1.108,0 2,0.892 2,2 l 0,28 c 0,1.108 -0.892,2 -2,2 l -12,0 c -1.108,0 -2,-0.892 -2,-2 l 0,-28 c 0,-1.108 0.892,-2 2,-2 z m 20,0 8,0 c 1.108,0 2,0.892 2,2 l 0,8 c 0,1.108 -0.892,2 -2,2 l -8,0 c -1.108,0 -2,-0.892 -2,-2 l 0,-8 c 0,-1.108 0.892,-2 2,-2 z m 20,0 12,0 c 1.108,0 2,0.892 2,2 l 0,28 c 0,1.108 -0.892,2 -2,2 l -12,0 c -1.108,0 -2,-0.892 -2,-2 l 0,-28 c 0,-1.108 0.892,-2 2,-2 z m 20,0 8,0 c 1.108,0 2,0.892 2,2 l 0,12 c 0,1.108 -0.892,2 -2,2 l -8,0 c -1.108,0 -2,-0.892 -2,-2 l 0,-12 c 0,-1.108 0.892,-2 2,-2 z m 20,0 12,0 c 1.108,0 2,0.892 2,2 l 0,8 c 0,1.108 -0.892,2 -2,2 l -12,0 c -1.108,0 -2,-0.892 -2,-2 l 0,-8 c 0,-1.108 0.892,-2 2,-2 z m 20,0 8,0 c 1.108,0 2,0.892 2,2 l 0,8 c 0,1.108 -0.892,2 -2,2 l -8,0 c -1.108,0 -2,-0.892 -2,-2 l 0,-8 c 0,-1.108 0.892,-2 2,-2 z m -300,16 28,0 c 1.108,0 2,0.892 2,2 l 0,12 c 0,1.108 -0.892,2 -2,2 l -28,0 c -1.108,0 -2,-0.892 -2,-2 l 0,-12 c 0,-1.108 0.892,-2 2,-2 z m 80,0 28,0 c 1.108,0 2,0.892 2,2 l 0,12 c 0,1.108 -0.892,2 -2,2 l -28,0 c -1.108,0 -2,-0.892 -2,-2 l 0,-12 c 0,-1.108 0.892,-2 2,-2 z m 140,0 8,0 c 1.108,0 2,0.892 2,2 l 0,12 c 0,1.108 -0.892,2 -2,2 l -8,0 c -1.108,0 -2,-0.892 -2,-2 l 0,-12 c 0,-1.108 0.892,-2 2,-2 z m 60,0 28,0 c 1.108,0 2,0.892 2,2 l 0,12 c 0,1.108 -0.892,2 -2,2 l -28,0 c -1.108,0 -2,-0.892 -2,-2 l 0,-12 c 0,-1.108 0.892,-2 2,-2 z m -160,4 12,0 c 1.108,0 2,0.892 2,2 l 0,8 c 0,1.108 -0.892,2 -2,2 l -12,0 c -1.108,0 -2,-0.892 -2,-2 l 0,-8 c 0,-1.108 0.892,-2 2,-2 z m 20,0 8,0 c 1.108,0 2,0.892 2,2 l 0,8 c 0,1.108 -0.892,2 -2,2 l -8,0 c -1.108,0 -2,-0.892 -2,-2 l 0,-8 c 0,-1.108 0.892,-2 2,-2 z m 20,0 8,0 c 1.108,0 2,0.892 2,2 l 0,8 c 0,1.108 -0.892,2 -2,2 l -8,0 c -1.108,0 -2,-0.892 -2,-2 l 0,-8 c 0,-1.108 0.892,-2 2,-2 z m 100,0 8,0 c 1.108,0 2,0.892 2,2 l 0,8 c 0,1.108 -0.892,2 -2,2 l -8,0 c -1.108,0 -2,-0.892 -2,-2 l 0,-8 c 0,-1.108 0.892,-2 2,-2 z m -260,20 8,0 c 1.108,0 2,0.892 2,2 l 0,8 c 0,1.108 -0.892,2 -2,2 l -8,0 c -1.108,0 -2,-0.892 -2,-2 l 0,-8 c 0,-1.108 0.892,-2 2,-2 z m 16,0 12,0 c 1.108,0 2,0.892 2,2 l 0,28 c 0,1.108 -0.892,2 -2,2 l -12,0 c -1.108,0 -2,-0.892 -2,-2 l 0,-28 c 0,-1.108 0.892,-2 2,-2 z m 24,0 28,0 c 1.108,0 2,0.892 2,2 l 0,12 c 0,1.108 -0.892,2 -2,2 l -28,0 c -1.108,0 -2,-0.892 -2,-2 l 0,-12 c 0,-1.108 0.892,-2 2,-2 z m 40,0 8,0 c 1.108,0 2,0.892 2,2 l 0,8 c 0,1.108 -0.892,2 -2,2 l -8,0 c -1.108,0 -2,-0.892 -2,-2 l 0,-8 c 0,-1.108 0.892,-2 2,-2 z m 16,0 12,0 c 1.108,0 2,0.892 2,2 l 0,8 c 0,1.108 -0.892,2 -2,2 l -12,0 c -1.108,0 -2,-0.892 -2,-2 l 0,-8 c 0,-1.108 0.892,-2 2,-2 z m 24,0 12,0 c 1.108,0 2,0.892 2,2 l 0,28 c 0,1.108 -0.892,2 -2,2 l -12,0 c -1.108,0 -2,-0.892 -2,-2 l 0,-28 c 0,-1.108 0.892,-2 2,-2 z m 20,0 8,0 c 1.108,0 2,0.892 2,2 l 0,12 c 0,1.108 -0.892,2 -2,2 l -8,0 c -1.108,0 -2,-0.892 -2,-2 l 0,-12 c 0,-1.108 0.892,-2 2,-2 z m 20,0 12,0 c 1.108,0 2,0.892 2,2 l 0,8 c 0,1.108 -0.892,2 -2,2 l -12,0 c -1.108,0 -2,-0.892 -2,-2 l 0,-8 c 0,-1.108 0.892,-2 2,-2 z m 20,0 8,0 c 1.108,0 2,0.892 2,2 l 0,8 c 0,1.108 -0.892,2 -2,2 l -8,0 c -1.108,0 -2,-0.892 -2,-2 l 0,-8 c 0,-1.108 0.892,-2 2,-2 z m 20,0 28,0 c 1.108,0 2,0.892 2,2 l 0,12 c 0,1.108 -0.892,2 -2,2 l -28,0 c -1.108,0 -2,-0.892 -2,-2 l 0,-12 c 0,-1.108 0.892,-2 2,-2 z m 40,0 28,0 c 1.108,0 2,0.892 2,2 l 0,10 c 0,1.108 -0.892,2 -2,2 l -28,0 c -1.108,0 -2,-0.892 -2,-2 l 0,-10 c 0,-1.108 0.892,-2 2,-2 z m 40,0 8,0 c 1.108,0 2,0.892 2,2 l 0,8 c 0,1.108 -0.892,2 -2,2 l -8,0 c -1.108,0 -2,-0.892 -2,-2 l 0,-8 c 0,-1.108 0.892,-2 2,-2 z m 16,0 12,0 c 1.108,0 2,0.892 2,2 l 0,8 c 0,1.108 -0.892,2 -2,2 l -12,0 c -1.108,0 -2,-0.892 -2,-2 l 0,-8 c 0,-1.108 0.892,-2 2,-2 z m -296,16 8,0 c 1.108,0 2,0.892 2,2 l 0,12 c 0,1.108 -0.892,2 -2,2 l -8,0 c -1.108,0 -2,-0.892 -2,-2 l 0,-12 c 0,-1.108 0.892,-2 2,-2 z m 80,0 28,0 c 1.108,0 2,0.892 2,2 l 0,12 c 0,1.108 -0.892,2 -2,2 l -28,0 c -1.108,0 -2,-0.892 -2,-2 l 0,-12 c 0,-1.108 0.892,-2 2,-2 z m 80,0 28,0 c 1.108,0 2,0.892 2,2 l 0,12 c 0,1.108 -0.892,2 -2,2 l -28,0 c -1.108,0 -2,-0.892 -2,-2 l 0,-12 c 0,-1.108 0.892,-2 2,-2 z m 120,0 28,0 c 1.108,0 2,0.892 2,2 l 0,12 c 0,1.108 -0.892,2 -2,2 l -28,0 c -1.108,0 -2,-0.892 -2,-2 l 0,-12 c 0,-1.108 0.892,-2 2,-2 z m -40,2 28,0 c 1.108,0 2,0.892 2,2 l 0,10 c 0,1.108 -0.892,2 -2,2 l -28,0 c -1.108,0 -2,-0.892 -2,-2 l 0,-10 c 0,-1.108 0.892,-2 2,-2 z m -200,2 12,0 c 1.108,0 2,0.892 2,2 l 0,8 c 0,1.108 -0.892,2 -2,2 l -12,0 c -1.108,0 -2,-0.892 -2,-2 l 0,-8 c 0,-1.108 0.892,-2 2,-2 z m 20,0 8,0 c 1.108,0 2,0.892 2,2 l 0,8 c 0,1.108 -0.892,2 -2,2 l -8,0 c -1.108,0 -2,-0.892 -2,-2 l 0,-8 c 0,-1.108 0.892,-2 2,-2 z m 80,0 8,0 c 1.108,0 2,0.892 2,2 l 0,8 c 0,1.108 -0.892,2 -2,2 l -8,0 c -1.108,0 -2,-0.892 -2,-2 l 0,-8 c 0,-1.108 0.892,-2 2,-2 z m 60,0 8,0 c 1.108,0 2,0.892 2,2 l 0,8 c 0,1.108 -0.892,2 -2,2 l -8,0 c -1.108,0 -2,-0.892 -2,-2 l 0,-8 c 0,-1.108 0.892,-2 2,-2 z m 16,0 12,0 c 1.108,0 2,0.892 2,2 l 0,8 c 0,1.108 -0.892,2 -2,2 l -12,0 c -1.108,0 -2,-0.892 -2,-2 l 0,-8 c 0,-1.108 0.892,-2 2,-2 z"
       id="rect5116" />
    <rect
       style="opacity:0.24;fill:#ffffff;fill-opacity:1;stroke:none"
       id="rect5887"
       width="40"
       height="40"
       x="197.14285"
       y="409.50504" />
    <rect
       style="opacity:0.24;fill:#ffffff;fill-opacity:1;stroke:none"
       id="rect5887-1"
       width="40"
       height="40"
       x="317.14282"
       y="329.50504" />
    <rect
       style="opacity:0.24;fill:#ffffff;fill-opacity:1;stroke:none"
       id="rect5887-5"
       width="40"
       height="40"
       x="437.14285"
       y="369.50504" />
    <rect
       style="opacity:0.24;fill:#ffffff;fill-opacity:1;stroke:none"
       id="rect5887-8"
       width="40"
       height="40"
       x="397.14285"
       y="449.50504" />
    <rect
       style="opacity:0.24;fill:#ffffff;fill-opacity:1;stroke:none"
       id="rect5887-0"
       width="40"
       height="40"
       x="277.14285"
       y="489.50504" />
    <rect
       style="opacity:0.24;fill:#ffffff;fill-opacity:1;stroke:none"
       id="rect5887-9"
       width="40"
       height="40"
       x="237.14285"
       y="329.50504" />
    <rect
       style="opacity:0.24;fill:#ffffff;fill-opacity:1;stroke:none"
       id="rect5887-2"
       width="40"
       height="40"
       x="317.14282"
       y="409.50504" />
    <rect
       style="opacity:0.24;fill:#ffffff;fill-opacity:1;stroke:none"
       id="rect5887-8-5"
       width="40"
       height="40"
       x="477.14285"
       y="449.50504" />
  </g>
</svg>
