<?xml version="1.0" encoding="UTF-8" standalone="no"?>
<!-- Created with Inkscape (http://www.inkscape.org/) -->

<svg
   xmlns:dc="http://purl.org/dc/elements/1.1/"
   xmlns:cc="http://creativecommons.org/ns#"
   xmlns:rdf="http://www.w3.org/1999/02/22-rdf-syntax-ns#"
   xmlns:svg="http://www.w3.org/2000/svg"
   xmlns="http://www.w3.org/2000/svg"
   xmlns:sodipodi="http://sodipodi.sourceforge.net/DTD/sodipodi-0.dtd"
   xmlns:inkscape="http://www.inkscape.org/namespaces/inkscape"
   width="520"
   height="120"
   id="svg3951"
   version="1.1"
   inkscape:version="0.48.2 r9819"
   sodipodi:docname="data-power.svg">
  <defs
     id="defs3953" />
  <sodipodi:namedview
     id="base"
     pagecolor="#ffffff"
     bordercolor="#666666"
     borderopacity="1.0"
     inkscape:pageopacity="0.0"
     inkscape:pageshadow="2"
     inkscape:zoom="1.979899"
     inkscape:cx="151.74749"
     inkscape:cy="52.247993"
     inkscape:document-units="px"
     inkscape:current-layer="layer1"
     showgrid="false"
     inkscape:showpageshadow="false"
     fit-margin-top="0"
     fit-margin-left="0"
     fit-margin-right="0"
     fit-margin-bottom="0"
     inkscape:window-width="1280"
     inkscape:window-height="689"
     inkscape:window-x="0"
     inkscape:window-y="0"
     inkscape:window-maximized="1" />
  <metadata
     id="metadata3956">
    <rdf:RDF>
      <cc:Work
         rdf:about="">
        <dc:format>image/svg+xml</dc:format>
        <dc:type
           rdf:resource="http://purl.org/dc/dcmitype/StillImage" />
        <dc:title></dc:title>
      </cc:Work>
    </rdf:RDF>
  </metadata>
  <g
     inkscape:label="Layer 1"
     inkscape:groupmode="layer"
     id="layer1"
     transform="translate(0,-932.36218)">
    <rect
       style="fill:#586068;fill-opacity:1;stroke:none;opacity:0.64000000000000001"
       id="rect3959"
       width="16"
       height="16"
       x="0"
       y="1032.3622"
       rx="2"
       ry="2" />
    <rect
       style="fill:#586068;fill-opacity:1;stroke:none;opacity:0.47999999999999998"
       id="rect3959-8"
       width="16"
       height="16"
       x="0"
       y="992.36218"
       rx="2"
       ry="2" />
    <rect
       style="opacity:0.47999999999999998;fill:#586068;fill-opacity:1;stroke:none"
       id="rect3959-3"
       width="16"
       height="16"
       x="0"
       y="972.36218"
       rx="2"
       ry="2" />
    <rect
       style="fill:#586068;fill-opacity:1;stroke:none;opacity:0.64000000000000001"
       id="rect3959-9"
       width="16"
       height="16"
       x="0"
       y="1012.3622"
       rx="2"
       ry="2" />
    <rect
       style="fill:#586068;fill-opacity:1;stroke:none;opacity:0.64000000000000001"
       id="rect3959-30"
       width="16"
       height="16"
       x="20"
       y="1032.3622"
       rx="2"
       ry="2" />
    <rect
       style="fill:#586068;fill-opacity:1;stroke:none;opacity:0.47999999999999998"
       id="rect3959-8-4"
       width="16"
       height="16"
       x="20"
       y="992.36218"
       rx="2"
       ry="2" />
    <rect
       style="fill:#586068;fill-opacity:1;stroke:none;opacity:0.64000000000000001"
       id="rect3959-9-5"
       width="16"
       height="16"
       x="20"
       y="1012.3622"
       rx="2"
       ry="2" />
    <rect
       style="fill:#586068;fill-opacity:1;stroke:none;opacity:0.64000000000000001"
       id="rect3959-88"
       width="16"
       height="16"
       x="40"
       y="1032.3622"
       rx="2"
       ry="2" />
    <rect
       style="fill:#586068;fill-opacity:1;stroke:none;opacity:0.47999999999999998"
       id="rect3959-8-6"
       width="16"
       height="16"
       x="40"
       y="992.36218"
       rx="2"
       ry="2" />
    <rect
       style="opacity:0.47999999999999998;fill:#586068;fill-opacity:1;stroke:none"
       id="rect3959-3-2"
       width="16"
       height="16"
       x="40"
       y="972.36218"
       rx="2"
       ry="2" />
    <rect
       style="opacity:0.32000000000000001;fill:#586068;fill-opacity:1;stroke:none"
       id="rect3959-35-2"
       width="16"
       height="16"
       x="40"
       y="952.36218"
       rx="2"
       ry="2" />
    <rect
       style="fill:#586068;fill-opacity:1;stroke:none;opacity:0.64000000000000001"
       id="rect3959-9-3"
       width="16"
       height="16"
       x="40"
       y="1012.3622"
       rx="2"
       ry="2" />
    <rect
       style="fill:#586068;fill-opacity:1;stroke:none;opacity:0.64000000000000001"
       id="rect3959-33"
       width="16"
       height="16"
       x="60"
       y="1032.3622"
       rx="2"
       ry="2" />
    <rect
       style="fill:#586068;fill-opacity:1;stroke:none;opacity:0.47999999999999998"
       id="rect3959-8-0"
       width="16"
       height="16"
       x="60"
       y="992.36218"
       rx="2"
       ry="2" />
    <rect
       style="opacity:0.47999999999999998;fill:#586068;fill-opacity:1;stroke:none"
       id="rect3959-3-4"
       width="16"
       height="16"
       x="60"
       y="972.36218"
       rx="2"
       ry="2" />
    <rect
       style="opacity:0.32000000000000001;fill:#586068;fill-opacity:1;stroke:none"
       id="rect3959-35-3"
       width="16"
       height="16"
       x="60"
       y="952.36218"
       rx="2"
       ry="2" />
    <rect
       style="opacity:0.32000000000000001;fill:#586068;fill-opacity:1;stroke:none"
       id="rect3959-6-72"
       width="16"
       height="16"
       x="60"
       y="932.36218"
       rx="2"
       ry="2" />
    <rect
       style="fill:#586068;fill-opacity:1;stroke:none;opacity:0.64000000000000001"
       id="rect3959-9-9"
       width="16"
       height="16"
       x="60"
       y="1012.3622"
       rx="2"
       ry="2" />
    <rect
       style="fill:#586068;fill-opacity:1;stroke:none;opacity:0.64000000000000001"
       id="rect3959-38"
       width="16"
       height="16"
       x="80"
       y="1032.3622"
       rx="2"
       ry="2" />
    <rect
       style="fill:#586068;fill-opacity:1;stroke:none;opacity:0.47999999999999998"
       id="rect3959-8-65"
       width="16"
       height="16"
       x="80"
       y="992.36218"
       rx="2"
       ry="2" />
    <rect
       style="opacity:0.47999999999999998;fill:#586068;fill-opacity:1;stroke:none"
       id="rect3959-3-5"
       width="16"
       height="16"
       x="80"
       y="972.36218"
       rx="2"
       ry="2" />
    <rect
       style="fill:#586068;fill-opacity:1;stroke:none;opacity:0.64000000000000001"
       id="rect3959-9-0"
       width="16"
       height="16"
       x="80"
       y="1012.3622"
       rx="2"
       ry="2" />
    <rect
       style="fill:#586068;fill-opacity:1;stroke:none;opacity:0.64000000000000001"
       id="rect3959-30-8"
       width="16"
       height="16"
       x="100"
       y="1032.3622"
       rx="2"
       ry="2" />
    <rect
       style="fill:#586068;fill-opacity:1;stroke:none;opacity:0.47999999999999998"
       id="rect3959-8-4-8"
       width="16"
       height="16"
       x="100"
       y="992.36218"
       rx="2"
       ry="2" />
    <rect
       style="opacity:0.47999999999999998;fill:#586068;fill-opacity:1;stroke:none"
       id="rect3959-3-1-7"
       width="16"
       height="16"
       x="100"
       y="972.36218"
       rx="2"
       ry="2" />
    <rect
       style="opacity:0.32000000000000001;fill:#586068;fill-opacity:1;stroke:none"
       id="rect3959-35-7-2"
       width="16"
       height="16"
       x="100"
       y="952.36218"
       rx="2"
       ry="2" />
    <rect
       style="fill:#586068;fill-opacity:1;stroke:none;opacity:0.64000000000000001"
       id="rect3959-9-5-7"
       width="16"
       height="16"
       x="100"
       y="1012.3622"
       rx="2"
       ry="2" />
    <rect
       style="fill:#586068;fill-opacity:1;stroke:none;opacity:0.64000000000000001"
       id="rect3959-88-4"
       width="16"
       height="16"
       x="120"
       y="1032.3622"
       rx="2"
       ry="2" />
    <rect
       style="fill:#586068;fill-opacity:1;stroke:none;opacity:0.47999999999999998"
       id="rect3959-8-6-5"
       width="16"
       height="16"
       x="120"
       y="992.36218"
       rx="2"
       ry="2" />
    <rect
       style="fill:#586068;fill-opacity:1;stroke:none;opacity:0.64000000000000001"
       id="rect3959-9-3-5"
       width="16"
       height="16"
       x="120"
       y="1012.3622"
       rx="2"
       ry="2" />
    <rect
       style="fill:#586068;fill-opacity:1;stroke:none;opacity:0.64000000000000001"
       id="rect3959-33-6"
       width="16"
       height="16"
       x="140"
       y="1032.3622"
       rx="2"
       ry="2" />
    <rect
       style="fill:#586068;fill-opacity:1;stroke:none;opacity:0.64000000000000001"
       id="rect3959-9-9-3"
       width="16"
       height="16"
       x="140"
       y="1012.3622"
       rx="2"
       ry="2" />
    <rect
       style="fill:#586068;fill-opacity:1;stroke:none;opacity:0.64000000000000001"
       id="rect3959-90"
       width="16"
       height="16"
       x="160"
       y="1032.3622"
       rx="2"
       ry="2" />
    <rect
       style="fill:#586068;fill-opacity:1;stroke:none;opacity:0.47999999999999998"
       id="rect3959-8-3"
       width="16"
       height="16"
       x="160"
       y="992.36218"
       rx="2"
       ry="2" />
    <rect
       style="opacity:0.47999999999999998;fill:#586068;fill-opacity:1;stroke:none"
       id="rect3959-3-7"
       width="16"
       height="16"
       x="160"
       y="972.36218"
       rx="2"
       ry="2" />
    <rect
       style="fill:#586068;fill-opacity:1;stroke:none;opacity:0.64000000000000001"
       id="rect3959-9-36"
       width="16"
       height="16"
       x="160"
       y="1012.3622"
       rx="2"
       ry="2" />
    <rect
       style="fill:#586068;fill-opacity:1;stroke:none;opacity:0.64000000000000001"
       id="rect3959-30-6"
       width="16"
       height="16"
       x="180"
       y="1032.3622"
       rx="2"
       ry="2" />
    <rect
       style="fill:#586068;fill-opacity:1;stroke:none;opacity:0.47999999999999998"
       id="rect3959-8-4-2"
       width="16"
       height="16"
       x="180"
       y="992.36218"
       rx="2"
       ry="2" />
    <rect
       style="opacity:0.47999999999999998;fill:#586068;fill-opacity:1;stroke:none"
       id="rect3959-3-1-8"
       width="16"
       height="16"
       x="180"
       y="972.36218"
       rx="2"
       ry="2" />
    <rect
       style="opacity:0.32000000000000001;fill:#586068;fill-opacity:1;stroke:none"
       id="rect3959-35-7-1"
       width="16"
       height="16"
       x="180"
       y="952.36218"
       rx="2"
       ry="2" />
    <rect
       style="opacity:0.32000000000000001;fill:#586068;fill-opacity:1;stroke:none"
       id="rect3959-6-9-6"
       width="16"
       height="16"
       x="180"
       y="932.36218"
       rx="2"
       ry="2" />
    <rect
       style="fill:#586068;fill-opacity:1;stroke:none;opacity:0.64000000000000001"
       id="rect3959-9-5-4"
       width="16"
       height="16"
       x="180"
       y="1012.3622"
       rx="2"
       ry="2" />
    <rect
       style="fill:#586068;fill-opacity:1;stroke:none;opacity:0.64000000000000001"
       id="rect3959-88-2"
       width="16"
       height="16"
       x="200"
       y="1032.3622"
       rx="2"
       ry="2" />
    <rect
       style="fill:#586068;fill-opacity:1;stroke:none;opacity:0.47999999999999998"
       id="rect3959-8-6-6"
       width="16"
       height="16"
       x="200"
       y="992.36218"
       rx="2"
       ry="2" />
    <rect
       style="opacity:0.47999999999999998;fill:#586068;fill-opacity:1;stroke:none"
       id="rect3959-3-2-9"
       width="16"
       height="16"
       x="200"
       y="972.36218"
       rx="2"
       ry="2" />
    <rect
       style="fill:#586068;fill-opacity:1;stroke:none;opacity:0.64000000000000001"
       id="rect3959-9-3-55"
       width="16"
       height="16"
       x="200"
       y="1012.3622"
       rx="2"
       ry="2" />
    <rect
       style="fill:#586068;fill-opacity:1;stroke:none;opacity:0.64000000000000001"
       id="rect3959-33-3"
       width="16"
       height="16"
       x="220"
       y="1032.3622"
       rx="2"
       ry="2" />
    <rect
       style="fill:#586068;fill-opacity:1;stroke:none;opacity:0.47999999999999998"
       id="rect3959-8-0-3"
       width="16"
       height="16"
       x="220"
       y="992.36218"
       rx="2"
       ry="2" />
    <rect
       style="opacity:0.47999999999999998;fill:#586068;fill-opacity:1;stroke:none"
       id="rect3959-3-4-4"
       width="16"
       height="16"
       x="220"
       y="972.36218"
       rx="2"
       ry="2" />
    <rect
       style="opacity:0.32000000000000001;fill:#586068;fill-opacity:1;stroke:none"
       id="rect3959-35-3-6"
       width="16"
       height="16"
       x="220"
       y="952.36218"
       rx="2"
       ry="2" />
    <rect
       style="opacity:0.32000000000000001;fill:#586068;fill-opacity:1;stroke:none"
       id="rect3959-6-72-50"
       width="16"
       height="16"
       x="220"
       y="932.36218"
       rx="2"
       ry="2" />
    <rect
       style="fill:#586068;fill-opacity:1;stroke:none;opacity:0.64000000000000001"
       id="rect3959-9-9-5"
       width="16"
       height="16"
       x="220"
       y="1012.3622"
       rx="2"
       ry="2" />
    <rect
       style="fill:#586068;fill-opacity:1;stroke:none;opacity:0.64000000000000001"
       id="rect3959-33-3-3"
       width="16"
       height="16"
       x="240"
       y="1032.3622"
       rx="2"
       ry="2" />
    <rect
       style="fill:#586068;fill-opacity:1;stroke:none;opacity:0.47999999999999998"
       id="rect3959-8-0-3-2"
       width="16"
       height="16"
       x="240"
       y="992.36218"
       rx="2"
       ry="2" />
    <rect
       style="opacity:0.47999999999999998;fill:#586068;fill-opacity:1;stroke:none"
       id="rect3959-3-4-4-1"
       width="16"
       height="16"
       x="240"
       y="972.36218"
       rx="2"
       ry="2" />
    <rect
       style="opacity:0.32000000000000001;fill:#586068;fill-opacity:1;stroke:none"
       id="rect3959-35-3-6-4"
       width="16"
       height="16"
       x="240"
       y="952.36218"
       rx="2"
       ry="2" />
    <rect
       style="fill:#586068;fill-opacity:1;stroke:none;opacity:0.64000000000000001"
       id="rect3959-9-9-5-6"
       width="16"
       height="16"
       x="240"
       y="1012.3622"
       rx="2"
       ry="2" />
    <rect
       style="fill:#586068;fill-opacity:1;stroke:none;opacity:0.64000000000000001"
       id="rect3959-2"
       width="16"
       height="16"
       x="-516"
       y="1032.3622"
       rx="2"
       ry="2"
       transform="scale(-1,1)" />
    <rect
       style="fill:#586068;fill-opacity:1;stroke:none;opacity:0.47999999999999998"
       id="rect3959-8-8"
       width="16"
       height="16"
       x="-516"
       y="992.36218"
       rx="2"
       ry="2"
       transform="scale(-1,1)" />
    <rect
       style="opacity:0.47999999999999998;fill:#586068;fill-opacity:1;stroke:none"
       id="rect3959-3-3"
       width="16"
       height="16"
       x="-516"
       y="972.36218"
       rx="2"
       ry="2"
       transform="scale(-1,1)" />
    <rect
       style="fill:#586068;fill-opacity:1;stroke:none;opacity:0.64000000000000001"
       id="rect3959-9-2"
       width="16"
       height="16"
       x="-516"
       y="1012.3622"
       rx="2"
       ry="2"
       transform="scale(-1,1)" />
    <rect
       style="fill:#586068;fill-opacity:1;stroke:none;opacity:0.64000000000000001"
       id="rect3959-30-5"
       width="16"
       height="16"
       x="-496"
       y="1032.3622"
       rx="2"
       ry="2"
       transform="scale(-1,1)" />
    <rect
       style="fill:#586068;fill-opacity:1;stroke:none;opacity:0.47999999999999998"
       id="rect3959-8-4-4"
       width="16"
       height="16"
       x="-496"
       y="992.36218"
       rx="2"
       ry="2"
       transform="scale(-1,1)" />
    <rect
       style="fill:#586068;fill-opacity:1;stroke:none;opacity:0.64000000000000001"
       id="rect3959-9-5-2"
       width="16"
       height="16"
       x="-496"
       y="1012.3622"
       rx="2"
       ry="2"
       transform="scale(-1,1)" />
    <rect
       style="fill:#586068;fill-opacity:1;stroke:none;opacity:0.64000000000000001"
       id="rect3959-88-3"
       width="16"
       height="16"
       x="-476"
       y="1032.3622"
       rx="2"
       ry="2"
       transform="scale(-1,1)" />
    <rect
       style="fill:#586068;fill-opacity:1;stroke:none;opacity:0.47999999999999998"
       id="rect3959-8-6-9"
       width="16"
       height="16"
       x="-476"
       y="992.36218"
       rx="2"
       ry="2"
       transform="scale(-1,1)" />
    <rect
       style="opacity:0.47999999999999998;fill:#586068;fill-opacity:1;stroke:none"
       id="rect3959-3-2-3"
       width="16"
       height="16"
       x="-476"
       y="972.36218"
       rx="2"
       ry="2"
       transform="scale(-1,1)" />
    <rect
       style="opacity:0.32000000000000001;fill:#586068;fill-opacity:1;stroke:none"
       id="rect3959-35-2-4"
       width="16"
       height="16"
       x="-476"
       y="952.36218"
       rx="2"
       ry="2"
       transform="scale(-1,1)" />
    <rect
       style="fill:#586068;fill-opacity:1;stroke:none;opacity:0.64000000000000001"
       id="rect3959-9-3-6"
       width="16"
       height="16"
       x="-476"
       y="1012.3622"
       rx="2"
       ry="2"
       transform="scale(-1,1)" />
    <rect
       style="fill:#586068;fill-opacity:1;stroke:none;opacity:0.64000000000000001"
       id="rect3959-33-2"
       width="16"
       height="16"
       x="-456"
       y="1032.3622"
       rx="2"
       ry="2"
       transform="scale(-1,1)" />
    <rect
       style="fill:#586068;fill-opacity:1;stroke:none;opacity:0.47999999999999998"
       id="rect3959-8-0-37"
       width="16"
       height="16"
       x="-456"
       y="992.36218"
       rx="2"
       ry="2"
       transform="scale(-1,1)" />
    <rect
       style="opacity:0.47999999999999998;fill:#586068;fill-opacity:1;stroke:none"
       id="rect3959-3-4-9"
       width="16"
       height="16"
       x="-456"
       y="972.36218"
       rx="2"
       ry="2"
       transform="scale(-1,1)" />
    <rect
       style="opacity:0.32000000000000001;fill:#586068;fill-opacity:1;stroke:none"
       id="rect3959-35-3-4"
       width="16"
       height="16"
       x="-456"
       y="952.36218"
       rx="2"
       ry="2"
       transform="scale(-1,1)" />
    <rect
       style="opacity:0.32000000000000001;fill:#586068;fill-opacity:1;stroke:none"
       id="rect3959-6-72-7"
       width="16"
       height="16"
       x="-456"
       y="932.36218"
       rx="2"
       ry="2"
       transform="scale(-1,1)" />
    <rect
       style="fill:#586068;fill-opacity:1;stroke:none;opacity:0.64000000000000001"
       id="rect3959-9-9-8"
       width="16"
       height="16"
       x="-456"
       y="1012.3622"
       rx="2"
       ry="2"
       transform="scale(-1,1)" />
    <rect
       style="fill:#586068;fill-opacity:1;stroke:none;opacity:0.64000000000000001"
       id="rect3959-38-8"
       width="16"
       height="16"
       x="-436"
       y="1032.3622"
       rx="2"
       ry="2"
       transform="scale(-1,1)" />
    <rect
       style="fill:#586068;fill-opacity:1;stroke:none;opacity:0.47999999999999998"
       id="rect3959-8-65-0"
       width="16"
       height="16"
       x="-436"
       y="992.36218"
       rx="2"
       ry="2"
       transform="scale(-1,1)" />
    <rect
       style="opacity:0.47999999999999998;fill:#586068;fill-opacity:1;stroke:none"
       id="rect3959-3-5-2"
       width="16"
       height="16"
       x="-436"
       y="972.36218"
       rx="2"
       ry="2"
       transform="scale(-1,1)" />
    <rect
       style="fill:#586068;fill-opacity:1;stroke:none;opacity:0.64000000000000001"
       id="rect3959-9-0-42"
       width="16"
       height="16"
       x="-436"
       y="1012.3622"
       rx="2"
       ry="2"
       transform="scale(-1,1)" />
    <rect
       style="fill:#586068;fill-opacity:1;stroke:none;opacity:0.64000000000000001"
       id="rect3959-30-8-8"
       width="16"
       height="16"
       x="-416"
       y="1032.3622"
       rx="2"
       ry="2"
       transform="scale(-1,1)" />
    <rect
       style="fill:#586068;fill-opacity:1;stroke:none;opacity:0.47999999999999998"
       id="rect3959-8-4-8-1"
       width="16"
       height="16"
       x="-416"
       y="992.36218"
       rx="2"
       ry="2"
       transform="scale(-1,1)" />
    <rect
       style="opacity:0.47999999999999998;fill:#586068;fill-opacity:1;stroke:none"
       id="rect3959-3-1-7-0"
       width="16"
       height="16"
       x="-416"
       y="972.36218"
       rx="2"
       ry="2"
       transform="scale(-1,1)" />
    <rect
       style="opacity:0.32000000000000001;fill:#586068;fill-opacity:1;stroke:none"
       id="rect3959-35-7-2-1"
       width="16"
       height="16"
       x="-416"
       y="952.36218"
       rx="2"
       ry="2"
       transform="scale(-1,1)" />
    <rect
       style="fill:#586068;fill-opacity:1;stroke:none;opacity:0.64000000000000001"
       id="rect3959-9-5-7-4"
       width="16"
       height="16"
       x="-416"
       y="1012.3622"
       rx="2"
       ry="2"
       transform="scale(-1,1)" />
    <rect
       style="fill:#586068;fill-opacity:1;stroke:none;opacity:0.64000000000000001"
       id="rect3959-88-4-4"
       width="16"
       height="16"
       x="-396"
       y="1032.3622"
       rx="2"
       ry="2"
       transform="scale(-1,1)" />
    <rect
       style="fill:#586068;fill-opacity:1;stroke:none;opacity:0.47999999999999998"
       id="rect3959-8-6-5-74"
       width="16"
       height="16"
       x="-396"
       y="992.36218"
       rx="2"
       ry="2"
       transform="scale(-1,1)" />
    <rect
       style="fill:#586068;fill-opacity:1;stroke:none;opacity:0.64000000000000001"
       id="rect3959-9-3-5-1"
       width="16"
       height="16"
       x="-396"
       y="1012.3622"
       rx="2"
       ry="2"
       transform="scale(-1,1)" />
    <rect
       style="fill:#586068;fill-opacity:1;stroke:none;opacity:0.64000000000000001"
       id="rect3959-33-6-7"
       width="16"
       height="16"
       x="-376"
       y="1032.3622"
       rx="2"
       ry="2"
       transform="scale(-1,1)" />
    <rect
       style="fill:#586068;fill-opacity:1;stroke:none;opacity:0.64000000000000001"
       id="rect3959-9-9-3-2"
       width="16"
       height="16"
       x="-376"
       y="1012.3622"
       rx="2"
       ry="2"
       transform="scale(-1,1)" />
    <rect
       style="fill:#586068;fill-opacity:1;stroke:none;opacity:0.64000000000000001"
       id="rect3959-90-6"
       width="16"
       height="16"
       x="-356"
       y="1032.3622"
       rx="2"
       ry="2"
       transform="scale(-1,1)" />
    <rect
       style="fill:#586068;fill-opacity:1;stroke:none;opacity:0.47999999999999998"
       id="rect3959-8-3-1"
       width="16"
       height="16"
       x="-356"
       y="992.36218"
       rx="2"
       ry="2"
       transform="scale(-1,1)" />
    <rect
       style="opacity:0.47999999999999998;fill:#586068;fill-opacity:1;stroke:none"
       id="rect3959-3-7-2"
       width="16"
       height="16"
       x="-356"
       y="972.36218"
       rx="2"
       ry="2"
       transform="scale(-1,1)" />
    <rect
       style="fill:#586068;fill-opacity:1;stroke:none;opacity:0.64000000000000001"
       id="rect3959-9-36-2"
       width="16"
       height="16"
       x="-356"
       y="1012.3622"
       rx="2"
       ry="2"
       transform="scale(-1,1)" />
    <rect
       style="fill:#586068;fill-opacity:1;stroke:none;opacity:0.64000000000000001"
       id="rect3959-30-6-3"
       width="16"
       height="16"
       x="-336"
       y="1032.3622"
       rx="2"
       ry="2"
       transform="scale(-1,1)" />
    <rect
       style="fill:#586068;fill-opacity:1;stroke:none;opacity:0.47999999999999998"
       id="rect3959-8-4-2-6"
       width="16"
       height="16"
       x="-336"
       y="992.36218"
       rx="2"
       ry="2"
       transform="scale(-1,1)" />
    <rect
       style="opacity:0.47999999999999998;fill:#586068;fill-opacity:1;stroke:none"
       id="rect3959-3-1-8-60"
       width="16"
       height="16"
       x="-336"
       y="972.36218"
       rx="2"
       ry="2"
       transform="scale(-1,1)" />
    <rect
       style="opacity:0.32000000000000001;fill:#586068;fill-opacity:1;stroke:none"
       id="rect3959-35-7-1-5"
       width="16"
       height="16"
       x="-336"
       y="952.36218"
       rx="2"
       ry="2"
       transform="scale(-1,1)" />
    <rect
       style="fill:#586068;fill-opacity:1;stroke:none;opacity:0.64000000000000001"
       id="rect3959-9-5-4-1"
       width="16"
       height="16"
       x="-336"
       y="1012.3622"
       rx="2"
       ry="2"
       transform="scale(-1,1)" />
    <rect
       style="fill:#586068;fill-opacity:1;stroke:none;opacity:0.64000000000000001"
       id="rect3959-88-2-3"
       width="16"
       height="16"
       x="-316"
       y="1032.3622"
       rx="2"
       ry="2"
       transform="scale(-1,1)" />
    <rect
       style="fill:#586068;fill-opacity:1;stroke:none;opacity:0.47999999999999998"
       id="rect3959-8-6-6-6"
       width="16"
       height="16"
       x="-316"
       y="992.36218"
       rx="2"
       ry="2"
       transform="scale(-1,1)" />
    <rect
       style="fill:#586068;fill-opacity:1;stroke:none;opacity:0.64000000000000001"
       id="rect3959-9-3-55-0"
       width="16"
       height="16"
       x="-316"
       y="1012.3622"
       rx="2"
       ry="2"
       transform="scale(-1,1)" />
    <rect
       style="fill:#586068;fill-opacity:1;stroke:none;opacity:0.64000000000000001"
       id="rect3959-33-3-76"
       width="16"
       height="16"
       x="-296"
       y="1032.3622"
       rx="2"
       ry="2"
       transform="scale(-1,1)" />
    <rect
       style="fill:#586068;fill-opacity:1;stroke:none;opacity:0.47999999999999998"
       id="rect3959-8-0-3-24"
       width="16"
       height="16"
       x="-296"
       y="992.36218"
       rx="2"
       ry="2"
       transform="scale(-1,1)" />
    <rect
       style="opacity:0.47999999999999998;fill:#586068;fill-opacity:1;stroke:none"
       id="rect3959-3-4-4-3"
       width="16"
       height="16"
       x="-296"
       y="972.36218"
       rx="2"
       ry="2"
       transform="scale(-1,1)" />
    <rect
       style="fill:#586068;fill-opacity:1;stroke:none;opacity:0.64000000000000001"
       id="rect3959-9-9-5-3"
       width="16"
       height="16"
       x="-296"
       y="1012.3622"
       rx="2"
       ry="2"
       transform="scale(-1,1)" />
    <rect
       style="fill:#586068;fill-opacity:1;stroke:none;opacity:0.64000000000000001"
       id="rect3959-33-3-3-5"
       width="16"
       height="16"
       x="-276"
       y="1032.3622"
       rx="2"
       ry="2"
       transform="scale(-1,1)" />
    <rect
       style="fill:#586068;fill-opacity:1;stroke:none;opacity:0.47999999999999998"
       id="rect3959-8-0-3-2-5"
       width="16"
       height="16"
       x="-276"
       y="992.36218"
       rx="2"
       ry="2"
       transform="scale(-1,1)" />
    <rect
       style="fill:#586068;fill-opacity:1;stroke:none;opacity:0.64000000000000001"
       id="rect3959-9-9-5-6-7"
       width="16"
       height="16"
       x="-276"
       y="1012.3622"
       rx="2"
       ry="2"
       transform="scale(-1,1)" />
  </g>
</svg>
