<?xml version="1.0" encoding="UTF-8" standalone="no"?>
<!-- Created with Inkscape (http://www.inkscape.org/) -->

<svg
   xmlns:dc="http://purl.org/dc/elements/1.1/"
   xmlns:cc="http://creativecommons.org/ns#"
   xmlns:rdf="http://www.w3.org/1999/02/22-rdf-syntax-ns#"
   xmlns:svg="http://www.w3.org/2000/svg"
   xmlns="http://www.w3.org/2000/svg"
   xmlns:sodipodi="http://sodipodi.sourceforge.net/DTD/sodipodi-0.dtd"
   xmlns:inkscape="http://www.inkscape.org/namespaces/inkscape"
   width="2048"
   height="120"
   id="svg2"
   version="1.1"
   inkscape:version="0.48.2 r9819"
   sodipodi:docname="node-series.svg">
  <defs
     id="defs4" />
  <sodipodi:namedview
     id="base"
     pagecolor="#ffffff"
     bordercolor="#666666"
     borderopacity="1.0"
     inkscape:pageopacity="0.0"
     inkscape:pageshadow="2"
     inkscape:zoom="2.8"
     inkscape:cx="323.5329"
     inkscape:cy="55.109848"
     inkscape:document-units="px"
     inkscape:current-layer="layer1"
     showgrid="true"
     inkscape:showpageshadow="false"
     inkscape:window-width="1280"
     inkscape:window-height="674"
     inkscape:window-x="0"
     inkscape:window-y="0"
     inkscape:window-maximized="0">
    <inkscape:grid
       type="xygrid"
       id="grid3758"
       empspacing="8"
       visible="true"
       enabled="true"
       snapvisiblegridlinesonly="true"
       dotted="false" />
  </sodipodi:namedview>
  <metadata
     id="metadata7">
    <rdf:RDF>
      <cc:Work
         rdf:about="">
        <dc:format>image/svg+xml</dc:format>
        <dc:type
           rdf:resource="http://purl.org/dc/dcmitype/StillImage" />
        <dc:title />
      </cc:Work>
    </rdf:RDF>
  </metadata>
  <g
     inkscape:label="Layer 1"
     inkscape:groupmode="layer"
     id="layer1"
     transform="translate(0,-932.36218)">
    <rect
       style="fill:#687078;fill-opacity:1;stroke:none"
       id="rect4304"
       width="2040"
       height="2"
       x="8"
       y="991.36218" />
    <path
       sodipodi:type="arc"
       style="fill:#202428;fill-opacity:1;stroke:none"
       id="path3760-36-77"
       sodipodi:cx="64"
       sodipodi:cy="56"
       sodipodi:rx="16"
       sodipodi:ry="16"
       d="m 80,56 a 16,16 0 1 1 -32,0 16,16 0 1 1 32,0 z"
       transform="matrix(1.5,0,0,1.5,824,908.36218)" />
    <path
       sodipodi:type="arc"
       style="fill:#202428;fill-opacity:1;stroke:none"
       id="path3760-36-2"
       sodipodi:cx="64"
       sodipodi:cy="56"
       sodipodi:rx="16"
       sodipodi:ry="16"
       d="m 80,56 a 16,16 0 1 1 -32,0 16,16 0 1 1 32,0 z"
       transform="matrix(1.5,0,0,1.5,952,908.36218)" />
    <path
       sodipodi:type="arc"
       style="fill:#202428;fill-opacity:1;stroke:none"
       id="path3760-36-5"
       sodipodi:cx="64"
       sodipodi:cy="56"
       sodipodi:rx="16"
       sodipodi:ry="16"
       d="m 80,56 a 16,16 0 1 1 -32,0 16,16 0 1 1 32,0 z"
       transform="matrix(1.5,0,0,1.5,1080,908.36218)" />
    <path
       sodipodi:type="arc"
       style="fill:#202428;fill-opacity:1;stroke:none"
       id="path3760-36-63"
       sodipodi:cx="64"
       sodipodi:cy="56"
       sodipodi:rx="16"
       sodipodi:ry="16"
       d="m 80,56 a 16,16 0 1 1 -32,0 16,16 0 1 1 32,0 z"
       transform="matrix(1.5,0,0,1.5,1208,908.36218)" />
    <path
       sodipodi:type="arc"
       style="fill:#202428;fill-opacity:1;stroke:none"
       id="path3760-36-4"
       sodipodi:cx="64"
       sodipodi:cy="56"
       sodipodi:rx="16"
       sodipodi:ry="16"
       d="m 80,56 a 16,16 0 1 1 -32,0 16,16 0 1 1 32,0 z"
       transform="matrix(1.5,0,0,1.5,1336,908.36218)" />
    <path
       sodipodi:type="arc"
       style="fill:#202428;fill-opacity:1;stroke:none"
       id="path3760-36-06"
       sodipodi:cx="64"
       sodipodi:cy="56"
       sodipodi:rx="16"
       sodipodi:ry="16"
       d="m 80,56 a 16,16 0 1 1 -32,0 16,16 0 1 1 32,0 z"
       transform="matrix(1.5,0,0,1.5,1464,908.36218)" />
    <path
       sodipodi:type="arc"
       style="fill:#202428;fill-opacity:1;stroke:none"
       id="path3760-36-04"
       sodipodi:cx="64"
       sodipodi:cy="56"
       sodipodi:rx="16"
       sodipodi:ry="16"
       d="m 80,56 a 16,16 0 1 1 -32,0 16,16 0 1 1 32,0 z"
       transform="matrix(1.5,0,0,1.5,1592,908.36218)" />
    <path
       sodipodi:type="arc"
       style="fill:#202428;fill-opacity:1;stroke:none"
       id="path3760-36-05"
       sodipodi:cx="64"
       sodipodi:cy="56"
       sodipodi:rx="16"
       sodipodi:ry="16"
       d="m 80,56 a 16,16 0 1 1 -32,0 16,16 0 1 1 32,0 z"
       transform="matrix(1.5,0,0,1.5,1720,908.36218)" />
    <path
       sodipodi:type="arc"
       style="fill:#202428;fill-opacity:1;stroke:none"
       id="path3760-36-68"
       sodipodi:cx="64"
       sodipodi:cy="56"
       sodipodi:rx="16"
       sodipodi:ry="16"
       d="m 80,56 a 16,16 0 1 1 -32,0 16,16 0 1 1 32,0 z"
       transform="matrix(1.5,0,0,1.5,1848,908.36218)" />
    <path
       sodipodi:type="arc"
       style="fill:#202428;fill-opacity:1;stroke:none"
       id="path3760-36-8"
       sodipodi:cx="64"
       sodipodi:cy="56"
       sodipodi:rx="16"
       sodipodi:ry="16"
       d="m 80,56 a 16,16 0 1 1 -32,0 16,16 0 1 1 32,0 z"
       transform="matrix(1.5,0,0,1.5,696,908.36218)" />
    <path
       sodipodi:type="arc"
       style="fill:#202428;fill-opacity:1;stroke:none"
       id="path3760-36-74"
       sodipodi:cx="64"
       sodipodi:cy="56"
       sodipodi:rx="16"
       sodipodi:ry="16"
       d="m 80,56 a 16,16 0 1 1 -32,0 16,16 0 1 1 32,0 z"
       transform="matrix(1.5,0,0,1.5,568,908.36218)" />
    <path
       sodipodi:type="arc"
       style="fill:#202428;fill-opacity:1;stroke:none"
       id="path3760-36-6"
       sodipodi:cx="64"
       sodipodi:cy="56"
       sodipodi:rx="16"
       sodipodi:ry="16"
       d="m 80,56 a 16,16 0 1 1 -32,0 16,16 0 1 1 32,0 z"
       transform="matrix(1.5,0,0,1.5,440,908.36218)" />
    <path
       sodipodi:type="arc"
       style="fill:#202428;fill-opacity:1;stroke:none"
       id="path3760-36-7"
       sodipodi:cx="64"
       sodipodi:cy="56"
       sodipodi:rx="16"
       sodipodi:ry="16"
       d="m 80,56 a 16,16 0 1 1 -32,0 16,16 0 1 1 32,0 z"
       transform="matrix(1.5,0,0,1.5,312,908.36218)" />
    <path
       sodipodi:type="arc"
       style="fill:#202428;fill-opacity:1;stroke:none"
       id="path3760-36-0"
       sodipodi:cx="64"
       sodipodi:cy="56"
       sodipodi:rx="16"
       sodipodi:ry="16"
       d="m 80,56 a 16,16 0 1 1 -32,0 16,16 0 1 1 32,0 z"
       transform="matrix(1.5,0,0,1.5,184,908.36218)" />
    <path
       sodipodi:type="arc"
       style="fill:#202428;fill-opacity:1;stroke:none"
       id="path3760-36-9"
       sodipodi:cx="64"
       sodipodi:cy="56"
       sodipodi:rx="16"
       sodipodi:ry="16"
       d="m 80,56 a 16,16 0 1 1 -32,0 16,16 0 1 1 32,0 z"
       transform="matrix(1.5,0,0,1.5,56,908.36218)" />
    <path
       sodipodi:type="arc"
       style="fill:#202428;fill-opacity:1;stroke:none"
       id="path3760-36"
       sodipodi:cx="64"
       sodipodi:cy="56"
       sodipodi:rx="16"
       sodipodi:ry="16"
       d="m 80,56 a 16,16 0 1 1 -32,0 16,16 0 1 1 32,0 z"
       transform="matrix(1.5,0,0,1.5,-72,908.36218)" />
    <path
       sodipodi:type="arc"
       style="fill:#20d868;fill-opacity:1;stroke:none"
       id="path3760"
       sodipodi:cx="64"
       sodipodi:cy="56"
       sodipodi:rx="16"
       sodipodi:ry="16"
       d="m 80,56 a 16,16 0 1 1 -32,0 16,16 0 1 1 32,0 z"
       transform="translate(-40,936.36218)" />
    <path
       sodipodi:type="arc"
       style="fill:#202428;fill-opacity:1;stroke:none"
       id="path3760-3"
       sodipodi:cx="64"
       sodipodi:cy="56"
       sodipodi:rx="16"
       sodipodi:ry="16"
       d="m 80,56 a 16,16 0 1 1 -32,0 16,16 0 1 1 32,0 z"
       transform="matrix(0.75,0,0,0.75,-24,950.36218)" />
    <path
       sodipodi:type="arc"
       style="fill:#20d868;fill-opacity:1;stroke:none"
       id="path3760-5"
       sodipodi:cx="64"
       sodipodi:cy="56"
       sodipodi:rx="16"
       sodipodi:ry="16"
       d="m 80,56 a 16,16 0 1 1 -32,0 16,16 0 1 1 32,0 z"
       transform="matrix(0.5,0,0,0.5,-8,964.36218)" />
    <path
       sodipodi:type="arc"
       style="fill:#c420d8;fill-opacity:1;stroke:none"
       id="path3760-0"
       sodipodi:cx="64"
       sodipodi:cy="56"
       sodipodi:rx="16"
       sodipodi:ry="16"
       d="m 80,56 a 16,16 0 1 1 -32,0 16,16 0 1 1 32,0 z"
       transform="translate(88,936.36218)" />
    <path
       sodipodi:type="arc"
       style="fill:#202428;fill-opacity:1;stroke:none"
       id="path3760-3-3"
       sodipodi:cx="64"
       sodipodi:cy="56"
       sodipodi:rx="16"
       sodipodi:ry="16"
       d="m 80,56 a 16,16 0 1 1 -32,0 16,16 0 1 1 32,0 z"
       transform="matrix(0.75,0,0,0.75,104,950.36218)" />
    <path
       sodipodi:type="arc"
       style="fill:#c420d8;fill-opacity:1;stroke:none"
       id="path3760-5-6"
       sodipodi:cx="64"
       sodipodi:cy="56"
       sodipodi:rx="16"
       sodipodi:ry="16"
       d="m 80,56 a 16,16 0 1 1 -32,0 16,16 0 1 1 32,0 z"
       transform="matrix(0.5,0,0,0.5,120,964.36218)" />
    <path
       sodipodi:type="arc"
       style="fill:#d86820;fill-opacity:1;stroke:none"
       id="path3760-02"
       sodipodi:cx="64"
       sodipodi:cy="56"
       sodipodi:rx="16"
       sodipodi:ry="16"
       d="m 80,56 a 16,16 0 1 1 -32,0 16,16 0 1 1 32,0 z"
       transform="translate(216,936.36218)" />
    <path
       sodipodi:type="arc"
       style="fill:#202428;fill-opacity:1;stroke:none"
       id="path3760-3-4"
       sodipodi:cx="64"
       sodipodi:cy="56"
       sodipodi:rx="16"
       sodipodi:ry="16"
       d="m 80,56 a 16,16 0 1 1 -32,0 16,16 0 1 1 32,0 z"
       transform="matrix(0.75,0,0,0.75,232,950.36218)" />
    <path
       sodipodi:type="arc"
       style="fill:#d86820;fill-opacity:1;stroke:none"
       id="path3760-5-0"
       sodipodi:cx="64"
       sodipodi:cy="56"
       sodipodi:rx="16"
       sodipodi:ry="16"
       d="m 80,56 a 16,16 0 1 1 -32,0 16,16 0 1 1 32,0 z"
       transform="matrix(0.5,0,0,0.5,248,964.36218)" />
    <path
       sodipodi:type="arc"
       style="fill:#687078;fill-opacity:1;stroke:none"
       id="path3760-7"
       sodipodi:cx="64"
       sodipodi:cy="56"
       sodipodi:rx="16"
       sodipodi:ry="16"
       d="m 80,56 a 16,16 0 1 1 -32,0 16,16 0 1 1 32,0 z"
       transform="translate(344,936.36218)" />
    <path
       sodipodi:type="arc"
       style="fill:#202428;fill-opacity:1;stroke:none"
       id="path3760-3-0"
       sodipodi:cx="64"
       sodipodi:cy="56"
       sodipodi:rx="16"
       sodipodi:ry="16"
       d="m 80,56 a 16,16 0 1 1 -32,0 16,16 0 1 1 32,0 z"
       transform="matrix(0.75,0,0,0.75,360,950.36218)" />
    <path
       sodipodi:type="arc"
       style="fill:#687078;fill-opacity:1;stroke:none"
       id="path3760-5-1"
       sodipodi:cx="64"
       sodipodi:cy="56"
       sodipodi:rx="16"
       sodipodi:ry="16"
       d="m 80,56 a 16,16 0 1 1 -32,0 16,16 0 1 1 32,0 z"
       transform="matrix(0.5,0,0,0.5,376,964.36218)" />
    <path
       sodipodi:type="arc"
       style="fill:#d86820;fill-opacity:1;stroke:none"
       id="path3760-2"
       sodipodi:cx="64"
       sodipodi:cy="56"
       sodipodi:rx="16"
       sodipodi:ry="16"
       d="m 80,56 a 16,16 0 1 1 -32,0 16,16 0 1 1 32,0 z"
       transform="translate(472,936.36218)" />
    <path
       sodipodi:type="arc"
       style="fill:#202428;fill-opacity:1;stroke:none"
       id="path3760-3-49"
       sodipodi:cx="64"
       sodipodi:cy="56"
       sodipodi:rx="16"
       sodipodi:ry="16"
       d="m 80,56 a 16,16 0 1 1 -32,0 16,16 0 1 1 32,0 z"
       transform="matrix(0.75,0,0,0.75,488,950.36218)" />
    <path
       sodipodi:type="arc"
       style="fill:#d86820;fill-opacity:1;stroke:none"
       id="path3760-5-7"
       sodipodi:cx="64"
       sodipodi:cy="56"
       sodipodi:rx="16"
       sodipodi:ry="16"
       d="m 80,56 a 16,16 0 1 1 -32,0 16,16 0 1 1 32,0 z"
       transform="matrix(0.5,0,0,0.5,504,964.36218)" />
    <path
       sodipodi:type="arc"
       style="fill:#687078;fill-opacity:1;stroke:none"
       id="path3760-07"
       sodipodi:cx="64"
       sodipodi:cy="56"
       sodipodi:rx="16"
       sodipodi:ry="16"
       d="m 80,56 a 16,16 0 1 1 -32,0 16,16 0 1 1 32,0 z"
       transform="translate(600,936.36218)" />
    <path
       sodipodi:type="arc"
       style="fill:#202428;fill-opacity:1;stroke:none"
       id="path3760-3-1"
       sodipodi:cx="64"
       sodipodi:cy="56"
       sodipodi:rx="16"
       sodipodi:ry="16"
       d="m 80,56 a 16,16 0 1 1 -32,0 16,16 0 1 1 32,0 z"
       transform="matrix(0.75,0,0,0.75,616,950.36218)" />
    <path
       sodipodi:type="arc"
       style="fill:#687078;fill-opacity:1;stroke:none"
       id="path3760-5-60"
       sodipodi:cx="64"
       sodipodi:cy="56"
       sodipodi:rx="16"
       sodipodi:ry="16"
       d="m 80,56 a 16,16 0 1 1 -32,0 16,16 0 1 1 32,0 z"
       transform="matrix(0.5,0,0,0.5,632,964.36218)" />
    <path
       sodipodi:type="arc"
       style="fill:#20d868;fill-opacity:1;stroke:none"
       id="path3760-028"
       sodipodi:cx="64"
       sodipodi:cy="56"
       sodipodi:rx="16"
       sodipodi:ry="16"
       d="m 80,56 a 16,16 0 1 1 -32,0 16,16 0 1 1 32,0 z"
       transform="translate(728,936.36218)" />
    <path
       sodipodi:type="arc"
       style="fill:#202428;fill-opacity:1;stroke:none"
       id="path3760-3-44"
       sodipodi:cx="64"
       sodipodi:cy="56"
       sodipodi:rx="16"
       sodipodi:ry="16"
       d="m 80,56 a 16,16 0 1 1 -32,0 16,16 0 1 1 32,0 z"
       transform="matrix(0.75,0,0,0.75,744,950.36218)" />
    <path
       sodipodi:type="arc"
       style="fill:#20d868;fill-opacity:1;stroke:none"
       id="path3760-5-8"
       sodipodi:cx="64"
       sodipodi:cy="56"
       sodipodi:rx="16"
       sodipodi:ry="16"
       d="m 80,56 a 16,16 0 1 1 -32,0 16,16 0 1 1 32,0 z"
       transform="matrix(0.5,0,0,0.5,760,964.36218)" />
    <path
       sodipodi:type="arc"
       style="fill:#c420d7;fill-opacity:1;stroke:none"
       id="path3760-1"
       sodipodi:cx="64"
       sodipodi:cy="56"
       sodipodi:rx="16"
       sodipodi:ry="16"
       d="m 80,56 a 16,16 0 1 1 -32,0 16,16 0 1 1 32,0 z"
       transform="translate(856,936.36218)" />
    <path
       sodipodi:type="arc"
       style="fill:#202428;fill-opacity:1;stroke:none"
       id="path3760-3-11"
       sodipodi:cx="64"
       sodipodi:cy="56"
       sodipodi:rx="16"
       sodipodi:ry="16"
       d="m 80,56 a 16,16 0 1 1 -32,0 16,16 0 1 1 32,0 z"
       transform="matrix(0.75,0,0,0.75,872,950.36218)" />
    <path
       sodipodi:type="arc"
       style="fill:#c420d7;fill-opacity:1;stroke:none"
       id="path3760-5-5"
       sodipodi:cx="64"
       sodipodi:cy="56"
       sodipodi:rx="16"
       sodipodi:ry="16"
       d="m 80,56 a 16,16 0 1 1 -32,0 16,16 0 1 1 32,0 z"
       transform="matrix(0.5,0,0,0.5,888,964.36218)" />
    <path
       sodipodi:type="arc"
       style="fill:#687078;fill-opacity:1;stroke:none"
       id="path3760-8"
       sodipodi:cx="64"
       sodipodi:cy="56"
       sodipodi:rx="16"
       sodipodi:ry="16"
       d="m 80,56 a 16,16 0 1 1 -32,0 16,16 0 1 1 32,0 z"
       transform="translate(984,936.36218)" />
    <path
       sodipodi:type="arc"
       style="fill:#202428;fill-opacity:1;stroke:none"
       id="path3760-3-5"
       sodipodi:cx="64"
       sodipodi:cy="56"
       sodipodi:rx="16"
       sodipodi:ry="16"
       d="m 80,56 a 16,16 0 1 1 -32,0 16,16 0 1 1 32,0 z"
       transform="matrix(0.75,0,0,0.75,1000,950.36218)" />
    <path
       sodipodi:type="arc"
       style="fill:#687078;fill-opacity:1;stroke:none"
       id="path3760-5-3"
       sodipodi:cx="64"
       sodipodi:cy="56"
       sodipodi:rx="16"
       sodipodi:ry="16"
       d="m 80,56 a 16,16 0 1 1 -32,0 16,16 0 1 1 32,0 z"
       transform="matrix(0.5,0,0,0.5,1016,964.36218)" />
    <path
       sodipodi:type="arc"
       style="fill:#20d868;fill-opacity:1;stroke:none"
       id="path3760-80"
       sodipodi:cx="64"
       sodipodi:cy="56"
       sodipodi:rx="16"
       sodipodi:ry="16"
       d="m 80,56 a 16,16 0 1 1 -32,0 16,16 0 1 1 32,0 z"
       transform="translate(1112,936.36218)" />
    <path
       sodipodi:type="arc"
       style="fill:#202428;fill-opacity:1;stroke:none"
       id="path3760-3-9"
       sodipodi:cx="64"
       sodipodi:cy="56"
       sodipodi:rx="16"
       sodipodi:ry="16"
       d="m 80,56 a 16,16 0 1 1 -32,0 16,16 0 1 1 32,0 z"
       transform="matrix(0.75,0,0,0.75,1128,950.36218)" />
    <path
       sodipodi:type="arc"
       style="fill:#20d868;fill-opacity:1;stroke:none"
       id="path3760-5-2"
       sodipodi:cx="64"
       sodipodi:cy="56"
       sodipodi:rx="16"
       sodipodi:ry="16"
       d="m 80,56 a 16,16 0 1 1 -32,0 16,16 0 1 1 32,0 z"
       transform="matrix(0.5,0,0,0.5,1144,964.36218)" />
    <path
       sodipodi:type="arc"
       style="fill:#20d868;fill-opacity:1;stroke:none"
       id="path3760-55"
       sodipodi:cx="64"
       sodipodi:cy="56"
       sodipodi:rx="16"
       sodipodi:ry="16"
       d="m 80,56 a 16,16 0 1 1 -32,0 16,16 0 1 1 32,0 z"
       transform="translate(1240,936.36218)" />
    <path
       sodipodi:type="arc"
       style="fill:#202428;fill-opacity:1;stroke:none"
       id="path3760-3-443"
       sodipodi:cx="64"
       sodipodi:cy="56"
       sodipodi:rx="16"
       sodipodi:ry="16"
       d="m 80,56 a 16,16 0 1 1 -32,0 16,16 0 1 1 32,0 z"
       transform="matrix(0.75,0,0,0.75,1256,950.36218)" />
    <path
       sodipodi:type="arc"
       style="fill:#20d868;fill-opacity:1;stroke:none"
       id="path3760-5-82"
       sodipodi:cx="64"
       sodipodi:cy="56"
       sodipodi:rx="16"
       sodipodi:ry="16"
       d="m 80,56 a 16,16 0 1 1 -32,0 16,16 0 1 1 32,0 z"
       transform="matrix(0.5,0,0,0.5,1272,964.36218)" />
    <path
       sodipodi:type="arc"
       style="fill:#c420d8;fill-opacity:1;stroke:none"
       id="path3760-08"
       sodipodi:cx="64"
       sodipodi:cy="56"
       sodipodi:rx="16"
       sodipodi:ry="16"
       d="m 80,56 a 16,16 0 1 1 -32,0 16,16 0 1 1 32,0 z"
       transform="translate(1368,936.36218)" />
    <path
       sodipodi:type="arc"
       style="fill:#202428;fill-opacity:1;stroke:none"
       id="path3760-3-17"
       sodipodi:cx="64"
       sodipodi:cy="56"
       sodipodi:rx="16"
       sodipodi:ry="16"
       d="m 80,56 a 16,16 0 1 1 -32,0 16,16 0 1 1 32,0 z"
       transform="matrix(0.75,0,0,0.75,1384,950.36218)" />
    <path
       sodipodi:type="arc"
       style="fill:#c420d8;fill-opacity:1;stroke:none"
       id="path3760-5-67"
       sodipodi:cx="64"
       sodipodi:cy="56"
       sodipodi:rx="16"
       sodipodi:ry="16"
       d="m 80,56 a 16,16 0 1 1 -32,0 16,16 0 1 1 32,0 z"
       transform="matrix(0.5,0,0,0.5,1400,964.36218)" />
    <path
       sodipodi:type="arc"
       style="fill:#d86820;fill-opacity:1;stroke:none"
       id="path3760-53"
       sodipodi:cx="64"
       sodipodi:cy="56"
       sodipodi:rx="16"
       sodipodi:ry="16"
       d="m 80,56 a 16,16 0 1 1 -32,0 16,16 0 1 1 32,0 z"
       transform="translate(1496,936.36218)" />
    <path
       sodipodi:type="arc"
       style="fill:#202428;fill-opacity:1;stroke:none"
       id="path3760-3-19"
       sodipodi:cx="64"
       sodipodi:cy="56"
       sodipodi:rx="16"
       sodipodi:ry="16"
       d="m 80,56 a 16,16 0 1 1 -32,0 16,16 0 1 1 32,0 z"
       transform="matrix(0.75,0,0,0.75,1512,950.36218)" />
    <path
       sodipodi:type="arc"
       style="fill:#d86820;fill-opacity:1;stroke:none"
       id="path3760-5-39"
       sodipodi:cx="64"
       sodipodi:cy="56"
       sodipodi:rx="16"
       sodipodi:ry="16"
       d="m 80,56 a 16,16 0 1 1 -32,0 16,16 0 1 1 32,0 z"
       transform="matrix(0.5,0,0,0.5,1528,964.36218)" />
    <path
       sodipodi:type="arc"
       style="fill:#d86820;fill-opacity:1;stroke:none"
       id="path3760-03"
       sodipodi:cx="64"
       sodipodi:cy="56"
       sodipodi:rx="16"
       sodipodi:ry="16"
       d="m 80,56 a 16,16 0 1 1 -32,0 16,16 0 1 1 32,0 z"
       transform="translate(1624,936.36218)" />
    <path
       sodipodi:type="arc"
       style="fill:#202428;fill-opacity:1;stroke:none"
       id="path3760-3-2"
       sodipodi:cx="64"
       sodipodi:cy="56"
       sodipodi:rx="16"
       sodipodi:ry="16"
       d="m 80,56 a 16,16 0 1 1 -32,0 16,16 0 1 1 32,0 z"
       transform="matrix(0.75,0,0,0.75,1640,950.36218)" />
    <path
       sodipodi:type="arc"
       style="fill:#d86820;fill-opacity:1;stroke:none"
       id="path3760-5-824"
       sodipodi:cx="64"
       sodipodi:cy="56"
       sodipodi:rx="16"
       sodipodi:ry="16"
       d="m 80,56 a 16,16 0 1 1 -32,0 16,16 0 1 1 32,0 z"
       transform="matrix(0.5,0,0,0.5,1656,964.36218)" />
    <path
       sodipodi:type="arc"
       style="fill:#687078;fill-opacity:1;stroke:none"
       id="path3760-70"
       sodipodi:cx="64"
       sodipodi:cy="56"
       sodipodi:rx="16"
       sodipodi:ry="16"
       d="m 80,56 a 16,16 0 1 1 -32,0 16,16 0 1 1 32,0 z"
       transform="translate(1752,936.36218)" />
    <path
       sodipodi:type="arc"
       style="fill:#202428;fill-opacity:1;stroke:none"
       id="path3760-3-7"
       sodipodi:cx="64"
       sodipodi:cy="56"
       sodipodi:rx="16"
       sodipodi:ry="16"
       d="m 80,56 a 16,16 0 1 1 -32,0 16,16 0 1 1 32,0 z"
       transform="matrix(0.75,0,0,0.75,1768,950.36218)" />
    <path
       sodipodi:type="arc"
       style="fill:#687078;fill-opacity:1;stroke:none"
       id="path3760-5-33"
       sodipodi:cx="64"
       sodipodi:cy="56"
       sodipodi:rx="16"
       sodipodi:ry="16"
       d="m 80,56 a 16,16 0 1 1 -32,0 16,16 0 1 1 32,0 z"
       transform="matrix(0.5,0,0,0.5,1784,964.36218)" />
    <path
       sodipodi:type="arc"
       style="fill:#c420d8;fill-opacity:1;stroke:none"
       id="path3760-73"
       sodipodi:cx="64"
       sodipodi:cy="56"
       sodipodi:rx="16"
       sodipodi:ry="16"
       d="m 80,56 a 16,16 0 1 1 -32,0 16,16 0 1 1 32,0 z"
       transform="translate(1880,936.36218)" />
    <path
       sodipodi:type="arc"
       style="fill:#202428;fill-opacity:1;stroke:none"
       id="path3760-3-8"
       sodipodi:cx="64"
       sodipodi:cy="56"
       sodipodi:rx="16"
       sodipodi:ry="16"
       d="m 80,56 a 16,16 0 1 1 -32,0 16,16 0 1 1 32,0 z"
       transform="matrix(0.75,0,0,0.75,1896,950.36218)" />
    <path
       sodipodi:type="arc"
       style="fill:#c420d8;fill-opacity:1;stroke:none"
       id="path3760-5-4"
       sodipodi:cx="64"
       sodipodi:cy="56"
       sodipodi:rx="16"
       sodipodi:ry="16"
       d="m 80,56 a 16,16 0 1 1 -32,0 16,16 0 1 1 32,0 z"
       transform="matrix(0.5,0,0,0.5,1912,964.36218)" />
  </g>
</svg>
