<?xml version="1.0" encoding="UTF-8" standalone="no"?>
<!-- Created with Inkscape (http://www.inkscape.org/) -->

<svg
   xmlns:dc="http://purl.org/dc/elements/1.1/"
   xmlns:cc="http://creativecommons.org/ns#"
   xmlns:rdf="http://www.w3.org/1999/02/22-rdf-syntax-ns#"
   xmlns:svg="http://www.w3.org/2000/svg"
   xmlns="http://www.w3.org/2000/svg"
   xmlns:sodipodi="http://sodipodi.sourceforge.net/DTD/sodipodi-0.dtd"
   xmlns:inkscape="http://www.inkscape.org/namespaces/inkscape"
   width="88"
   height="54.000011"
   id="svg3882"
   version="1.1"
   inkscape:version="0.48.2 r9819"
   sodipodi:docname="node-tip-up-alt.svg">
  <defs
     id="defs3884" />
  <sodipodi:namedview
     id="base"
     pagecolor="#ffffff"
     bordercolor="#666666"
     borderopacity="1.0"
     inkscape:pageopacity="0.0"
     inkscape:pageshadow="2"
     inkscape:zoom="5.6568542"
     inkscape:cx="50.276284"
     inkscape:cy="27.285726"
     inkscape:document-units="px"
     inkscape:current-layer="layer1"
     showgrid="false"
     fit-margin-top="0"
     fit-margin-left="0"
     fit-margin-right="0"
     fit-margin-bottom="0"
     inkscape:showpageshadow="false"
     inkscape:window-width="1280"
     inkscape:window-height="668"
     inkscape:window-x="0"
     inkscape:window-y="0"
     inkscape:window-maximized="1" />
  <metadata
     id="metadata3887">
    <rdf:RDF>
      <cc:Work
         rdf:about="">
        <dc:format>image/svg+xml</dc:format>
        <dc:type
           rdf:resource="http://purl.org/dc/dcmitype/StillImage" />
        <dc:title />
      </cc:Work>
    </rdf:RDF>
  </metadata>
  <g
     inkscape:label="Layer 1"
     inkscape:groupmode="layer"
     id="layer1"
     transform="translate(-296,-484.21933)">
    <rect
       style="fill:#586068;fill-opacity:1;stroke:none"
       id="rect3908"
       width="11.313708"
       height="11.313708"
       x="-140.16223"
       y="609.68115"
       transform="matrix(0.70710678,-0.70710678,0.70710678,0.70710678,0,0)" />
    <rect
       style="fill:#586068;fill-opacity:1;stroke:none"
       id="rect2987"
       width="88"
       height="48"
       x="296"
       y="484.21933"
       rx="4"
       ry="4" />
    <path
       sodipodi:type="arc"
       style="fill:#00c8f8;fill-opacity:1;stroke:none"
       id="path3779"
       sodipodi:cx="-10.982142"
       sodipodi:cy="23.267857"
       sodipodi:rx="7.9464288"
       sodipodi:ry="9.9107141"
       d="m -3.0357137,23.267857 a 7.9464288,9.9107141 0 1 1 -15.8928573,0 7.9464288,9.9107141 0 1 1 15.8928573,0 z"
       transform="matrix(1.8876404,0,0,1.5135135,336.73034,473.00311)" />
    <path
       sodipodi:type="star"
       style="fill:#f8f880;fill-opacity:1;stroke:none"
       id="path3805"
       sodipodi:sides="3"
       sodipodi:cx="-18.928572"
       sodipodi:cy="27.464287"
       sodipodi:r1="18.130938"
       sodipodi:r2="9.0654688"
       sodipodi:arg1="0.52359878"
       sodipodi:arg2="1.5707963"
       inkscape:flatsided="true"
       inkscape:rounded="0"
       inkscape:randomized="0"
       d="m -3.2267192,36.529756 -31.4037048,0 15.701852,-27.1964068 z"
       transform="matrix(0,-0.76424103,0.51477389,0,311.19543,493.75334)"
       inkscape:transform-center-x="2.3333404" />
    <path
       style="fill:#586068;fill-opacity:1;stroke:none"
       d="m 316,488.21933 c -11.04569,0 -20,8.9543 -20,20 0,11.04569 8.95431,20 20,20 11.0457,0 20,-8.95431 20,-20 0,-11.0457 -8.9543,-20 -20,-20 z m 0,8 c 6.62742,0 12,5.37258 12,12 0,6.62741 -5.37258,12 -12,12 -6.62741,0 -12,-5.37259 -12,-12 0,-6.62742 5.37259,-12 12,-12 z"
       id="path3757-0"
       inkscape:connector-curvature="0" />
    <path
       sodipodi:type="arc"
       style="fill:#586068;fill-opacity:1;stroke:none"
       id="path3779-6"
       sodipodi:cx="-10.982142"
       sodipodi:cy="23.267857"
       sodipodi:rx="7.9464288"
       sodipodi:ry="9.9107141"
       d="m -3.0357137,23.267857 a 7.9464288,9.9107141 0 1 1 -15.8928573,0 7.9464288,9.9107141 0 1 1 15.8928573,0 z"
       transform="matrix(0.75505616,0,0,0.60540543,324.29214,494.13284)" />
    <rect
       style="fill:#f880f8;fill-opacity:1;stroke:none"
       id="rect3817"
       width="40"
       height="6"
       x="336"
       y="505.21933"
       rx="2"
       ry="2" />
    <rect
       style="fill:#f880f8;fill-opacity:1;stroke:none"
       id="rect3817-9"
       width="40"
       height="6"
       x="336"
       y="514.21936"
       rx="2"
       ry="2" />
    <rect
       style="fill:#f880f8;fill-opacity:1;stroke:none"
       id="rect3817-0"
       width="40"
       height="6"
       x="336"
       y="496.21933"
       rx="2"
       ry="2" />
    <rect
       style="opacity:0.23999999;fill:#000000;fill-opacity:1;stroke:none"
       id="rect3795"
       width="8"
       height="6"
       x="344"
       y="496.21933" />
    <rect
       style="opacity:0.23999999;fill:#000000;fill-opacity:1;stroke:none"
       id="rect3795-8"
       width="8"
       height="6"
       x="360"
       y="505.21933" />
    <rect
       style="opacity:0.23999999;fill:#000000;fill-opacity:1;stroke:none"
       id="rect3795-23"
       width="8"
       height="6"
       x="352"
       y="514.21936" />
  </g>
</svg>
