<?xml version="1.0" encoding="UTF-8" standalone="no"?>
<!-- Created with Inkscape (http://www.inkscape.org/) -->

<svg
   xmlns:dc="http://purl.org/dc/elements/1.1/"
   xmlns:cc="http://creativecommons.org/ns#"
   xmlns:rdf="http://www.w3.org/1999/02/22-rdf-syntax-ns#"
   xmlns:svg="http://www.w3.org/2000/svg"
   xmlns="http://www.w3.org/2000/svg"
   xmlns:sodipodi="http://sodipodi.sourceforge.net/DTD/sodipodi-0.dtd"
   xmlns:inkscape="http://www.inkscape.org/namespaces/inkscape"
   width="304"
   height="160.00006"
   id="svg3086"
   version="1.1"
   inkscape:version="0.48.2 r9819"
   sodipodi:docname="street-map.svg">
  <defs
     id="defs3088" />
  <sodipodi:namedview
     id="base"
     pagecolor="#ffffff"
     bordercolor="#666666"
     borderopacity="1.0"
     inkscape:pageopacity="0.0"
     inkscape:pageshadow="2"
     inkscape:zoom="3.959798"
     inkscape:cx="54.26338"
     inkscape:cy="108.73678"
     inkscape:document-units="px"
     inkscape:current-layer="layer1"
     showgrid="false"
     fit-margin-top="0"
     fit-margin-left="0"
     fit-margin-right="0"
     fit-margin-bottom="0"
     inkscape:showpageshadow="false"
     inkscape:window-width="1280"
     inkscape:window-height="684"
     inkscape:window-x="0"
     inkscape:window-y="0"
     inkscape:window-maximized="0" />
  <metadata
     id="metadata3091">
    <rdf:RDF>
      <cc:Work
         rdf:about="">
        <dc:format>image/svg+xml</dc:format>
        <dc:type
           rdf:resource="http://purl.org/dc/dcmitype/StillImage" />
        <dc:title />
      </cc:Work>
    </rdf:RDF>
  </metadata>
  <g
     inkscape:label="Layer 1"
     inkscape:groupmode="layer"
     id="layer1"
     transform="translate(-179.42857,-521.505)">
    <rect
       style="fill:#586068;fill-opacity:1;stroke:none"
       id="rect2985-8-1-3"
       width="304"
       height="160"
       x="179.42857"
       y="521.505" />
    <path
       style="fill:#000000"
       d=""
       id="path4989"
       inkscape:connector-curvature="0" />
    <path
       style="fill:#000000"
       d=""
       id="path4987"
       inkscape:connector-curvature="0" />
    <path
       style="fill:#000000"
       d=""
       id="path4983"
       inkscape:connector-curvature="0" />
    <rect
       style="fill:#485058;fill-opacity:1;stroke:none"
       id="rect5039"
       width="16"
       height="160"
       x="267.42856"
       y="521.50507" />
    <rect
       style="fill:#485058;fill-opacity:1;stroke:none"
       id="rect5039-7"
       width="16"
       height="240"
       x="-641.50507"
       y="179.42857"
       transform="matrix(0,-1,1,0,0,0)" />
    <rect
       style="fill:#485058;fill-opacity:1;stroke:none"
       id="rect5039-3"
       width="16"
       height="160"
       x="371.42859"
       y="521.50507" />
    <rect
       style="fill:#889098;fill-opacity:1;stroke:none"
       id="rect5039-9"
       width="8"
       height="96"
       x="271.42856"
       y="569.50507"
       rx="2"
       ry="2" />
    <rect
       style="fill:#889098;fill-opacity:1;stroke:none"
       id="rect5039-9-0"
       width="8"
       height="112"
       x="629.50507"
       y="-383.42859"
       transform="matrix(0,1,-1,0,0,0)"
       rx="2"
       ry="2" />
    <rect
       style="fill:#889098;fill-opacity:1;stroke:none"
       id="rect5039-9-5"
       width="8"
       height="56"
       x="375.42859"
       y="581.50507"
       rx="2"
       ry="2.3333333" />
    <path
       sodipodi:type="arc"
       style="fill:#889098;fill-opacity:1;stroke:none"
       id="path5151-5"
       sodipodi:cx="-28.449999"
       sodipodi:cy="99.182037"
       sodipodi:rx="16.296602"
       sodipodi:ry="19.058737"
       d="m -12.153397,99.182037 c 0,10.525853 -7.296237,19.058733 -16.296602,19.058733 -9.000365,0 -16.296602,-8.53288 -16.296602,-19.058733 0,-10.525849 7.296237,-19.058736 16.296602,-19.058736 9.000365,0 16.296602,8.532887 16.296602,19.058736 z"
       transform="matrix(0.73634981,0,0,0.62963249,296.37772,599.05681)" />
    <rect
       style="fill:#485058;fill-opacity:1;stroke:none"
       id="rect5039-7-7"
       width="16"
       height="88"
       x="-577.50507"
       y="179.42857"
       transform="matrix(0,-1,1,0,0,0)" />
    <rect
       style="fill:#485058;fill-opacity:1;stroke:none"
       id="rect5039-7-7-3"
       width="16"
       height="96"
       x="-593.50507"
       y="387.42859"
       transform="matrix(0,-1,1,0,0,0)" />
    <rect
       style="fill:#889098;fill-opacity:1;stroke:none"
       id="rect5039-9-0-8"
       width="8"
       height="64"
       x="581.50507"
       y="-439.42856"
       transform="matrix(0,1,-1,0,0,0)"
       rx="2"
       ry="1.4545455" />
    <rect
       style="fill:#889098;fill-opacity:1;stroke:none"
       id="rect5039-9-0-8-3"
       width="8"
       height="32"
       x="565.50507"
       y="-279.42856"
       transform="matrix(0,1,-1,0,0,0)"
       rx="2"
       ry="2" />
    <rect
       ry="2"
       rx="2"
       style="fill:#485058;fill-opacity:1;stroke:none"
       id="rect5245"
       width="72"
       height="24"
       x="291.42859"
       y="529.50507" />
    <rect
       ry="2"
       rx="2"
       style="fill:#485058;fill-opacity:1;stroke:none"
       id="rect5245-3"
       width="56"
       height="24"
       x="-617.50507"
       y="291.42859"
       transform="matrix(0,-1,1,0,0,0)" />
    <rect
       ry="2"
       rx="2"
       style="fill:#485058;fill-opacity:1;stroke:none"
       id="rect5245-2"
       width="40"
       height="56"
       x="323.42859"
       y="561.50507" />
    <g
       id="g3820"
       transform="translate(48,0)">
      <path
         transform="matrix(0.73634981,0,0,0.62963249,220.37772,507.05681)"
         d="m -12.153397,99.182037 c 0,10.525853 -7.296237,19.058733 -16.296602,19.058733 -9.000365,0 -16.296602,-8.53288 -16.296602,-19.058733 0,-10.525849 7.296237,-19.058736 16.296602,-19.058736 9.000365,0 16.296602,8.532887 16.296602,19.058736 z"
         sodipodi:ry="19.058737"
         sodipodi:rx="16.296602"
         sodipodi:cy="99.182037"
         sodipodi:cx="-28.449999"
         id="path5151-5-7"
         style="fill:#889098;fill-opacity:1;stroke:none"
         sodipodi:type="arc" />
      <path
         transform="matrix(0.24544994,0,0,0.2098775,206.41162,548.68897)"
         d="m -12.153397,99.182037 c 0,10.525853 -7.296237,19.058733 -16.296602,19.058733 -9.000365,0 -16.296602,-8.53288 -16.296602,-19.058733 0,-10.525849 7.296237,-19.058736 16.296602,-19.058736 9.000365,0 16.296602,8.532887 16.296602,19.058736 z"
         sodipodi:ry="19.058737"
         sodipodi:rx="16.296602"
         sodipodi:cy="99.182037"
         sodipodi:cx="-28.449999"
         id="path5151-5-7-3"
         style="fill:#485058;fill-opacity:1;stroke:none"
         sodipodi:type="arc" />
    </g>
    <path
       sodipodi:type="arc"
       style="fill:#485058;fill-opacity:1;stroke:none"
       id="path5151-5-7-6"
       sodipodi:cx="-28.449999"
       sodipodi:cy="99.182037"
       sodipodi:rx="16.296602"
       sodipodi:ry="19.058737"
       d="m -12.153397,99.182037 c 0,10.525853 -7.296237,19.058733 -16.296602,19.058733 -9.000365,0 -16.296602,-8.53288 -16.296602,-19.058733 0,-10.525849 7.296237,-19.058736 16.296602,-19.058736 9.000365,0 16.296602,8.532887 16.296602,19.058736 z"
       transform="matrix(0.24544994,0,0,0.2098775,282.41162,640.68897)" />
    <path
       sodipodi:type="arc"
       style="fill:#889098;fill-opacity:1;stroke:none"
       id="path5151"
       sodipodi:cx="-28.449999"
       sodipodi:cy="99.182037"
       sodipodi:rx="16.296602"
       sodipodi:ry="19.058737"
       d="m -12.153397,99.182037 a 16.296602,19.058737 0 1 1 -32.593204,0 16.296602,19.058737 0 1 1 32.593204,0 z"
       transform="matrix(0.73634981,0,0,0.62963249,456.37772,523.05681)" />
    <path
       sodipodi:type="arc"
       style="fill:#485058;fill-opacity:1;stroke:none"
       id="path5151-5-7-5"
       sodipodi:cx="-28.449999"
       sodipodi:cy="99.182037"
       sodipodi:rx="16.296602"
       sodipodi:ry="19.058737"
       d="m -12.153397,99.182037 a 16.296602,19.058737 0 1 1 -32.593204,0 16.296602,19.058737 0 1 1 32.593204,0 z"
       transform="matrix(0.24544994,0,0,0.2098775,442.41162,564.68897)" />
    <rect
       style="fill:#00f8c8;fill-opacity:1;stroke:none"
       id="rect5524"
       width="48"
       height="32"
       x="411.42859"
       y="529.50507"
       rx="4"
       ry="4" />
    <path
       sodipodi:type="star"
       style="fill:#00f8c8;fill-opacity:1;stroke:#00f8c8;stroke-width:4.81868886999999990;stroke-linecap:square;stroke-linejoin:round;stroke-miterlimit:4;stroke-opacity:1;stroke-dasharray:none"
       id="path5526"
       sodipodi:sides="3"
       sodipodi:cx="-37.012623"
       sodipodi:cy="82.333015"
       sodipodi:r1="15.819107"
       sodipodi:r2="7.9095535"
       sodipodi:arg1="0.52359878"
       sodipodi:arg2="1.5707963"
       inkscape:flatsided="true"
       inkscape:rounded="0"
       inkscape:randomized="0"
       d="m -23.312874,90.242569 -27.399497,0 13.699748,-23.728661 z"
       transform="matrix(0.51095829,0,0,-0.33714503,454.34049,590.92988)"
       inkscape:transform-center-y="1.3333385" />
    <rect
       style="fill:#485058;fill-opacity:1;stroke:none"
       id="rect5039-7-7-3-5"
       width="4"
       height="32"
       x="-541.50507"
       y="419.42859"
       transform="matrix(0,-1,1,0,0,0)"
       rx="2"
       ry="2" />
    <rect
       style="fill:#485058;fill-opacity:1;stroke:none"
       id="rect5039-7-7-3-5-8"
       width="4"
       height="32"
       x="-547.50507"
       y="419.42859"
       transform="matrix(0,-1,1,0,0,0)"
       rx="2"
       ry="2" />
    <rect
       style="fill:#485058;fill-opacity:1;stroke:none"
       id="rect5039-7-7-3-5-0"
       width="4"
       height="32"
       x="-553.50507"
       y="419.42859"
       transform="matrix(0,-1,1,0,0,0)"
       rx="2"
       ry="2" />
    <rect
       ry="2"
       rx="2.7692308"
       style="fill:#485058;fill-opacity:1;stroke:none"
       id="rect5245-3-6"
       width="72"
       height="32"
       x="-259.42856"
       y="-617.50507"
       transform="scale(-1,-1)" />
    <g
       id="g3205">
      <rect
         transform="scale(-1,-1)"
         y="-673.505"
         x="-219.42857"
         height="24"
         width="32"
         id="rect5245-3-6-0"
         style="fill:#485058;fill-opacity:1;stroke:none"
         rx="2"
         ry="2" />
      <rect
         transform="scale(-1,-1)"
         y="-673.505"
         x="-259.42856"
         height="24"
         width="32"
         id="rect5245-3-6-0-7"
         style="fill:#485058;fill-opacity:1;stroke:none"
         rx="2"
         ry="2" />
    </g>
    <rect
       ry="2"
       rx="2"
       style="fill:#485058;fill-opacity:1;stroke:none"
       id="rect5245-3-6-1"
       width="72"
       height="24"
       x="-259.42856"
       y="-553.50507"
       transform="scale(-1,-1)" />
    <rect
       ry="2"
       rx="2"
       style="fill:#485058;fill-opacity:1;stroke:none"
       id="rect5245-3-6-0-5"
       width="32"
       height="24"
       x="-323.42859"
       y="-673.50507"
       transform="scale(-1,-1)" />
    <rect
       ry="2"
       rx="2"
       style="fill:#485058;fill-opacity:1;stroke:none"
       id="rect5245-3-6-0-7-4"
       width="32"
       height="24"
       x="-363.42856"
       y="-673.50507"
       transform="scale(-1,-1)" />
    <rect
       ry="2"
       rx="2"
       style="fill:#485058;fill-opacity:1;stroke:none"
       id="rect5245-3-6-0-7-4-4"
       width="80"
       height="72"
       x="-475.42856"
       y="-673.50507"
       transform="scale(-1,-1)" />
    <rect
       style="fill:#00c8f8;fill-opacity:1;stroke:none"
       id="rect3790"
       width="32"
       height="65"
       x="187.42857"
       y="529.50507"
       rx="2"
       ry="2" />
    <rect
       style="opacity:1;fill:#485058;fill-opacity:1;stroke:none"
       id="rect3792"
       width="32"
       height="1"
       x="187.42857"
       y="561.50507" />
    <rect
       style="fill:#485058;fill-opacity:1;stroke:none"
       id="rect3794"
       width="16"
       height="4"
       x="195.42857"
       y="576.50507"
       rx="2"
       ry="2" />
    <g
       id="g3816"
       transform="translate(-198.14284,-158.14283)">
      <rect
         ry="2"
         rx="2"
         y="701.64789"
         x="393.57141"
         height="4"
         width="16"
         id="rect3794-6"
         style="fill:#485058;fill-opacity:1;stroke:none" />
      <rect
         ry="2"
         rx="2"
         y="695.64789"
         x="399.57141"
         height="16"
         width="4"
         id="rect3814"
         style="fill:#485058;fill-opacity:1;stroke:none" />
    </g>
  </g>
</svg>
