<?xml version="1.0" encoding="UTF-8"?>
<!DOCTYPE svg PUBLIC "-//W3C//DTD SVG 1.1//EN" "http://www.w3.org/Graphics/SVG/1.1/DTD/svg11.dtd">
<svg version="1.1" xmlns="http://www.w3.org/2000/svg" xmlns:xlink="http://www.w3.org/1999/xlink" x="0px" y="0px" width="72" height="72" viewBox="0, 0, 72, 72">
  <g id="Background">
    <rect x="0" y="0" width="72" height="72" fill="#FFFFFF" fill-opacity="0"/>
  </g>
  <g id="Layer 1">
    <path d="M48.305,9.996 C52.083,9.996 55.496,11.591 57.892,14.143 C60.883,13.554 63.694,12.461 66.231,10.956 C65.251,14.023 63.169,16.597 60.457,18.222 C63.114,17.904 65.645,17.199 68,16.154 C66.239,18.788 64.012,21.101 61.447,22.953 C61.472,23.516 61.485,24.082 61.485,24.651 C61.438,26.637 61.46,27.269 61.138,29.584 C59.46,41.635 51.971,52.766 41.008,58.207 C35.76,60.812 31.045,61.701 25.242,62.004 L25.201,62.004 L23.35,62.004 C16.374,61.922 9.899,59.768 4,56.127 L4,56.12 C5.035,56.251 6.077,56.286 7.119,56.301 C13.272,56.301 18.935,54.202 23.429,50.68 C17.683,50.573 12.832,46.776 11.161,41.559 C11.963,41.712 12.786,41.794 13.632,41.794 C14.83,41.794 15.99,41.634 17.092,41.334 C11.084,40.127 6.557,34.819 6.557,28.456 C6.557,28.401 6.557,28.346 6.558,28.291 C8.329,29.275 10.354,29.865 12.507,29.933 C8.983,27.578 6.664,23.558 6.664,19.002 C6.664,16.595 7.312,14.339 8.442,12.4 C14.92,20.345 24.597,25.574 35.512,26.121 C35.288,25.16 35.172,24.158 35.172,23.129 C35.172,15.876 41.052,9.996 48.305,9.996 z" fill="#55ACEE"/>
  </g>
  <defs/>
</svg>
